<?xml version="1.0" encoding="utf-8"?>
<!-- Generator: Adobe Illustrator 24.1.2, SVG Export Plug-In . SVG Version: 6.00 Build 0)  -->
<svg version="1.1" xmlns="http://www.w3.org/2000/svg" xmlns:xlink="http://www.w3.org/1999/xlink" x="0px" y="0px"
	 viewBox="0 0 595.28 841.89" style="enable-background:new 0 0 595.28 841.89;" xml:space="preserve">
<style type="text/css">
	.st0{fill:none;stroke:#000000;stroke-miterlimit:10;}
	.st1{fill:none;}
	
</style>
<style src="style.css">

	</style>
<g id="Слой_1">
</g>
<g id="Слой_2">
	<g>
		<g>
			<path d="M290.21,387.17c-7.27-13.89-11.28-28.72-7.9-44.33c1.58-7.31,4.46-14.29,7.76-20.98c0.85-1.73,4.08-9.87,5.79-9.89
				c1.33-0.02,4.33,6.32,5.37,7.84c3.3,4.83,7.13,9.29,10.29,14.21c3.82,5.95,6.07,12.42,7.25,19.37
				c2.64,15.63-0.9,28.97-8.75,42.51c-0.41,0.71,0.66,1.32,1.09,0.64c8.98-14.15,11.65-29.62,8.26-45.99
				c-3.35-16.15-15.79-26.37-23.14-40.5c-0.11-0.21-0.43-0.2-0.54,0c-6.72,11.96-13.25,24.7-14.8,38.53
				c-1.53,13.73,2.72,26.72,9.07,38.73C290.05,387.47,290.29,387.33,290.21,387.17L290.21,387.17z"/>
		</g>
	</g>
	<g>
		<g>
			<path d="M303.25,396.84c-20.68-15.46-58.01-19.35-72.83,6.24c-1.31,2.26-5.13,8.76-3.22,11.32c1.29,1.72,7.41,2,9.24,2.33
				c5.43,0.99,10.81,1.59,16.33,1.81c8.64,0.33,17.21,1.86,25.88,1.59c12.16-0.37,26.34-6.19,28.47-19.6
				c0.04-0.27-0.36-0.38-0.41-0.11c-2.89,18.01-24.09,20.12-38.59,18.64c-12.57-1.28-25.37-1.48-37.68-4.62
				c-3.13-0.8-2.38-3.1-1.41-5.84c1.31-3.71,3.4-7.08,5.97-10.04c4.81-5.54,11.38-9.37,18.42-11.3c16.75-4.61,35.5,0.42,49.8,9.63
				C303.26,396.93,303.29,396.87,303.25,396.84L303.25,396.84z"/>
		</g>
	</g>
	<g>
		<g>
			<path d="M314.92,400.31c12.51,2.85,26.09,6.52,36.86,13.73c10.17,6.8,12.62,17.48,15.36,28.54c0.27-0.48,0.55-0.96,0.82-1.45
				c-5.68,1.79-12.64,0.89-18.49,0.39c-6.35-0.55-13.87-1.24-19.75-3.95c-9.61-4.44-19.87-13.38-22.12-24.13
				c-0.09-0.41-0.77-0.2-0.61,0.17c4.48,10.67,10.88,17.98,21.2,23.57c5.06,2.74,11.23,3.51,16.86,4.23
				c7.36,0.94,15.86-0.24,22.92,1.99c0.72,0.23,1.5-0.39,1.49-1.13c-0.24-10.52-5.49-21.39-13.9-27.72
				c-11.75-8.84-26.68-11.09-40.6-14.33C314.88,400.2,314.86,400.29,314.92,400.31L314.92,400.31z"/>
		</g>
	</g>
	<g>
		<g>
			<path d="M271.01,421.03c-5.87,2.38-12.94,7.96-15.92,13.62c-2.3,4.36-2.56,9.97-2.69,14.79c-0.19,6.76,0.24,13.59,1.07,20.3
				c0.07,0.53,0.44,0.85,0.98,0.75c16.16-3.01,33.91-6.51,45.46-19.31c9.1-10.07,12.39-25.65,7.14-38.34
				c-0.33-0.81-1.63-0.52-1.36,0.37c3.5,11.35,2.84,23.32-4.07,33.34c-7.55,10.94-20.46,16.32-32.91,19.42
				c-3.03,0.75-6.09,1.38-9.15,1.98c-1.39,0.27-3.11,1.09-4.28,0.23c-1.31-0.97-1.18-4.22-1.35-5.79
				c-0.64-5.98-0.81-12.25-0.17-18.24c0.68-6.42,2.74-10.7,7.28-15.14c2.97-2.91,6.32-5.83,10.17-7.52
				C271.46,421.37,271.27,420.93,271.01,421.03L271.01,421.03z"/>
		</g>
	</g>
	<g>
		<g>
			<path d="M306.75,399.98c0.93-3.08,1.08-6.27,0.29-9.4c-0.39-1.54-1.13-3.13-1.34-4.52c-0.14-0.95-0.03-1.83-1.23-2.16
				c-0.92-0.25-1.91,0.31-2.16,1.23c-0.31,1.14,0.47,1.59,1.23,2.16c3.43,2.61,3.46,8.5,2.46,12.49
				C305.88,400.26,306.61,400.46,306.75,399.98L306.75,399.98z"/>
		</g>
	</g>
	<g>
		<g>
			<path d="M306.43,399.72c-2.78-0.6-5.54-2.17-8.36-0.84c-1.48,0.7-3.81,2.95-2.4,4.6c0.2,0.23,0.57,0.14,0.72-0.09
				c0.41-0.63,0.3-1.32,0.65-1.97c0.66-1.26,2.36-1.88,3.67-1.92c1.89-0.05,3.77,0.56,5.65,0.7
				C306.64,400.22,306.7,399.78,306.43,399.72L306.43,399.72z"/>
		</g>
	</g>
	<g>
		<g>
			<path d="M307.07,400.27c-0.12-0.14-0.25-0.27-0.37-0.41c-0.11,0.19-0.22,0.39-0.33,0.58c1.47,0.1,3.85,1.89,5.03,2.65
				c3.21,2.07,4.44,4.74,3.74,8.45c-0.32,1.67,1.8,2.64,2.76,1.16c1.79-2.74-1.94-8.09-4.03-9.7c-1.34-1.03-2.93-1.82-4.51-2.41
				c-0.84-0.31-2.08-0.97-2.99-0.94c-0.56,0.02-0.46,0.88,0.1,0.76c0.17,0.01,0.35,0.02,0.52,0.03
				C307.1,400.49,307.16,400.34,307.07,400.27L307.07,400.27z"/>
		</g>
	</g>
	<g>
		<g>
			<path d="M306.59,399.89c-0.03,0.01-0.07,0.01-0.1,0.02c-0.06,0.01-0.05,0.09,0,0.11c0.06,0.02,0.12,0.04,0.17,0.06
				c0.21,0.07,0.3-0.26,0.09-0.33c-0.03-0.01-0.06-0.02-0.09-0.03c-0.28-0.09-0.41,0.38-0.12,0.44c4.87,0.96,10.52-1.09,13.07-5.43
				c1.02-1.73-2.15-2.91-2.42-0.66c-0.55,4.61-7.22,4.85-10.57,5.92C306.68,399.97,306.65,399.88,306.59,399.89L306.59,399.89z"/>
		</g>
	</g>
	<g>
		<g>
			<path d="M306.56,400.02c-0.8,3.73-2.45,7.21-3.88,10.73c-0.69,1.69-1.71,3.22-2.42,4.79c-0.45,1.01-0.55,1.86,0.11,2.81
				c0.38,0.54,1.1,0.69,1.6,0.21c0.79-0.75,0.9-1.44,0.92-2.51c0.04-2.23,0.42-3.71,1.24-5.93c1.18-3.22,2.75-6.55,2.84-10.04
				C306.98,399.84,306.61,399.79,306.56,400.02L306.56,400.02z"/>
		</g>
	</g>
	<circle class="st0" cx="304.21" cy="397.87" r="138.18"/>
	<circle class="st0" cx="304.21" cy="397.87" r="129.96"/>
	<g>
		<g>
			<path d="M320.46,374.68c3.01-4.98,9.5-9.21,15-10.84c5.82-1.72,12.53-0.78,18.51-0.69c2.71,0.04,6.8-0.94,9.37-0.42
				c1.63,0.33,0.4-0.98,0.69,0.51c0.34,1.74-0.6,4.24-0.9,5.95c-1.18,6.79-2.61,13.42-5.94,19.54
				c-4.87,8.97-12.47,13.25-22.13,15.66c-0.38,0.09-0.31,0.71,0.09,0.69c11.72-0.5,20.78-9.09,25.08-19.52
				c1.93-4.68,3.13-9.71,3.79-14.73c0.37-2.8,0.1-5.84,0.86-8.57c0.07-0.26-0.17-0.46-0.41-0.41c-9.23,1.78-18.95-0.9-28.08,1.32
				c-5.93,1.44-12.94,6.11-16.06,11.44C320.29,374.68,320.41,374.75,320.46,374.68L320.46,374.68z"/>
		</g>
	</g>
	<g>
		<g>
			<path d="M295.85,404.16c0.18,0.01,0.34-0.03,0.49-0.11c0.16-0.05,0.29-0.14,0.41-0.26c0.12-0.12,0.21-0.25,0.26-0.41
				c0.08-0.15,0.12-0.31,0.11-0.49c-0.02-0.11-0.03-0.23-0.05-0.34c-0.06-0.22-0.17-0.4-0.33-0.56c-0.09-0.07-0.17-0.13-0.26-0.2
				c-0.2-0.12-0.41-0.17-0.64-0.17c-0.18-0.01-0.34,0.03-0.49,0.11c-0.16,0.05-0.29,0.14-0.41,0.26c-0.12,0.12-0.21,0.25-0.26,0.41
				c-0.08,0.15-0.12,0.31-0.11,0.49c0.02,0.11,0.03,0.23,0.05,0.34c0.06,0.22,0.17,0.4,0.33,0.56c0.09,0.07,0.17,0.13,0.26,0.2
				C295.4,404.11,295.62,404.16,295.85,404.16L295.85,404.16z"/>
		</g>
	</g>
</g>
<g id="Слой_3">
	<g>
		<rect x="135.26" y="193.07" class="st1" width="340.56" height="101.06"/>
		<path d="M138.98,193.82h17.43v2.98h-14.39v9.53h14.27v2.98h-14.27v11.95h14.27v2.98h-17.31V193.82z"/>
		<path d="M175.16,193.82h6c2.41,0,4.27,0.29,5.56,0.86c1.3,0.57,2.32,1.45,3.07,2.64c0.75,1.19,1.13,2.5,1.13,3.95
			c0,1.35-0.33,2.58-0.99,3.69c-0.66,1.11-1.63,2.01-2.9,2.7c1.58,0.54,2.8,1.17,3.65,1.89c0.85,0.72,1.52,1.6,1.99,2.63
			c0.47,1.03,0.71,2.14,0.71,3.34c0,2.44-0.89,4.5-2.68,6.19c-1.79,1.69-4.18,2.53-7.19,2.53h-8.35V193.82z M178.13,196.8v9.74h1.74
			c2.11,0,3.67-0.2,4.66-0.59c0.99-0.39,1.78-1.01,2.36-1.86c0.58-0.85,0.87-1.79,0.87-2.82c0-1.39-0.49-2.48-1.46-3.28
			c-0.97-0.79-2.52-1.19-4.65-1.19H178.13z M178.13,209.6v11.66h3.77c2.22,0,3.85-0.22,4.89-0.65c1.04-0.43,1.87-1.11,2.5-2.04
			c0.63-0.92,0.94-1.92,0.94-3c0-1.35-0.44-2.53-1.33-3.54c-0.88-1.01-2.1-1.7-3.64-2.07c-1.04-0.25-2.84-0.37-5.41-0.37H178.13z"/>
		<path d="M225.22,193.82l14.19,30.42h-3.28l-4.78-10.01h-13.1l-4.74,10.01h-3.39l14.37-30.42H225.22z M224.84,200.28l-5.21,11.01
			h10.4L224.84,200.28z"/>
		<path d="M257.49,193.82h3.04v12.76h15.49v-12.76h3.04v30.42h-3.04v-14.68h-15.49v14.68h-3.04V193.82z"/>
		<path d="M302.86,224.24h-3.04v-30.42h15.24v2.98h-12.2V224.24z"/>
		<path d="M332.85,193.82h17.43v2.98h-14.39v9.53h14.27v2.98h-14.27v11.95h14.27v2.98h-17.31V193.82z"/>
		<path d="M393.57,224.24h-3.31l-10.08-23.5l-10.25,23.5h-3.31l13.23-30.42h0.66L393.57,224.24z"/>
		<path d="M436.01,224.24h-3.16v-23.32l-20.06,23.32h-0.68v-30.42h3.04v23.72l20.18-23.72h0.68V224.24z"/>
		<path d="M456.84,193.82h17.43v2.98h-14.39v9.53h14.27v2.98h-14.27v11.95h14.27v2.98h-17.31V193.82z"/>
	</g>
	<g>
		<rect x="136.9" y="577.6" class="st1" width="332.96" height="98.8"/>
		<path d="M140.03,578.22h4.96c1.99,0,3.53,0.24,4.6,0.71c1.07,0.47,1.92,1.2,2.54,2.18c0.62,0.98,0.93,2.07,0.93,3.26
			c0,1.12-0.27,2.13-0.82,3.05c-0.54,0.92-1.34,1.66-2.4,2.23c1.31,0.44,2.31,0.97,3.02,1.56c0.7,0.6,1.25,1.32,1.64,2.17
			s0.59,1.77,0.59,2.76c0,2.02-0.74,3.72-2.21,5.12c-1.48,1.4-3.46,2.09-5.94,2.09h-6.9V578.22z M142.49,580.68v8.05h1.44
			c1.75,0,3.03-0.16,3.85-0.49c0.82-0.32,1.47-0.84,1.95-1.54c0.48-0.7,0.72-1.48,0.72-2.33c0-1.15-0.4-2.05-1.21-2.71
			s-2.09-0.98-3.84-0.98H142.49z M142.49,591.26v9.64h3.12c1.84,0,3.18-0.18,4.04-0.54c0.86-0.36,1.54-0.92,2.06-1.68
			c0.52-0.76,0.78-1.59,0.78-2.48c0-1.12-0.37-2.09-1.1-2.92c-0.73-0.83-1.73-1.4-3.01-1.71c-0.86-0.21-2.35-0.31-4.47-0.31H142.49z
			"/>
		<path d="M216.55,582.88l-1.98,1.52c-1.09-1.42-2.41-2.5-3.94-3.24c-1.53-0.73-3.22-1.1-5.05-1.1c-2.01,0-3.86,0.48-5.57,1.44
			c-1.71,0.96-3.03,2.26-3.97,3.88c-0.94,1.62-1.41,3.45-1.41,5.48c0,3.06,1.05,5.62,3.15,7.67c2.1,2.05,4.75,3.08,7.96,3.08
			c3.52,0,6.47-1.38,8.84-4.14l1.98,1.5c-1.25,1.6-2.82,2.83-4.69,3.7c-1.87,0.87-3.97,1.31-6.28,1.31c-4.4,0-7.87-1.46-10.41-4.39
			c-2.13-2.47-3.2-5.46-3.2-8.96c0-3.68,1.29-6.78,3.87-9.29c2.58-2.51,5.81-3.77,9.7-3.77c2.35,0,4.47,0.46,6.36,1.39
			C213.8,579.91,215.35,581.21,216.55,582.88z"/>
		<path d="M233.57,577.59c3.81,0,6.99,1.27,9.56,3.81c2.56,2.54,3.85,5.67,3.85,9.38c0,3.68-1.28,6.8-3.84,9.37
			s-5.68,3.85-9.36,3.85c-3.73,0-6.87-1.28-9.44-3.83c-2.56-2.55-3.85-5.64-3.85-9.26c0-2.42,0.58-4.65,1.75-6.72
			c1.17-2.06,2.76-3.68,4.78-4.84S231.22,577.59,233.57,577.59z M233.68,580.03c-1.86,0-3.62,0.49-5.29,1.45
			c-1.67,0.97-2.97,2.28-3.9,3.92c-0.94,1.64-1.4,3.47-1.4,5.49c0,2.99,1.04,5.51,3.11,7.57c2.07,2.06,4.57,3.09,7.49,3.09
			c1.95,0,3.76-0.47,5.42-1.42s2.96-2.24,3.89-3.88c0.93-1.64,1.4-3.47,1.4-5.47c0-2-0.47-3.8-1.4-5.41
			c-0.93-1.61-2.24-2.9-3.93-3.87C237.36,580.51,235.57,580.03,233.68,580.03z"/>
		<path d="M252.08,578.22h4.96c1.99,0,3.53,0.24,4.6,0.71c1.07,0.47,1.92,1.2,2.54,2.18c0.62,0.98,0.93,2.07,0.93,3.26
			c0,1.12-0.27,2.13-0.82,3.05c-0.54,0.92-1.34,1.66-2.4,2.23c1.31,0.44,2.31,0.97,3.02,1.56c0.7,0.6,1.25,1.32,1.64,2.17
			s0.59,1.77,0.59,2.76c0,2.02-0.74,3.72-2.21,5.12c-1.48,1.4-3.46,2.09-5.94,2.09h-6.9V578.22z M254.54,580.68v8.05h1.44
			c1.75,0,3.03-0.16,3.85-0.49c0.82-0.32,1.47-0.84,1.95-1.54c0.48-0.7,0.72-1.48,0.72-2.33c0-1.15-0.4-2.05-1.21-2.71
			s-2.09-0.98-3.84-0.98H254.54z M254.54,591.26v9.64h3.12c1.84,0,3.18-0.18,4.04-0.54c0.86-0.36,1.54-0.92,2.06-1.68
			c0.52-0.76,0.78-1.59,0.78-2.48c0-1.12-0.37-2.09-1.1-2.92c-0.73-0.83-1.73-1.4-3.01-1.71c-0.86-0.21-2.35-0.31-4.47-0.31H254.54z
			"/>
		<path d="M272.1,578.22h5.01c2.87,0,4.81,0.13,5.81,0.38c1.44,0.35,2.61,1.08,3.52,2.18c0.91,1.1,1.37,2.48,1.37,4.14
			c0,1.67-0.44,3.06-1.33,4.14c-0.89,1.09-2.11,1.82-3.67,2.2c-1.14,0.27-3.27,0.41-6.39,0.41h-1.79v11.69h-2.51V578.22z
			 M274.61,580.68v8.53l4.26,0.05c1.72,0,2.98-0.16,3.78-0.47c0.8-0.31,1.42-0.82,1.88-1.52c0.46-0.7,0.68-1.48,0.68-2.35
			c0-0.84-0.23-1.61-0.68-2.31c-0.46-0.7-1.06-1.2-1.8-1.49c-0.75-0.3-1.97-0.44-3.67-0.44H274.61z"/>
		<path d="M292.84,578.22h14.41v2.46h-11.89v7.88h11.79v2.46h-11.79v9.88h11.79v2.46h-14.3V578.22z"/>
		<path d="M310.45,603.36l3.6-25.14h0.41l10.22,20.63l10.12-20.63h0.4l3.62,25.14h-2.46l-2.48-17.98l-8.89,17.98h-0.64l-8.99-18.12
			l-2.47,18.12H310.45z"/>
		<path d="M343.77,578.22h14.41v2.46h-11.89v7.88h11.79v2.46h-11.79v9.88h11.79v2.46h-14.3V578.22z"/>
		<path d="M362.48,578.22H365v10.54h12.8v-10.54h2.51v25.14h-2.51v-12.13H365v12.13h-2.51V578.22z"/>
		<path d="M386.39,578.22h2.51v10.54h12.8v-10.54h2.51v25.14h-2.51v-12.13h-12.8v12.13h-2.51V578.22z"/>
		<path d="M422.31,577.59c3.81,0,6.99,1.27,9.56,3.81c2.56,2.54,3.85,5.67,3.85,9.38c0,3.68-1.28,6.8-3.84,9.37
			c-2.56,2.56-5.68,3.85-9.36,3.85c-3.73,0-6.87-1.28-9.44-3.83c-2.57-2.55-3.85-5.64-3.85-9.26c0-2.42,0.58-4.65,1.75-6.72
			c1.17-2.06,2.76-3.68,4.78-4.84S419.96,577.59,422.31,577.59z M422.42,580.03c-1.86,0-3.62,0.49-5.29,1.45
			c-1.67,0.97-2.97,2.28-3.9,3.92s-1.4,3.47-1.4,5.49c0,2.99,1.04,5.51,3.11,7.57c2.07,2.06,4.57,3.09,7.49,3.09
			c1.95,0,3.76-0.47,5.42-1.42c1.66-0.95,2.96-2.24,3.89-3.88c0.93-1.64,1.4-3.47,1.4-5.47c0-2-0.46-3.8-1.4-5.41
			c-0.93-1.61-2.24-2.9-3.93-3.87C426.1,580.51,424.31,580.03,422.42,580.03z"/>
		<path d="M439.61,603.36l3.6-25.14h0.41l10.22,20.63l10.12-20.63h0.4l3.62,25.14h-2.46l-2.48-17.98l-8.89,17.98h-0.64l-8.99-18.12
			l-2.47,18.12H439.61z"/>
		<path d="M138.81,642.49l3.6-25.14h0.41l10.22,20.63l10.12-20.63h0.4l3.62,25.14h-2.46l-2.48-17.98l-8.89,17.98h-0.64l-8.99-18.12
			l-2.47,18.12H138.81z"/>
		<path d="M270.37,642.49h-2.61v-19.28l-16.58,19.28h-0.56v-25.14h2.51v19.61l16.68-19.61h0.56V642.49z"/>
		<path d="M354.95,617.35h5.01c2.87,0,4.81,0.13,5.81,0.38c1.44,0.35,2.61,1.08,3.52,2.18c0.91,1.1,1.37,2.48,1.37,4.14
			c0,1.67-0.45,3.06-1.33,4.14c-0.89,1.09-2.11,1.82-3.67,2.2c-1.14,0.27-3.27,0.41-6.39,0.41h-1.79v11.69h-2.51V617.35z
			 M357.46,619.81v8.53l4.25,0.05c1.72,0,2.98-0.16,3.78-0.47c0.8-0.31,1.42-0.82,1.88-1.52c0.46-0.7,0.68-1.48,0.68-2.35
			c0-0.84-0.23-1.61-0.68-2.31c-0.46-0.7-1.06-1.2-1.8-1.49c-0.75-0.3-1.97-0.44-3.67-0.44H357.46z"/>
		<path d="M454.17,617.35h14.41v2.46h-11.89v7.88h11.79v2.46h-11.79v9.88h11.79v2.46h-14.3V617.35z"/>
	</g>
	<g>
	</g>
	<g>
	</g>
	<g>
	</g>
	<g>
	</g>
	<g>
	</g>
	<g>
	</g>
</g>
</svg>
