<?xml version="1.0" encoding="utf-8"?>
<!-- Generator: Adobe Illustrator 24.1.2, SVG Export Plug-In . SVG Version: 6.00 Build 0)  -->
<svg version="1.1" xmlns="http://www.w3.org/2000/svg" xmlns:xlink="http://www.w3.org/1999/xlink" x="0px" y="0px"
	 viewBox="0 0 595.28 841.89" style="enable-background:new 0 0 595.28 841.89;" xml:space="preserve">
<style type="text/css">
	.st0{fill:none;stroke:#000000;stroke-miterlimit:10;}
	.st1{fill:none;}
	.st2{font-family:'CenturyGothic';}
	.st3{font-size:42.35px;}
	.st4{letter-spacing:13;}
	.st5{font-size:35px;}
	.st6{letter-spacing:23;}
	.st7{letter-spacing:78;}
	.path{
                stroke-dashoffset: 1000;
                animation: dash 5s linear forwards;
            }
	 @keyframes dash{
                from{
                    stroke-dasharray: 1000;
                    stroke-dashoffset: 1000;
                }
                to{
                    stroke-dashoffset: 0;
                }
            }
            
            
</style>
<g id="Слой_1">
</g>
<g id="Слой_2">
	<g>
		<g>
			<path d="M290.21,387.17c-7.27-13.89-11.28-28.72-7.9-44.33c1.58-7.31,4.46-14.29,7.76-20.98c0.85-1.73,4.08-9.87,5.79-9.89
				c1.33-0.02,4.33,6.32,5.37,7.84c3.3,4.83,7.13,9.29,10.29,14.21c3.82,5.95,6.07,12.42,7.25,19.37
				c2.64,15.63-0.9,28.97-8.75,42.51c-0.41,0.71,0.66,1.32,1.09,0.64c8.98-14.15,11.65-29.62,8.26-45.99
				c-3.35-16.15-15.79-26.37-23.14-40.5c-0.11-0.21-0.43-0.2-0.54,0c-6.72,11.96-13.25,24.7-14.8,38.53
				c-1.53,13.73,2.72,26.72,9.07,38.73C290.05,387.47,290.29,387.33,290.21,387.17L290.21,387.17z"/>
		</g>
	</g>
	<g>
		<g>
			<path d="M303.25,396.84c-20.68-15.46-58.01-19.35-72.83,6.24c-1.31,2.26-5.13,8.76-3.22,11.32c1.29,1.72,7.41,2,9.24,2.33
				c5.43,0.99,10.81,1.59,16.33,1.81c8.64,0.33,17.21,1.86,25.88,1.59c12.16-0.37,26.34-6.19,28.47-19.6
				c0.04-0.27-0.36-0.38-0.41-0.11c-2.89,18.01-24.09,20.12-38.59,18.64c-12.57-1.28-25.37-1.48-37.68-4.62
				c-3.13-0.8-2.38-3.1-1.41-5.84c1.31-3.71,3.4-7.08,5.97-10.04c4.81-5.54,11.38-9.37,18.42-11.3c16.75-4.61,35.5,0.42,49.8,9.63
				C303.26,396.93,303.29,396.87,303.25,396.84L303.25,396.84z"/>
		</g>
	</g>
	<g>
		<g>
			<path d="M314.92,400.31c12.51,2.85,26.09,6.52,36.86,13.73c10.17,6.8,12.62,17.48,15.36,28.54c0.27-0.48,0.55-0.96,0.82-1.45
				c-5.68,1.79-12.64,0.89-18.49,0.39c-6.35-0.55-13.87-1.24-19.75-3.95c-9.61-4.44-19.87-13.38-22.12-24.13
				c-0.09-0.41-0.77-0.2-0.61,0.17c4.48,10.67,10.88,17.98,21.2,23.57c5.06,2.74,11.23,3.51,16.86,4.23
				c7.36,0.94,15.86-0.24,22.92,1.99c0.72,0.23,1.5-0.39,1.49-1.13c-0.24-10.52-5.49-21.39-13.9-27.72
				c-11.75-8.84-26.68-11.09-40.6-14.33C314.88,400.2,314.86,400.29,314.92,400.31L314.92,400.31z"/>
		</g>
	</g>
	<g>
		<g>
			<path d="M271.01,421.03c-5.87,2.38-12.94,7.96-15.92,13.62c-2.3,4.36-2.56,9.97-2.69,14.79c-0.19,6.76,0.24,13.59,1.07,20.3
				c0.07,0.53,0.44,0.85,0.98,0.75c16.16-3.01,33.91-6.51,45.46-19.31c9.1-10.07,12.39-25.65,7.14-38.34
				c-0.33-0.81-1.63-0.52-1.36,0.37c3.5,11.35,2.84,23.32-4.07,33.34c-7.55,10.94-20.46,16.32-32.91,19.42
				c-3.03,0.75-6.09,1.38-9.15,1.98c-1.39,0.27-3.11,1.09-4.28,0.23c-1.31-0.97-1.18-4.22-1.35-5.79
				c-0.64-5.98-0.81-12.25-0.17-18.24c0.68-6.42,2.74-10.7,7.28-15.14c2.97-2.91,6.32-5.83,10.17-7.52
				C271.46,421.37,271.27,420.93,271.01,421.03L271.01,421.03z"/>
		</g>
	</g>
	<g>
		<g>
			<path d="M306.75,399.98c0.93-3.08,1.08-6.27,0.29-9.4c-0.39-1.54-1.13-3.13-1.34-4.52c-0.14-0.95-0.03-1.83-1.23-2.16
				c-0.92-0.25-1.91,0.31-2.16,1.23c-0.31,1.14,0.47,1.59,1.23,2.16c3.43,2.61,3.46,8.5,2.46,12.49
				C305.88,400.26,306.61,400.46,306.75,399.98L306.75,399.98z"/>
		</g>
	</g>
	<g>
		<g>
			<path d="M306.43,399.72c-2.78-0.6-5.54-2.17-8.36-0.84c-1.48,0.7-3.81,2.95-2.4,4.6c0.2,0.23,0.57,0.14,0.72-0.09
				c0.41-0.63,0.3-1.32,0.65-1.97c0.66-1.26,2.36-1.88,3.67-1.92c1.89-0.05,3.77,0.56,5.65,0.7
				C306.64,400.22,306.7,399.78,306.43,399.72L306.43,399.72z"/>
		</g>
	</g>
	<g>
		<g>
			<path d="M307.07,400.27c-0.12-0.14-0.25-0.27-0.37-0.41c-0.11,0.19-0.22,0.39-0.33,0.58c1.47,0.1,3.85,1.89,5.03,2.65
				c3.21,2.07,4.44,4.74,3.74,8.45c-0.32,1.67,1.8,2.64,2.76,1.16c1.79-2.74-1.94-8.09-4.03-9.7c-1.34-1.03-2.93-1.82-4.51-2.41
				c-0.84-0.31-2.08-0.97-2.99-0.94c-0.56,0.02-0.46,0.88,0.1,0.76c0.17,0.01,0.35,0.02,0.52,0.03
				C307.1,400.49,307.16,400.34,307.07,400.27L307.07,400.27z"/>
		</g>
	</g>
	<g>
		<g>
			<path d="M306.59,399.89c-0.03,0.01-0.07,0.01-0.1,0.02c-0.06,0.01-0.05,0.09,0,0.11c0.06,0.02,0.12,0.04,0.17,0.06
				c0.21,0.07,0.3-0.26,0.09-0.33c-0.03-0.01-0.06-0.02-0.09-0.03c-0.28-0.09-0.41,0.38-0.12,0.44c4.87,0.96,10.52-1.09,13.07-5.43
				c1.02-1.73-2.15-2.91-2.42-0.66c-0.55,4.61-7.22,4.85-10.57,5.92C306.68,399.97,306.65,399.88,306.59,399.89L306.59,399.89z"/>
		</g>
	</g>
	<g>
		<g>
			<path d="M306.56,400.02c-0.8,3.73-2.45,7.21-3.88,10.73c-0.69,1.69-1.71,3.22-2.42,4.79c-0.45,1.01-0.55,1.86,0.11,2.81
				c0.38,0.54,1.1,0.69,1.6,0.21c0.79-0.75,0.9-1.44,0.92-2.51c0.04-2.23,0.42-3.71,1.24-5.93c1.18-3.22,2.75-6.55,2.84-10.04
				C306.98,399.84,306.61,399.79,306.56,400.02L306.56,400.02z"/>
		</g>
	</g>
	<circle class="st0" cx="304.21" cy="397.87" r="138.18"/>
	<circle class="st0" cx="304.21" cy="397.87" r="129.96"/>
	<g>
		<g>
			<path d="M320.46,374.68c3.01-4.98,9.5-9.21,15-10.84c5.82-1.72,12.53-0.78,18.51-0.69c2.71,0.04,6.8-0.94,9.37-0.42
				c1.63,0.33,0.4-0.98,0.69,0.51c0.34,1.74-0.6,4.24-0.9,5.95c-1.18,6.79-2.61,13.42-5.94,19.54
				c-4.87,8.97-12.47,13.25-22.13,15.66c-0.38,0.09-0.31,0.71,0.09,0.69c11.72-0.5,20.78-9.09,25.08-19.52
				c1.93-4.68,3.13-9.71,3.79-14.73c0.37-2.8,0.1-5.84,0.86-8.57c0.07-0.26-0.17-0.46-0.41-0.41c-9.23,1.78-18.95-0.9-28.08,1.32
				c-5.93,1.44-12.94,6.11-16.06,11.44C320.29,374.68,320.41,374.75,320.46,374.68L320.46,374.68z"/>
		</g>
	</g>
	<g>
		<g>
			<path d="M295.85,404.16c0.18,0.01,0.34-0.03,0.49-0.11c0.16-0.05,0.29-0.14,0.41-0.26c0.12-0.12,0.21-0.25,0.26-0.41
				c0.08-0.15,0.12-0.31,0.11-0.49c-0.02-0.11-0.03-0.23-0.05-0.34c-0.06-0.22-0.17-0.4-0.33-0.56c-0.09-0.07-0.17-0.13-0.26-0.2
				c-0.2-0.12-0.41-0.17-0.64-0.17c-0.18-0.01-0.34,0.03-0.49,0.11c-0.16,0.05-0.29,0.14-0.41,0.26c-0.12,0.12-0.21,0.25-0.26,0.41
				c-0.08,0.15-0.12,0.31-0.11,0.49c0.02,0.11,0.03,0.23,0.05,0.34c0.06,0.22,0.17,0.4,0.33,0.56c0.09,0.07,0.17,0.13,0.26,0.2
				C295.4,404.11,295.62,404.16,295.85,404.16L295.85,404.16z"/>
		</g>
	</g>
</g>
<g id="Слой_3">
	<rect x="135.26" y="193.07" class="st1" width="340.56" height="101.06"/>
	<text transform="matrix(1 0 0 1 135.2612 224.2402)"><tspan x="0" y="0" class="st2 st3 st4">ЕВАНГЕЛИ</tspan><tspan x="317.85" y="0" class="st2 st3">Е</tspan></text>
	<rect x="136.9" y="577.6" class="st1" width="332.96" height="98.8"/>
	<text transform="matrix(1 0 0 1 136.9009 603.3574)"><tspan x="0" y="0" class="st2 st5">В</tspan><tspan x="20.1" y="0" class="st2 st5 st6"> </tspan><tspan x="53.18" y="0" class="st2 st5">СОВРЕМЕННОМ </tspan><tspan x="0" y="39.13" class="st2 st5 st7">МИР</tspan><tspan x="314.19" y="39.13" class="st2 st5">Е</tspan></text>
</g>
</svg>
