<svg id="Слой_3" data-name="Слой 3" xmlns="http://www.w3.org/2000/svg" viewBox="0 0 244.63 41.16"><defs><style>.cls-1{fill:#1d1d1b;}</style></defs><path class="cls-1" d="M141.13,321.42h12.76v2.18H143.36v7H153.8v2.18H143.36v8.75H153.8v2.18H141.13Z" transform="translate(-141.13 -321.42)"/><path class="cls-1" d="M167.51,321.42h4.39A10.62,10.62,0,0,1,176,322a5,5,0,0,1,2.25,1.93,5.32,5.32,0,0,1,.82,2.9,5.25,5.25,0,0,1-.72,2.7,5.33,5.33,0,0,1-2.12,2,8.48,8.48,0,0,1,2.67,1.39,5.49,5.49,0,0,1,1.45,1.92,5.72,5.72,0,0,1,.52,2.44,6,6,0,0,1-2,4.54,7.35,7.35,0,0,1-5.26,1.85h-6.11Zm2.18,2.18v7.13H171a9.89,9.89,0,0,0,3.42-.44,3.62,3.62,0,0,0,1.72-1.36,3.54,3.54,0,0,0,.64-2.06,2.91,2.91,0,0,0-1.07-2.4,5.37,5.37,0,0,0-3.4-.87Zm0,9.37v8.53h2.76A10.11,10.11,0,0,0,176,341a4.1,4.1,0,0,0,1.82-1.5,3.89,3.89,0,0,0-.28-4.78,5,5,0,0,0-2.66-1.51,19.69,19.69,0,0,0-4-.27Z" transform="translate(-141.13 -321.42)"/><path class="cls-1" d="M204.06,321.42l10.38,22.26H212l-3.5-7.32h-9.6l-3.46,7.32H193l10.52-22.26Zm-.28,4.73L200,334.21h7.61Z" transform="translate(-141.13 -321.42)"/><path class="cls-1" d="M227.58,321.42h2.22v9.34h11.34v-9.34h2.22v22.26h-2.22V332.94H229.8v10.74h-2.22Z" transform="translate(-141.13 -321.42)"/><path class="cls-1" d="M260.69,343.68h-2.23V321.42h11.16v2.18h-8.93Z" transform="translate(-141.13 -321.42)"/><path class="cls-1" d="M282.54,321.42H295.3v2.18H284.77v7h10.44v2.18H284.77v8.75h10.44v2.18H282.54Z" transform="translate(-141.13 -321.42)"/><path class="cls-1" d="M326.89,343.68h-2.42l-7.38-17.2-7.5,17.2h-2.43l9.69-22.26h.49Z" transform="translate(-141.13 -321.42)"/><path class="cls-1" d="M357.85,343.68h-2.31V326.61l-14.69,17.07h-.5V321.42h2.23v17.36l14.77-17.36h.5Z" transform="translate(-141.13 -321.42)"/><path class="cls-1" d="M373,321.42h12.76v2.18H375.22v7h10.45v2.18H375.22v8.75h10.45v2.18H373Z" transform="translate(-141.13 -321.42)"/><path class="cls-1" d="M142,350.8h2.26a5.5,5.5,0,0,1,2.1.32,2.57,2.57,0,0,1,1.16,1,2.67,2.67,0,0,1,.43,1.49,2.79,2.79,0,0,1-.37,1.4,2.94,2.94,0,0,1-1.1,1,4.21,4.21,0,0,1,1.38.71,2.83,2.83,0,0,1,.75,1,3,3,0,0,1,.27,1.26,3.09,3.09,0,0,1-1,2.34,3.8,3.8,0,0,1-2.72,1H142Zm1.12,1.12v3.68h.66a5.11,5.11,0,0,0,1.76-.22,1.88,1.88,0,0,0,.89-.7,1.85,1.85,0,0,0,.33-1.07,1.5,1.5,0,0,0-.55-1.24,2.77,2.77,0,0,0-1.76-.45Zm0,4.84v4.41h1.42a5.2,5.2,0,0,0,1.85-.25,2,2,0,0,0,.94-.77,2,2,0,0,0,.36-1.13,2,2,0,0,0-.5-1.34,2.54,2.54,0,0,0-1.38-.78,10.31,10.31,0,0,0-2-.14Z" transform="translate(-141.13 -321.42)"/><path class="cls-1" d="M166.28,352.93l-.9.7a4.91,4.91,0,0,0-1.8-1.48,5.22,5.22,0,0,0-2.31-.51,5.1,5.1,0,0,0-2.55.66,4.69,4.69,0,0,0-1.81,1.78,4.88,4.88,0,0,0-.65,2.5,4.71,4.71,0,0,0,1.44,3.51,5,5,0,0,0,3.64,1.4,5.12,5.12,0,0,0,4-1.89l.9.69a5.73,5.73,0,0,1-2.14,1.69,6.7,6.7,0,0,1-2.87.6,6,6,0,0,1-4.76-2,6.07,6.07,0,0,1-1.46-4.09,5.71,5.71,0,0,1,1.77-4.25,6.09,6.09,0,0,1,4.43-1.72,6.45,6.45,0,0,1,2.91.64A5.64,5.64,0,0,1,166.28,352.93Z" transform="translate(-141.13 -321.42)"/><path class="cls-1" d="M174.06,350.51a6,6,0,0,1,4.37,1.74,6,6,0,0,1-4.27,10.33,5.87,5.87,0,0,1-4.32-1.75,5.77,5.77,0,0,1-1.76-4.23,6.14,6.14,0,0,1,.8-3.07,5.84,5.84,0,0,1,2.19-2.22A5.9,5.9,0,0,1,174.06,350.51Zm.05,1.12a4.88,4.88,0,0,0-4.2,2.45,5,5,0,0,0-.64,2.51,4.83,4.83,0,0,0,4.84,4.87,4.86,4.86,0,0,0,2.48-.65,4.66,4.66,0,0,0,1.78-1.77,5,5,0,0,0,.63-2.5,4.94,4.94,0,0,0-.63-2.48,5,5,0,0,0-4.26-2.43Z" transform="translate(-141.13 -321.42)"/><path class="cls-1" d="M182.53,350.8h2.26a5.5,5.5,0,0,1,2.1.32,2.57,2.57,0,0,1,1.16,1,2.81,2.81,0,0,1,.06,2.89,2.94,2.94,0,0,1-1.1,1,4.21,4.21,0,0,1,1.38.71,2.83,2.83,0,0,1,.75,1,3,3,0,0,1,.27,1.26,3.09,3.09,0,0,1-1,2.34,3.8,3.8,0,0,1-2.72,1h-3.15Zm1.12,1.12v3.68h.66a5.07,5.07,0,0,0,1.76-.22,1.88,1.88,0,0,0,.89-.7,1.85,1.85,0,0,0,.33-1.07,1.5,1.5,0,0,0-.55-1.24,2.77,2.77,0,0,0-1.76-.45Zm0,4.84v4.41h1.43a5.13,5.13,0,0,0,1.84-.25,2.1,2.1,0,0,0,1-.77,2,2,0,0,0,.35-1.13,1.94,1.94,0,0,0-.5-1.34,2.55,2.55,0,0,0-1.37-.78,10.51,10.51,0,0,0-2-.14Z" transform="translate(-141.13 -321.42)"/><path class="cls-1" d="M191.68,350.8H194a13.59,13.59,0,0,1,2.66.17,2.9,2.9,0,0,1,1.61,1,2.83,2.83,0,0,1,.62,1.89,2.94,2.94,0,0,1-.6,1.9,3.05,3.05,0,0,1-1.68,1,15.35,15.35,0,0,1-2.93.19h-.82v5.34h-1.14Zm1.14,1.12v3.9l2,0a5.17,5.17,0,0,0,1.73-.22,1.71,1.71,0,0,0,.85-.69,1.92,1.92,0,0,0,.32-1.07,1.89,1.89,0,0,0-.32-1.06,1.65,1.65,0,0,0-.82-.68,4.81,4.81,0,0,0-1.68-.21Z" transform="translate(-141.13 -321.42)"/><path class="cls-1" d="M201.16,350.8h6.59v1.12h-5.44v3.61h5.39v1.12h-5.39v4.52h5.39v1.12h-6.54Z" transform="translate(-141.13 -321.42)"/><path class="cls-1" d="M209.21,362.29l1.64-11.49H211l4.67,9.43,4.63-9.43h.18l1.66,11.49h-1.13l-1.14-8.22-4.06,8.22h-.29L211.44,354l-1.12,8.28Z" transform="translate(-141.13 -321.42)"/><path class="cls-1" d="M224.44,350.8H231v1.12h-5.44v3.61H231v1.12h-5.39v4.52H231v1.12h-6.54Z" transform="translate(-141.13 -321.42)"/><path class="cls-1" d="M233,350.8h1.14v4.82H240V350.8h1.14v11.49H240v-5.55h-5.86v5.55H233Z" transform="translate(-141.13 -321.42)"/><path class="cls-1" d="M243.93,350.8h1.14v4.82h5.86V350.8h1.14v11.49h-1.14v-5.55h-5.86v5.55h-1.14Z" transform="translate(-141.13 -321.42)"/><path class="cls-1" d="M260.34,350.51a6,6,0,0,1,4.37,1.74,6.11,6.11,0,0,1,0,8.57,6.15,6.15,0,0,1-8.6,0,5.77,5.77,0,0,1-1.76-4.23,6.14,6.14,0,0,1,.8-3.07,5.84,5.84,0,0,1,2.19-2.22A5.9,5.9,0,0,1,260.34,350.51Zm.05,1.12a4.91,4.91,0,0,0-4.2,2.45,5,5,0,0,0-.64,2.51,4.83,4.83,0,0,0,4.84,4.87,4.84,4.84,0,0,0,2.48-.65,4.66,4.66,0,0,0,1.78-1.77,5,5,0,0,0,.63-2.5,4.94,4.94,0,0,0-.63-2.48,5,5,0,0,0-4.26-2.43Z" transform="translate(-141.13 -321.42)"/><path class="cls-1" d="M268.25,362.29l1.65-11.49h.19l4.67,9.43,4.62-9.43h.19l1.65,11.49H280.1L279,354.07l-4.06,8.22h-.3L270.49,354l-1.13,8.28Z" transform="translate(-141.13 -321.42)"/><path class="cls-1" d="M291.82,362.29l1.64-11.49h.19l4.67,9.43L303,350.8h.18l1.65,11.49h-1.12l-1.14-8.22-4.06,8.22h-.29L294.05,354l-1.12,8.28Z" transform="translate(-141.13 -321.42)"/><path class="cls-1" d="M316.08,362.29h-1.19v-8.81l-7.58,8.81h-.26V350.8h1.15v9l7.62-9h.26Z" transform="translate(-141.13 -321.42)"/><path class="cls-1" d="M318.87,350.8h2.29a13.67,13.67,0,0,1,2.66.17,2.88,2.88,0,0,1,1.6,1,2.84,2.84,0,0,1,.63,1.89,2.89,2.89,0,0,1-.61,1.9,3.05,3.05,0,0,1-1.68,1,15.15,15.15,0,0,1-2.92.19H320v5.34h-1.15Zm1.15,1.12v3.9l1.94,0a5.13,5.13,0,0,0,1.73-.22,1.77,1.77,0,0,0,.86-.69,1.91,1.91,0,0,0,.31-1.07,1.88,1.88,0,0,0-.31-1.06,1.69,1.69,0,0,0-.82-.68,4.85,4.85,0,0,0-1.68-.21Z" transform="translate(-141.13 -321.42)"/><path class="cls-1" d="M328.35,350.8h6.59v1.12H329.5v3.61h5.39v1.12H329.5v4.52h5.39v1.12h-6.54Z" transform="translate(-141.13 -321.42)"/></svg>