<svg id="Слой_1" data-name="Слой 1" xmlns="http://www.w3.org/2000/svg" viewBox="0 0 2183.05 1765.5"><defs><style>.cls-1{fill:#213449;}</style></defs><rect class="cls-1" x="1302.28" y="670.63" width="7.47" height="71.62" transform="translate(1686.65 -912.38) rotate(90)"/><path class="cls-1" d="M1302,668.92V771.63h8V668.9Q1305.87,668.78,1302,668.92Z" transform="translate(-325.8 -312.81)"/><rect class="cls-1" x="1525.74" y="670.63" width="7.47" height="71.62" transform="translate(1910.11 -1135.85) rotate(90)"/><path class="cls-1" d="M1525.46,668.92V771.63h8V668.9C1530.71,668.82,1528,668.83,1525.46,668.92Z" transform="translate(-325.8 -312.81)"/><rect class="cls-1" x="783.11" y="518.12" width="55.94" height="42.45"/><rect class="cls-1" x="1344.46" y="518.12" width="55.94" height="42.45"/><rect class="cls-1" x="746.26" y="490.49" width="690.98" height="13.82"/><polygon class="cls-1" points="1820.81 589.69 1787.7 596.6 1787.7 568.47 1820.81 568.47 1820.81 589.69"/><rect class="cls-1" x="1780.66" y="549.22" width="47.2" height="9.87"/><polygon class="cls-1" points="362.16 589.81 395.27 596.72 395.27 568.59 362.16 568.59 362.16 589.81"/><rect class="cls-1" x="680.92" y="862.15" width="47.2" height="9.87" transform="translate(1083.23 1421.36) rotate(-180)"/><polygon class="cls-1" points="5.28 1273.34 252 1273.34 252 1273.39 329.9 1273.39 329.9 1227.46 5.28 1227.46 5.28 1273.34"/><polygon class="cls-1" points="477.32 1217.22 477.32 1227.46 386.88 1227.46 386.88 1273.39 498.7 1273.39 498.7 1217.22 477.32 1217.22"/><polygon class="cls-1" points="1853.42 1227.46 1853.42 1273.34 1931.09 1273.34 1931.09 1273.39 2177.79 1273.39 2177.79 1227.46 1853.42 1227.46"/><polygon class="cls-1" points="1705.97 1217.27 1684.37 1217.27 1684.37 1273.34 1796.45 1273.34 1796.45 1227.46 1705.97 1227.46 1705.97 1217.27"/><polygon class="cls-1" points="337.8 1191.73 337.8 1204.67 337.8 1217.2 337.8 1273.39 378.98 1273.39 378.98 1217.21 378.98 1217.19 378.98 1204.67 378.98 1191.73 337.8 1191.73"/><polygon class="cls-1" points="1845.4 1227.46 1845.4 1217.22 1845.53 1217.22 1845.53 1192.16 1804.35 1192.16 1804.35 1217.22 1804.35 1227.46 1804.35 1273.34 1845.53 1273.34 1845.53 1227.46 1845.4 1227.46"/><polygon class="cls-1" points="1091.31 1291.93 1091.31 1291.99 1413.1 1291.99 1413.1 1235.22 769.5 1235.22 769.5 1291.93 1091.31 1291.93"/><path class="cls-1" d="M1702.87,733.25a31.32,31.32,0,0,0-13.9,1.18h0s-38,8-40.57-28.1v-8.17h0V647.65h-231l0,.2v-.2h-231v58.73c-2.55,36-40.57,28-40.57,28h0a31.36,31.36,0,0,0-13.91-1.18c-26.88,3-23.17,35.09-23.17,35.09v21.13H1726V768.34S1729.75,736.29,1702.87,733.25Zm-361.06,38.33H1270.2v-97.1s34-12.45,71.61,0Zm111.75-83.35v92.65h-72.11V688.23s-1-30.64,35.42-32.07v-.06c.22,0,.42,0,.63,0s.42,0,.64,0v.06C1454.52,657.59,1453.56,688.23,1453.56,688.23Zm111.72,83.35h-71.61v-97.1s33.95-12.45,71.61,0Z" transform="translate(-325.8 -312.81)"/><rect class="cls-1" x="852.87" y="518.12" width="477.77" height="42.45"/><path class="cls-1" d="M1417.38,531h0c-112.74,2.35-170.12,41.35-196.73,68.9h393.47C1587.5,572.39,1530.12,533.39,1417.38,531Z" transform="translate(-325.8 -312.81)"/><path class="cls-1" d="M1670.25,1443.93v-42.45h55.94v-13.82h-55.94V887.2h-505.4v500.46h-55.94v13.82h55.94v42.45h-70V1548h.46v-10.24h643.6v-93.86ZM1487.76,962.71s32.27-16.13,68.06,0v125.84h-68.06Zm-207.29,0s32.26-16.13,68,0v125.84h-68Zm68.09,446.45h-68V1283.33s32.26-16.14,68,0Zm4.75-152.35c-43-17-77.47,0-77.47,0l-4.07-7.58c42.7-18.35,85.39,0,85.39,0Zm202.51,152.35h-68.06V1283.33s32.27-16.14,68.06,0Zm4.85-152.35c-43-17-77.47,0-77.47,0l-4.07-7.58c42.7-18.35,85.39,0,85.39,0Z" transform="translate(-325.8 -312.81)"/><rect class="cls-1" x="1756.84" y="706.69" width="348.46" height="30.96"/><rect class="cls-1" x="77.75" y="706.69" width="348.46" height="30.96"/><rect class="cls-1" x="1310.8" y="1289.75" width="7.63" height="68.21" transform="translate(2312.68 -303.56) rotate(90)"/><path class="cls-1" d="M1310.72,1276.13v133.11h7.63V1276.09C1315.71,1276,1313.16,1276,1310.72,1276.13Z" transform="translate(-325.8 -312.81)"/><rect class="cls-1" x="1518.06" y="1289.78" width="7.63" height="68.15" transform="translate(2519.94 -510.82) rotate(90)"/><path class="cls-1" d="M1518,1276.24v133h7.63v-133C1523,1276.1,1520.46,1276.12,1518,1276.24Z" transform="translate(-325.8 -312.81)"/><rect class="cls-1" x="1310.85" y="968.88" width="7.64" height="68.32" transform="translate(1991.91 -624.43) rotate(90)"/><path class="cls-1" d="M1310.72,955.45v133.1h7.63V955.42C1315.71,955.31,1313.16,955.33,1310.72,955.45Z" transform="translate(-325.8 -312.81)"/><rect class="cls-1" x="1517.97" y="968.98" width="7.64" height="68.32" transform="translate(2199.13 -831.46) rotate(90)"/><path class="cls-1" d="M1517.84,955.55v133.09h7.63V955.51C1522.84,955.41,1520.29,955.42,1517.84,955.55Z" transform="translate(-325.8 -312.81)"/><path class="cls-1" d="M2147,1071.93V1155h7.42v-83.12C2151.85,1071.84,2149.37,1071.86,2147,1071.93Z" transform="translate(-325.8 -312.81)"/><path class="cls-1" d="M2183.15,1102.68H2118.3v7.42h64.87C2183.22,1107.54,2183.21,1105.06,2183.15,1102.68Z" transform="translate(-325.8 -312.81)"/><path class="cls-1" d="M2252.73,1071.93V1155h7.42v-83.12C2257.59,1071.84,2255.11,1071.86,2252.73,1071.93Z" transform="translate(-325.8 -312.81)"/><path class="cls-1" d="M2288.89,1102.68H2224v7.42h64.86C2289,1107.54,2289,1105.06,2288.89,1102.68Z" transform="translate(-325.8 -312.81)"/><path class="cls-1" d="M1811.76,1123v83.1h7.42V1123C1816.62,1122.91,1814.14,1122.92,1811.76,1123Z" transform="translate(-325.8 -312.81)"/><path class="cls-1" d="M1847.91,1153.75h-64.84v7.42h64.86C1848,1158.61,1848,1156.13,1847.91,1153.75Z" transform="translate(-325.8 -312.81)"/><path class="cls-1" d="M1941.07,1123v83.1h7.42V1123C1945.93,1122.91,1943.45,1122.92,1941.07,1123Z" transform="translate(-325.8 -312.81)"/><path class="cls-1" d="M1977.23,1153.75h-64.85v7.42h64.86C1977.3,1158.61,1977.29,1156.13,1977.23,1153.75Z" transform="translate(-325.8 -312.81)"/><path class="cls-1" d="M467.91,1071.93V1155h7.41v-83.12C472.76,1071.84,470.28,1071.86,467.91,1071.93Z" transform="translate(-325.8 -312.81)"/><path class="cls-1" d="M504.06,1102.68H439.21v7.42h64.87C504.13,1107.54,504.12,1105.06,504.06,1102.68Z" transform="translate(-325.8 -312.81)"/><path class="cls-1" d="M574,1071.93V1155h7.41v-83.12C578.85,1071.84,576.37,1071.86,574,1071.93Z" transform="translate(-325.8 -312.81)"/><path class="cls-1" d="M610.15,1102.68H545.3v7.42h64.87C610.22,1107.54,610.21,1105.06,610.15,1102.68Z" transform="translate(-325.8 -312.81)"/><path class="cls-1" d="M680.26,1071.93V1155h7.41v-83.12C685.11,1071.84,682.63,1071.86,680.26,1071.93Z" transform="translate(-325.8 -312.81)"/><path class="cls-1" d="M716.41,1102.68H651.56v7.42h64.87C716.48,1107.54,716.47,1105.06,716.41,1102.68Z" transform="translate(-325.8 -312.81)"/><path class="cls-1" d="M467.78,1205.19v83.11h7.41v-83.13C472.63,1205.11,470.15,1205.12,467.78,1205.19Z" transform="translate(-325.8 -312.81)"/><path class="cls-1" d="M503.93,1235.94H439.08v7.42H504C504,1240.8,504,1238.32,503.93,1235.94Z" transform="translate(-325.8 -312.81)"/><path class="cls-1" d="M573.87,1205.19v83.11h7.42v-83.13C578.72,1205.11,576.24,1205.12,573.87,1205.19Z" transform="translate(-325.8 -312.81)"/><path class="cls-1" d="M610,1235.94H545.17v7.42H610C610.09,1240.8,610.08,1238.32,610,1235.94Z" transform="translate(-325.8 -312.81)"/><path class="cls-1" d="M680.13,1205.19v83.11h7.41v-83.13C685,1205.11,682.5,1205.12,680.13,1205.19Z" transform="translate(-325.8 -312.81)"/><path class="cls-1" d="M716.28,1235.94H651.43v7.42H716.3C716.35,1240.8,716.34,1238.32,716.28,1235.94Z" transform="translate(-325.8 -312.81)"/><path class="cls-1" d="M467.85,1360v83.1h7.42V1360C472.71,1359.89,470.23,1359.9,467.85,1360Z" transform="translate(-325.8 -312.81)"/><path class="cls-1" d="M504,1390.72H439.16v7.42H504C504.07,1395.58,504.06,1393.1,504,1390.72Z" transform="translate(-325.8 -312.81)"/><path class="cls-1" d="M573.94,1360v83.1h7.42V1360C578.8,1359.89,576.32,1359.9,573.94,1360Z" transform="translate(-325.8 -312.81)"/><path class="cls-1" d="M610.1,1390.72H545.25v7.42h64.86C610.16,1395.58,610.15,1393.1,610.1,1390.72Z" transform="translate(-325.8 -312.81)"/><path class="cls-1" d="M680.2,1360v83.1h7.42V1360C685.06,1359.89,682.58,1359.9,680.2,1360Z" transform="translate(-325.8 -312.81)"/><path class="cls-1" d="M716.35,1390.72H651.51v7.42h64.86C716.42,1395.58,716.41,1393.1,716.35,1390.72Z" transform="translate(-325.8 -312.81)"/><path class="cls-1" d="M1018.38,1123v83.1h7.42V1123C1023.24,1122.91,1020.76,1122.92,1018.38,1123Z" transform="translate(-325.8 -312.81)"/><path class="cls-1" d="M1054.53,1153.75H989.68v7.42h64.87C1054.6,1158.61,1054.59,1156.13,1054.53,1153.75Z" transform="translate(-325.8 -312.81)"/><path class="cls-1" d="M889.07,1123v83.1h7.41V1123C893.92,1122.93,891.44,1122.94,889.07,1123Z" transform="translate(-325.8 -312.81)"/><path class="cls-1" d="M925.22,1153.77H860.37v7.42h64.87C925.29,1158.63,925.28,1156.15,925.22,1153.77Z" transform="translate(-325.8 -312.81)"/><path class="cls-1" d="M889.07,1255.23v83.1h7.41v-83.12C893.92,1255.14,891.44,1255.15,889.07,1255.23Z" transform="translate(-325.8 -312.81)"/><path class="cls-1" d="M925.22,1286H860.37v7.42h64.87C925.29,1290.83,925.28,1288.35,925.22,1286Z" transform="translate(-325.8 -312.81)"/><path class="cls-1" d="M1018.38,1255.23v83.1h7.42v-83.12C1023.24,1255.14,1020.76,1255.15,1018.38,1255.23Z" transform="translate(-325.8 -312.81)"/><path class="cls-1" d="M1054.53,1286H989.68v7.42h64.87C1054.6,1290.83,1054.59,1288.35,1054.53,1286Z" transform="translate(-325.8 -312.81)"/><path class="cls-1" d="M889.07,1387.44v83.1h7.41v-83.13C893.92,1387.35,891.44,1387.36,889.07,1387.44Z" transform="translate(-325.8 -312.81)"/><path class="cls-1" d="M925.22,1418.19H860.37v7.41h64.87C925.29,1423,925.28,1420.56,925.22,1418.19Z" transform="translate(-325.8 -312.81)"/><path class="cls-1" d="M1018.38,1387.44v83.1h7.42v-83.13C1023.24,1387.35,1020.76,1387.36,1018.38,1387.44Z" transform="translate(-325.8 -312.81)"/><path class="cls-1" d="M1054.53,1418.19H989.68v7.41h64.87C1054.6,1423,1054.59,1420.56,1054.53,1418.19Z" transform="translate(-325.8 -312.81)"/><path class="cls-1" d="M1811.76,1255.23v83.1h7.42v-83.12C1816.62,1255.14,1814.14,1255.15,1811.76,1255.23Z" transform="translate(-325.8 -312.81)"/><path class="cls-1" d="M1847.91,1286h-64.84v7.42h64.86C1848,1290.83,1848,1288.35,1847.91,1286Z" transform="translate(-325.8 -312.81)"/><path class="cls-1" d="M1941.07,1255.23v83.1h7.42v-83.12C1945.93,1255.14,1943.45,1255.15,1941.07,1255.23Z" transform="translate(-325.8 -312.81)"/><path class="cls-1" d="M1977.23,1286h-64.85v7.42h64.86C1977.3,1290.83,1977.29,1288.35,1977.23,1286Z" transform="translate(-325.8 -312.81)"/><path class="cls-1" d="M1941.07,1387.46v83.1h7.42v-83.13C1945.93,1387.37,1943.45,1387.38,1941.07,1387.46Z" transform="translate(-325.8 -312.81)"/><path class="cls-1" d="M1977.23,1418.2h-64.85v7.42h64.86C1977.3,1423.06,1977.29,1420.58,1977.23,1418.2Z" transform="translate(-325.8 -312.81)"/><path class="cls-1" d="M2359.34,1071.93V1155h7.42v-83.12C2364.2,1071.84,2361.72,1071.86,2359.34,1071.93Z" transform="translate(-325.8 -312.81)"/><path class="cls-1" d="M2395.5,1102.68h-64.85v7.42h64.87C2395.57,1107.54,2395.56,1105.06,2395.5,1102.68Z" transform="translate(-325.8 -312.81)"/><path class="cls-1" d="M2146.94,1205.16v83.11h7.42v-83.13C2151.8,1205.08,2149.32,1205.09,2146.94,1205.16Z" transform="translate(-325.8 -312.81)"/><path class="cls-1" d="M2183.09,1235.91h-64.85v7.42h64.87C2183.16,1240.77,2183.15,1238.29,2183.09,1235.91Z" transform="translate(-325.8 -312.81)"/><path class="cls-1" d="M2252.68,1205.16v83.11h7.42v-83.13Q2256.25,1205,2252.68,1205.16Z" transform="translate(-325.8 -312.81)"/><path class="cls-1" d="M2288.83,1235.91H2224v7.42h64.87C2288.9,1240.77,2288.89,1238.29,2288.83,1235.91Z" transform="translate(-325.8 -312.81)"/><path class="cls-1" d="M2359.29,1205.16v83.11h7.42v-83.13C2364.15,1205.08,2361.67,1205.09,2359.29,1205.16Z" transform="translate(-325.8 -312.81)"/><path class="cls-1" d="M2395.44,1235.91h-64.85v7.42h64.87C2395.51,1240.77,2395.5,1238.29,2395.44,1235.91Z" transform="translate(-325.8 -312.81)"/><path class="cls-1" d="M2146.46,1360v83.1h7.42v-83.13Q2150,1359.85,2146.46,1360Z" transform="translate(-325.8 -312.81)"/><path class="cls-1" d="M2182.61,1390.71h-64.85v7.42h64.87C2182.68,1395.57,2182.67,1393.09,2182.61,1390.71Z" transform="translate(-325.8 -312.81)"/><path class="cls-1" d="M2358.81,1360v83.1h7.42v-83.13Q2362.38,1359.85,2358.81,1360Z" transform="translate(-325.8 -312.81)"/><path class="cls-1" d="M2395,1390.71h-64.85v7.42H2395C2395,1395.57,2395,1393.09,2395,1390.71Z" transform="translate(-325.8 -312.81)"/><rect class="cls-1" x="1705.73" y="706.69" width="41.03" height="30.96"/><rect class="cls-1" x="2115.38" y="706.69" width="40.8" height="30.96"/><rect class="cls-1" x="1679.09" y="686.53" width="503.96" height="10.08"/><rect class="cls-1" x="26.88" y="706.69" width="40.8" height="30.96"/><rect class="cls-1" x="436.53" y="706.69" width="40.8" height="30.96"/><rect class="cls-1" y="686.53" width="503.96" height="10.08"/><polygon class="cls-1" points="2155.41 625.44 1930.69 572.79 1705.97 625.44 1930.69 625.44 2155.41 625.44"/><polygon class="cls-1" points="27.56 625.56 252.28 572.91 477 625.56 252.28 625.56 27.56 625.56"/><polygon class="cls-1" points="1330.64 320.7 1330.64 300.96 1091.75 300.96 852.87 300.96 852.87 320.7 1091.75 320.7 1330.64 320.7"/><path class="cls-1" d="M1417.39,517.39c136.34,1.11,195.48,55.72,216.33,82.55h21.74s-49.4-98.59-237.91-98.71h-.31c-188.51.12-237.91,98.71-237.91,98.71h21.74C1221.92,573.11,1281.05,518.5,1417.39,517.39Z" transform="translate(-325.8 -312.81)"/><polygon class="cls-1" points="783.11 676.19 503.88 676.19 477 635.64 477 625.56 783.11 625.56 783.11 676.19"/><polygon class="cls-1" points="1400.49 676.06 1679.26 676.06 1705.97 635.52 1705.97 625.44 1400.44 625.35 1400.49 676.06"/><path class="cls-1" d="M802.8,948.45H352.7L325.82,989H829.68Zm-217.46,31.6H570.2V957.39h15.14Z" transform="translate(-325.8 -312.81)"/><path class="cls-1" d="M2481.87,948.32h-450.1l-26.88,40.55h503.85Zm-217.3,31.73h-15.14V957.39h15.14Z" transform="translate(-325.8 -312.81)"/><path class="cls-1" d="M829.76,999.34v10.08H803.12v31.09h305.79V999.34Zm15.16,32.73H829.78v-22.66h15.14Zm34.88,0H864.66v-22.66H879.8Zm34.87,0H899.54v-22.66h15.13Zm34.88,0H934.42v-22.66h15.13Zm33.89,0H968.31v-22.66h15.13Zm34.88,0h-15.13v-22.66h15.13Zm34.88,0h-15.14v-22.66h15.14Zm34.88,0h-15.14v-22.66h15.14Z" transform="translate(-325.8 -312.81)"/><path class="cls-1" d="M2004.89,1009.42v22.65h-15.14v-22.66h15.13V999.34H1726.19l0,41.17h305.32v-31.09Zm-243.16,22.65h-15.14v-22.66h15.14Zm34.88,0h-15.14v-22.66h15.14Zm34.87,0h-15.13v-22.66h15.13Zm34.88,0h-15.13v-22.66h15.13Zm33.89,0h-15.13v-22.66h15.13Zm34.88,0H1920v-22.66h15.13Zm34.88,0h-15.14v-22.66H1970Z" transform="translate(-325.8 -312.81)"/><path class="cls-1" d="M803.12,1435.63v-10.08h-41v-365H393.47v365H352.68v10.08h40.79v31H352.68V1530H342.44v.06H589.63v0H655.7v-33.37h57V1530h90.45v-63.44h-41v-31Zm-299,7.44h-64.9V1359.9h64.9Zm0-154.77h-64.9v-83.17h64.9Zm0-133.27h-64.9v-83.16h64.9Zm106.11,288h-64.9v-83.17h64.9Zm0-154.82h-64.9V1205.1h64.9Zm0-133.23h-64.9v-83.16h64.9Zm106.24,288h-64.9V1359.9h64.9Zm0-154.77h-64.9v-83.17h64.9Zm0-133.27h-64.9v-83.16h64.9Z" transform="translate(-325.8 -312.81)"/><rect class="cls-1" x="112.84" y="1290.13" width="469.44" height="10.24" transform="translate(1317.01 634.89) rotate(90)"/><rect class="cls-1" x="2252.27" y="1290.24" width="469.65" height="10.24" transform="translate(3456.65 -1504.54) rotate(90)"/><path class="cls-1" d="M2072.56,1530h49.69v-33h57v33h262v-94.4H2482v-10.08h-40.79v-365H2072.56v365h-40.93v10.08h40.93Zm258.09-458.16h64.9V1155h-64.9Zm0,133.26h64.9v83.17h-64.9Zm0,154.77h64.9v83.17h-64.9Zm-106.24-288h64.9V1155h-64.9Zm0,133.23h64.9v83.16h-64.9ZM2118.3,1071.87h64.9V1155h-64.9Zm0,133.26h64.9v83.17h-64.9Zm0,154.77h64.9v83.17h-64.9Z" transform="translate(-325.8 -312.81)"/><path class="cls-1" d="M1095.3,1537.79h13.53l0-33.48H803.51v-10.08h305.35l.05-382.53H803.12v-10H1108.9l0-31H803.12v-10.23h305.79v-10.08H803.12v505.78H1095.3ZM989.68,1122.94h64.9v83.16h-64.9Zm0,132.22h64.9v83.17h-64.9Zm0,132.21h64.9v83.17h-64.9ZM860.37,1122.94h64.9v83.16h-64.9Zm0,132.22h64.9v83.17h-64.9Zm0,132.21h64.9v83.17h-64.9Z" transform="translate(-325.8 -312.81)"/><path class="cls-1" d="M2031.54,1040.51v10H1726.23v10.08h305.31v9.94H1726.23v30.87h305.31v10H1726.23v426.49h12.67v48.41h31.88v0h121v-30.11h140Zm-174.06,531.78h-84.21l.76-5.92h82.71Zm-1.24-9.87h-81.69l.8-6.17h80.12Zm-73.17-439.48H1848v83.16h-64.9Zm0,132.22H1848v83.17h-64.9Zm0,132.21H1848v103.94h-7.9v-96H1791v96h-7.89Zm0,109.16H1848l.77,6.17h-66.47Zm-1.31,10.12h67.48l.74,5.92h-69Zm-1.28,9.87h70l.77,6.17h-71.57Zm-1.31,10.12h72.58l.74,5.92h-74.09Zm-1.28,9.87H1853l.75,5.92h-76.6Zm-1.28,9.87h77.61l.74,5.92h-79.11Zm-5.84,9.7Zm1.19,26.2.79-6H1858l.76,6Zm205.31-111.74h-64.9v-83.17h64.9Zm0-132.21h-64.9v-83.17h64.9Zm0-132.23h-64.9v-83.16h64.9Z" transform="translate(-325.8 -312.81)"/><path class="cls-1" d="M1417.33,2065.88c-306.13,0-575.43-160.54-728.24-401.83H673.8a880.55,880.55,0,0,0,125.64,158.32c165,165,384.48,255.93,617.89,255.93s452.84-90.89,617.88-255.93a880.55,880.55,0,0,0,125.64-158.32h-15.29C1992.75,1905.34,1723.45,2065.88,1417.33,2065.88Z" transform="translate(-325.8 -312.81)"/><path class="cls-1" d="M1417.33,1949.52c-233.74,0-441.75-112.16-573.12-285.47H829a741.83,741.83,0,0,0,71.73,83.22c138,138,321.43,214,516.57,214s378.58-76,516.56-214a741.83,741.83,0,0,0,71.73-83.22h-15.18C1859.07,1837.36,1651.06,1949.52,1417.33,1949.52Z" transform="translate(-325.8 -312.81)"/><path class="cls-1" d="M2037.89,568.74c-165-165-384.48-255.93-617.89-255.93S967.16,403.7,802.12,568.74A875.2,875.2,0,0,0,636.3,799.25h14.48c142.05-280.93,433.49-474,769.22-474s627.18,193.09,769.23,474h14.48A875.2,875.2,0,0,0,2037.89,568.74Z" transform="translate(-325.8 -312.81)"/><path class="cls-1" d="M1448.5,448.61c252,10.58,471.59,148.36,596.23,350.64h14.51a753.48,753.48,0,0,0-112.69-144.08c-141.38-141.38-329.36-219.25-529.31-219.25s-387.93,77.87-529.31,219.25A753.09,753.09,0,0,0,775.24,799.25h14.5c123.72-200.78,341-338,590.63-350.4" transform="translate(-325.8 -312.81)"/><path class="cls-1" d="M1414.16,484.86" transform="translate(-325.8 -312.81)"/><path class="cls-1" d="M748,695.56a2.43,2.43,0,0,0-1.85-.5,19.61,19.61,0,0,0-2.35.37,19.77,19.77,0,0,1-2.34.37,2.5,2.5,0,0,1-1.91-.54c-.25-.2-.29-.69-.11-1.46a15.52,15.52,0,0,1,.89-2.57,30.65,30.65,0,0,1,1.44-2.86,17.17,17.17,0,0,1,1.61-2.42L757.06,669a2.7,2.7,0,0,0,.54-1.33,3,3,0,0,1,.68-1.49c.29-.36.92-.41,1.9-.15a19.47,19.47,0,0,1,3.13,1.17,33.23,33.23,0,0,1,3.19,1.7,24.47,24.47,0,0,1,2.16,1.44,3.19,3.19,0,0,1,.83,1c.16.31.07.67-.28,1.1a2.71,2.71,0,0,1-1.88.74c-.94.09-1.93.16-3,.18s-2.08.09-3.07.18a3.86,3.86,0,0,0-2,.57c-.84.74-1.65,1.51-2.44,2.29s-1.58,1.64-2.4,2.58-1.69,2-2.62,3.11l-3.12,3.85,14.66,11.9c.66-1.18,1.35-2.36,2.08-3.55a36,36,0,0,1,2.74-3.81A26.69,26.69,0,0,1,774,685a17.8,17.8,0,0,1,6.14-2.7,13.55,13.55,0,0,1,6,.07,13.76,13.76,0,0,1,5.51,2.78,18.72,18.72,0,0,1,4.54,5.34,15,15,0,0,1,1.92,6.54,18.47,18.47,0,0,1-1.21,7.46,29.14,29.14,0,0,1-4.87,8.19c-.59.71-1.15,1.39-1.71,2s-1.15,1.3-1.78,2-1.32,1.39-2.06,2.16-1.6,1.6-2.58,2.52q-1.92,1.83-3.21.78ZM787.56,693q-4.86-3.94-8.74-3.77c-2.58.12-5,1.58-7.26,4.36-.87,1.07-1.71,2.18-2.52,3.32s-1.63,2.33-2.45,3.56L784,714.64c.92-.85,1.78-1.68,2.56-2.49s1.63-1.8,2.56-2.94a13.27,13.27,0,0,0,2.4-4.26,10.39,10.39,0,0,0,.48-4.32,10.15,10.15,0,0,0-1.35-4.07A13.08,13.08,0,0,0,787.56,693Z" transform="translate(-325.8 -312.81)"/><path class="cls-1" d="M795.21,666.08l15.42,14c1,.93,1.75,1.15,2.18.68q3.75-4.14,7-8a71.9,71.9,0,0,0,5.32-6.9,2,2,0,0,0,.26-1.67q-.2-1.07-.45-2.22c-.17-.77-.29-1.5-.38-2.2a2,2,0,0,1,.43-1.66,1.79,1.79,0,0,1,1.55-.32,13.83,13.83,0,0,1,2.52.61,20.47,20.47,0,0,1,2.69,1.14,9.66,9.66,0,0,1,2.06,1.36,2.27,2.27,0,0,1,.87,1.67,3.81,3.81,0,0,1-1.21,2.2l-21.18,23.37a4.61,4.61,0,0,1-1.9,1.42,1.74,1.74,0,0,1-1.69-.55l-31.5-28.55a2.55,2.55,0,0,0-1.88-.65,20.86,20.86,0,0,0-2.36.25q-1.25.2-2.34.27a2.38,2.38,0,0,1-1.8-.58c-.3-.28-.37-.8-.2-1.58a13.65,13.65,0,0,1,.9-2.53,25.5,25.5,0,0,1,1.53-2.76,16.86,16.86,0,0,1,1.67-2.25l15.92-17.56a2.15,2.15,0,0,0,.34-1.46,2.5,2.5,0,0,1,.67-1.81q.47-.51,2,0a23.24,23.24,0,0,1,3.22,1.43,36.61,36.61,0,0,1,3.29,2,19.46,19.46,0,0,1,2.12,1.55,4,4,0,0,1,1,1.29,1.11,1.11,0,0,1-.31,1.21,1.69,1.69,0,0,1-.93.46,10.63,10.63,0,0,1-1.84.24c-.79.06-1.79.1-3,.12l-4.49.13a70.1,70.1,0,0,0-5.76,5.28q-3,3-6.75,7.18l13.84,12.55,9.07-10a1.53,1.53,0,0,0,.38-1.15,7.4,7.4,0,0,0-.24-1.42,8.34,8.34,0,0,1-.25-1.39,1.31,1.31,0,0,1,.3-1.08c.31-.34,1-.35,2,0a20.46,20.46,0,0,1,3.26,1.32q1.73.87,3.21,1.8a15.75,15.75,0,0,1,1.84,1.25.87.87,0,0,1,0,1.41,1.23,1.23,0,0,1-.47.32,6,6,0,0,1-1,.24c-.48.09-1.14.2-2,.32s-1.9.3-3.22.52Z" transform="translate(-325.8 -312.81)"/><path class="cls-1" d="M819.32,615.9a2.84,2.84,0,0,0-1.94-.86,16.85,16.85,0,0,0-2.44.07,15.38,15.38,0,0,1-2.43.07,2.74,2.74,0,0,1-1.89-.8c-.2-.2-.18-.63,0-1.29a15.69,15.69,0,0,1,1-2.31,30.51,30.51,0,0,1,1.64-2.66,15.92,15.92,0,0,1,1.93-2.31l17.51-17.09a1.76,1.76,0,0,1,.89-.47.77.77,0,0,1,.72.15l31.09,31.87a2.58,2.58,0,0,0,1.89.75,19.42,19.42,0,0,0,2.39-.12c.82-.08,1.58-.16,2.3-.21a1.88,1.88,0,0,1,1.6.46c.19.19.15.66-.14,1.38a17.4,17.4,0,0,1-1.25,2.47c-.55.92-1.15,1.83-1.81,2.73a18.32,18.32,0,0,1-1.88,2.22,6.06,6.06,0,0,1-2.06,1.44,1.65,1.65,0,0,1-1.8-.56L831,596.26l-11,10.78a152.92,152.92,0,0,1,15.92,18.64,70.06,70.06,0,0,1,8,14.1q2.31,6,1.8,9.94a10,10,0,0,1-2.73,6.13,8,8,0,0,1-2.9,1.87,9.51,9.51,0,0,1-3,.6,8.68,8.68,0,0,1-2.53-.28,3.43,3.43,0,0,1-1.55-.75c-.12-.13-.06-.41.21-.82a12.76,12.76,0,0,1,1.19-1.55c.52-.61,1.13-1.27,1.82-2s1.4-1.41,2.13-2.11q1.38-1.35,1.07-4.42a22.87,22.87,0,0,0-2.56-7.61,70.46,70.46,0,0,0-6.57-10.34A125.21,125.21,0,0,0,819.32,615.9Z" transform="translate(-325.8 -312.81)"/><path class="cls-1" d="M898.31,568a30.69,30.69,0,0,1,5.73,9.7,26.27,26.27,0,0,1,1.54,10.05,24.08,24.08,0,0,1-2.48,9.48,26.46,26.46,0,0,1-15.84,13.22,23.92,23.92,0,0,1-10,.64,26.68,26.68,0,0,1-9.48-3.38A32.3,32.3,0,0,1,854,591.11a27.86,27.86,0,0,1-1.67-10.25,24.38,24.38,0,0,1,2.34-9.69,24.13,24.13,0,0,1,25.9-13.64,28.52,28.52,0,0,1,9.61,3.59A31.66,31.66,0,0,1,898.31,568Zm-36.17-.61a10.24,10.24,0,0,0-3.21,5,17.2,17.2,0,0,0-.58,6.55,23.76,23.76,0,0,0,1.87,7.14,25.81,25.81,0,0,0,4.14,6.67,45.54,45.54,0,0,0,7.06,6.7,28.32,28.32,0,0,0,7.94,4.33,17.87,17.87,0,0,0,8.24.85,15.15,15.15,0,0,0,7.88-3.71A10.71,10.71,0,0,0,898.7,596a15.91,15.91,0,0,0,.69-6.37,23.17,23.17,0,0,0-1.77-7,25.43,25.43,0,0,0-4.15-6.69,46.81,46.81,0,0,0-7.11-6.76,29.13,29.13,0,0,0-8.08-4.43,18.71,18.71,0,0,0-8.32-1A14.37,14.37,0,0,0,862.14,567.37Z" transform="translate(-325.8 -312.81)"/><path class="cls-1" d="M895.35,548.49a2.67,2.67,0,0,0-1.68-.9,22.93,22.93,0,0,0-2.52-.34,20.65,20.65,0,0,1-2.53-.34,2.71,2.71,0,0,1-1.72-.95c-.17-.22-.07-.67.29-1.34a15.08,15.08,0,0,1,1.5-2.25c.64-.82,1.34-1.65,2.09-2.48a16.32,16.32,0,0,1,2.13-2c.49-.42,1.07-.94,1.75-1.57l2.17-2c.78-.69,1.57-1.38,2.39-2.05s1.61-1.3,2.38-1.88a34.47,34.47,0,0,1,7-4.13,19.77,19.77,0,0,1,6.56-1.65,12.62,12.62,0,0,1,5.77,1,11.39,11.39,0,0,1,4.61,3.73,16.28,16.28,0,0,1,3.3,7.48,18.06,18.06,0,0,1-.36,7.35,21,21,0,0,1-3,6.48,21.27,21.27,0,0,1-4.59,4.87c-1.32,1-2.54,1.84-3.65,2.53a23.87,23.87,0,0,1-3.44,1.78l8.32,11.06a3.4,3.4,0,0,0,1.95,1.21c.85.22,1.74.4,2.65.55s1.78.3,2.59.46a2.86,2.86,0,0,1,1.76,1c.17.23.06.68-.32,1.36a18.28,18.28,0,0,1-1.53,2.32,29.07,29.07,0,0,1-2.13,2.5,17.29,17.29,0,0,1-2.14,2,5.7,5.7,0,0,1-2.31,1.18,1.7,1.7,0,0,1-1.64-.8Zm7.92-14a33.63,33.63,0,0,0-2.75,2.28c-.85.78-1.62,1.55-2.31,2.3l12.79,17a25.33,25.33,0,0,0,3.62-1.64,29.23,29.23,0,0,0,3.67-2.37,11.73,11.73,0,0,0,2.77-2.94,10.06,10.06,0,0,0,1.49-3.68,9.4,9.4,0,0,0-.19-4.13,12.56,12.56,0,0,0-2.22-4.39,14.31,14.31,0,0,0-4.25-3.94,10.22,10.22,0,0,0-4.41-1.35,10.41,10.41,0,0,0-4.3.68A15.93,15.93,0,0,0,903.27,534.52Z" transform="translate(-325.8 -312.81)"/><path class="cls-1" d="M963.15,540.82l-32-18.69a6.06,6.06,0,0,0-2.18-.53l-3.14-.29c-1.09-.1-2.09-.21-3-.32s-1.46-.32-1.67-.63a1.5,1.5,0,0,1,.06-1.45,9.81,9.81,0,0,1,1.27-2,20.24,20.24,0,0,1,1.9-2.06,15.44,15.44,0,0,1,2-1.64c1.52-1,2.74-1.28,3.63-.77l31.27,18.19-4.86-26.94a4,4,0,0,0-1.16-1c-.54-.36-1.11-.69-1.71-1s-1.15-.62-1.64-.9a3,3,0,0,1-1-.76c-.1-.15,0-.54.46-1.18a22.37,22.37,0,0,1,1.65-2.18,32.21,32.21,0,0,1,2.29-2.45,17.28,17.28,0,0,1,2.41-2,2.58,2.58,0,0,1,2-.57,2.24,2.24,0,0,1,1.42,1l8.8,55.32a7.57,7.57,0,0,1-.11,2.81,11.56,11.56,0,0,1-1,2.6,10.11,10.11,0,0,1-1.47,2.14,8.62,8.62,0,0,1-1.63,1.47,1.87,1.87,0,0,1-1.73.08,10.75,10.75,0,0,1-2.18-1.15,14.93,14.93,0,0,1-2.13-1.77,12.29,12.29,0,0,1-1.54-1.79,1.12,1.12,0,0,1-.24-.79,1.51,1.51,0,0,1,.7-.76,3.56,3.56,0,0,1,1.83-.6,3.66,3.66,0,0,0,1.83-.61,7.62,7.62,0,0,0,1.33-1.18,1.82,1.82,0,0,0,.52-1.64Z" transform="translate(-325.8 -312.81)"/><path class="cls-1" d="M1019.4,505.42a.91.91,0,0,1,.58-.1.64.64,0,0,1,.52.33,6.33,6.33,0,0,1,.68,3.64,13.34,13.34,0,0,1-1.34,4.89,22.69,22.69,0,0,1-3.5,5.24,23.29,23.29,0,0,1-5.77,4.72,28.72,28.72,0,0,1-9.79,3.77,20.6,20.6,0,0,1-9.36-.44,23.2,23.2,0,0,1-8.55-4.74,35.52,35.52,0,0,1-7.36-9A33.71,33.71,0,0,1,971.28,503a26.06,26.06,0,0,1,0-10.41,24.64,24.64,0,0,1,4.07-9.27,26,26,0,0,1,8.12-7.32,51.71,51.71,0,0,1,5.11-2.67,23.63,23.63,0,0,1,4.41-1.54,10.07,10.07,0,0,1,3.36-.28,2.5,2.5,0,0,1,2,1.13,3.2,3.2,0,0,1,.23,1.74,11.79,11.79,0,0,1-.46,2.52,12.8,12.8,0,0,1-1,2.5,4.2,4.2,0,0,1-1.43,1.65,3.57,3.57,0,0,1-2.53.47,22.51,22.51,0,0,1-2.74-.7,17.48,17.48,0,0,0-2.8-.66,4,4,0,0,0-2.71.57,15.73,15.73,0,0,0-4.53,4.1,15.07,15.07,0,0,0-2.68,5.88,18.69,18.69,0,0,0-.05,7.32,25,25,0,0,0,3.33,8.44,35.54,35.54,0,0,0,6.58,8.31,23.46,23.46,0,0,0,7.3,4.65,16.72,16.72,0,0,0,7.4,1.13,15.74,15.74,0,0,0,6.87-2.2,19.66,19.66,0,0,0,3.82-2.88,22.81,22.81,0,0,0,2.67-3.06,17.62,17.62,0,0,0,1.72-2.91c.42-.91.76-1.72,1-2.42a4,4,0,0,1,.48-1.09A2.2,2.2,0,0,1,1019.4,505.42Z" transform="translate(-325.8 -312.81)"/><path class="cls-1" d="M1061.35,483.5a.86.86,0,0,1,.58-.07.61.61,0,0,1,.5.36,6.27,6.27,0,0,1,.47,3.67,13.35,13.35,0,0,1-1.62,4.81,23.21,23.21,0,0,1-9.84,9.4,28.79,28.79,0,0,1-10,3.2,20.84,20.84,0,0,1-9.33-1,23,23,0,0,1-8.25-5.23,35.42,35.42,0,0,1-6.83-9.42,33.81,33.81,0,0,1-3.6-11,26.06,26.06,0,0,1,.59-10.39,24.69,24.69,0,0,1,4.6-9,26.08,26.08,0,0,1,8.53-6.83,50.79,50.79,0,0,1,5.25-2.37,24.15,24.15,0,0,1,4.5-1.28,9.46,9.46,0,0,1,3.37-.08,2.48,2.48,0,0,1,1.89,1.23,3.2,3.2,0,0,1,.13,1.76,12.19,12.19,0,0,1-.61,2.49,12.69,12.69,0,0,1-1.18,2.43,4.25,4.25,0,0,1-1.52,1.57,3.6,3.6,0,0,1-2.55.31,21,21,0,0,1-2.7-.85,17.65,17.65,0,0,0-2.75-.83,4.07,4.07,0,0,0-2.74.41,15.84,15.84,0,0,0-4.77,3.83,15.09,15.09,0,0,0-3,5.72,18.57,18.57,0,0,0-.48,7.31,24.86,24.86,0,0,0,2.84,8.62,35.24,35.24,0,0,0,6.09,8.68,23.27,23.27,0,0,0,7,5.06,17,17,0,0,0,7.33,1.56,15.88,15.88,0,0,0,7-1.8,20,20,0,0,0,4-2.65,23.31,23.31,0,0,0,2.84-2.9,17.3,17.3,0,0,0,1.89-2.81c.47-.89.86-1.67,1.18-2.36a4.06,4.06,0,0,1,.54-1.05A2,2,0,0,1,1061.35,483.5Z" transform="translate(-325.8 -312.81)"/><path class="cls-1" d="M1055.61,449.63a2.38,2.38,0,0,0-1.43-1.21c-.71-.26-1.48-.51-2.31-.74a19.67,19.67,0,0,1-2.35-.84,3,3,0,0,1-1.58-1.56c-.11-.25.09-.67.61-1.26a22.32,22.32,0,0,1,2-1.9,26.42,26.42,0,0,1,2.65-2,18.77,18.77,0,0,1,2.58-1.45,5.32,5.32,0,0,1,2.49-.62,1.69,1.69,0,0,1,1.38,1.16L1070,462.53l9.08-27.73c-.24-.09-.63-.22-1.18-.37l-1.69-.5c-.58-.17-1.1-.35-1.57-.54a1.53,1.53,0,0,1-.83-.61c-.12-.26.09-.62.6-1.1a15.62,15.62,0,0,1,2.06-1.56q1.29-.84,2.76-1.68A31,31,0,0,1,1082,427a15.31,15.31,0,0,1,4.56-1.39c1.23-.12,1.91,0,2.06.33a1.68,1.68,0,0,1,0,1.3,10.73,10.73,0,0,1-.73,1.49q-.45.76-.93,1.47a6.61,6.61,0,0,0-.68,1.25l-8.91,24.28q6.45,4.68,12.13,8.49c3.79,2.55,7.19,4.67,10.18,6.39a67.17,67.17,0,0,0,7.49,3.8c2,.82,3.37,1.07,4.13.73a4.94,4.94,0,0,1,2.51-.53c.72.08,1.12.22,1.21.43s-.08.95-.68,1.86a8.59,8.59,0,0,1-3.73,2.62,9.7,9.7,0,0,1-6.47.17,39.7,39.7,0,0,1-8.55-3.56,110.42,110.42,0,0,1-10.13-6.27q-5.43-3.74-11.21-7.95l-2.17,5.27,4.56,10.26a3.58,3.58,0,0,0,1.64,1.65,26.86,26.86,0,0,0,2.48,1.16c.86.34,1.66.69,2.42,1a2.71,2.71,0,0,1,1.47,1.27c.11.25-.09.67-.61,1.25a18.85,18.85,0,0,1-2,1.91,29.28,29.28,0,0,1-2.62,2,16.81,16.81,0,0,1-2.52,1.42,5.7,5.7,0,0,1-2.56.65,1.68,1.68,0,0,1-1.41-1.15Z" transform="translate(-325.8 -312.81)"/><path class="cls-1" d="M1107.08,419.06q-.19-.51.57-1.32a13.89,13.89,0,0,1,2-1.68,24.43,24.43,0,0,1,2.82-1.69,27.53,27.53,0,0,1,2.93-1.32,6.16,6.16,0,0,1,3.48-.54,3.43,3.43,0,0,1,1.9,1.16l29.2,36.19a2.71,2.71,0,0,0,1.53.94c.71.19,1.46.39,2.25.58s1.49.41,2.12.64a1.83,1.83,0,0,1,1.18,1,1.68,1.68,0,0,1-.19,1.36,5.55,5.55,0,0,1-1.26,1.54,13.35,13.35,0,0,1-2,1.47,16,16,0,0,1-2.4,1.16,6.68,6.68,0,0,1-2.23.43,2.17,2.17,0,0,1-1.8-.75l-10-12.16c-.85.23-1.84.52-3,.87s-2.23.73-3.26,1.12a28.51,28.51,0,0,0-3.32,1.55,36.63,36.63,0,0,0-3.68,2.27,29.77,29.77,0,0,0-3.41,2.76,19.59,19.59,0,0,0-2.63,3l0,7c.74,0,1.53.05,2.36.1s1.59.14,2.27.25a7.57,7.57,0,0,1,1.76.48,1.49,1.49,0,0,1,.89.69c.11.3,0,.67-.44,1.09a9.14,9.14,0,0,1-1.83,1.39,29,29,0,0,1-3,1.55c-1.15.54-2.41,1.06-3.79,1.58a26.3,26.3,0,0,1-2.62.84,13.33,13.33,0,0,1-2.31.43,5.49,5.49,0,0,1-1.71-.05,1.08,1.08,0,0,1-.86-.6c-.22-.6,0-1.42.77-2.46a19.94,19.94,0,0,1,2.92-3.2l0-42.81a3.07,3.07,0,0,0-1.07-1.37,16.94,16.94,0,0,0-1.68-1.13c-.6-.36-1.15-.72-1.65-1.07A2.66,2.66,0,0,1,1107.08,419.06Zm10.85,34.43a20.83,20.83,0,0,1,1.84-2.83,25.53,25.53,0,0,1,2.46-2.77,22.67,22.67,0,0,1,2.94-2.44,15.63,15.63,0,0,1,3.35-1.77,21.84,21.84,0,0,1,3-.92c.93-.2,1.8-.35,2.59-.46l-16.28-19.93Z" transform="translate(-325.8 -312.81)"/><path class="cls-1" d="M1192.26,434.23a3.55,3.55,0,0,0,1.41,1.76c.74.52,1.52,1,2.35,1.51s1.59,1,2.31,1.41a2.82,2.82,0,0,1,1.32,1.47c.08.26-.17.65-.76,1.17a18.8,18.8,0,0,1-2.22,1.66,28.47,28.47,0,0,1-2.88,1.65,17.86,17.86,0,0,1-2.72,1.13,5.32,5.32,0,0,1-2.53.32,1.7,1.7,0,0,1-1.24-1.32l-7.27-23.5-2.56,1.08a28.72,28.72,0,0,1-2.85,1c-.47,2.21-1,4.62-1.52,7.21s-1.15,5.22-1.83,7.86-1.4,5.19-2.2,7.67a52.37,52.37,0,0,1-2.64,6.74,26.59,26.59,0,0,1-3.12,5.07,7.53,7.53,0,0,1-3.58,2.66,8.72,8.72,0,0,1-4.53.49c-1.06-.29-1.64-.61-1.74-.95s.12-.58.56-1.1a4.84,4.84,0,0,1,2.24-1.26c.71-.22,1.5-1.12,2.37-2.72a44.57,44.57,0,0,0,2.79-6.6q1.47-4.21,3-10t3-12.92a23.69,23.69,0,0,1-5.19,0,14.7,14.7,0,0,1-4.89-1.37,12.67,12.67,0,0,1-4.08-3.15,14.51,14.51,0,0,1-2.81-5.34,13.15,13.15,0,0,1-.47-5.74,12.91,12.91,0,0,1,2.12-5.49,18.5,18.5,0,0,1,4.67-4.73,24.37,24.37,0,0,1,7.22-3.47c.92-.28,1.9-.56,3-.84s2-.53,3-.75,1.88-.43,2.74-.6l2.1-.43a11,11,0,0,1,3.51-.08,2.09,2.09,0,0,1,1.87,1.37Zm-20.11-14.63c1.14-.35,2.27-.73,3.36-1.15a32.15,32.15,0,0,0,3.15-1.37l-5.52-17.84c-1,.13-2.11.31-3.26.54a35.48,35.48,0,0,0-3.44.89,15,15,0,0,0-3.82,1.76,10.05,10.05,0,0,0-2.79,2.63,7.91,7.91,0,0,0-1.37,3.52,11.13,11.13,0,0,0,2.41,8,10,10,0,0,0,3.07,2.44,10.31,10.31,0,0,0,3.87,1.08A11.37,11.37,0,0,0,1172.15,419.6Z" transform="translate(-325.8 -312.81)"/><path class="cls-1" d="M1250.83,380.6l-24.19,5.16,8,37.74a3.48,3.48,0,0,0,1.26,1.95,26.11,26.11,0,0,0,2.19,1.65c.76.52,1.48,1,2.15,1.51a2.79,2.79,0,0,1,1.18,1.55c0,.27-.23.64-.86,1.1a19.27,19.27,0,0,1-2.37,1.45,28,28,0,0,1-3,1.38,17.81,17.81,0,0,1-2.77.87,5.57,5.57,0,0,1-2.62.11,1.73,1.73,0,0,1-1.12-1.42l-8.9-41.72a2.59,2.59,0,0,0-1.15-1.55c-.64-.45-1.36-.9-2.14-1.34a21.55,21.55,0,0,1-2.15-1.37,2.74,2.74,0,0,1-1.16-1.59c-.06-.27.2-.63.76-1.08a19.31,19.31,0,0,1,2.09-1.4,22.64,22.64,0,0,1,2.79-1.33,17.18,17.18,0,0,1,2.74-.86l32.61-7a5.32,5.32,0,0,1,2.49-.07,1.66,1.66,0,0,1,1.18,1.4l8.73,40.91a3.46,3.46,0,0,0,1.24,1.88,26.11,26.11,0,0,0,2.19,1.65c.76.52,1.49,1,2.16,1.55a2.83,2.83,0,0,1,1.18,1.58c.06.27-.23.63-.86,1.09a19.79,19.79,0,0,1-2.36,1.46,26.91,26.91,0,0,1-3,1.38,17.56,17.56,0,0,1-2.81.88,5.35,5.35,0,0,1-2.55.09,1.68,1.68,0,0,1-1.11-1.42Z" transform="translate(-325.8 -312.81)"/><path class="cls-1" d="M1272.87,381.16a2.63,2.63,0,0,0-1-1.58,22.15,22.15,0,0,0-2.07-1.5,23.35,23.35,0,0,1-2.06-1.5,2.71,2.71,0,0,1-1.07-1.65c0-.27.26-.62.89-1a16.64,16.64,0,0,1,2.39-1.27c.95-.42,2-.82,3-1.19a15.74,15.74,0,0,1,2.81-.74l2.29-.56,2.85-.72c1-.24,2-.47,3.07-.67s2-.38,3-.53a34.15,34.15,0,0,1,8.1-.33,19.32,19.32,0,0,1,6.56,1.65,12.63,12.63,0,0,1,4.63,3.58,11.45,11.45,0,0,1,2.3,5.47,16.49,16.49,0,0,1-.64,8.15,18.09,18.09,0,0,1-3.8,6.29,20.45,20.45,0,0,1-5.71,4.29,20.92,20.92,0,0,1-6.35,2.12c-1.63.25-3.1.42-4.41.5a22.68,22.68,0,0,1-3.87-.06l2.09,13.68a3.38,3.38,0,0,0,1.14,2c.65.6,1.34,1.18,2.08,1.74s1.42,1.11,2.06,1.64a2.78,2.78,0,0,1,1.09,1.67c0,.28-.27.63-.92,1.05a20.48,20.48,0,0,1-2.45,1.32,27.34,27.34,0,0,1-3.06,1.19,17.08,17.08,0,0,1-2.82.71,5.34,5.34,0,0,1-2.58-.06,1.68,1.68,0,0,1-1.07-1.47Zm13.59-8.56c-1.22.19-2.39.43-3.5.71s-2.16.6-3.13.93l3.21,21.05a27.53,27.53,0,0,0,4,.27,30.1,30.1,0,0,0,4.36-.35,11.8,11.8,0,0,0,3.83-1.29,10.06,10.06,0,0,0,3-2.52,9.44,9.44,0,0,0,1.79-3.74,12.48,12.48,0,0,0,.12-4.91,14,14,0,0,0-1.88-5.48,9.95,9.95,0,0,0-7.35-4.72A16.32,16.32,0,0,0,1286.46,372.6Z" transform="translate(-325.8 -312.81)"/><path class="cls-1" d="M1318.85,366.68c0-.37.26-.74.89-1.13a13.92,13.92,0,0,1,2.37-1.12,25.87,25.87,0,0,1,3.16-.92,29.89,29.89,0,0,1,3.17-.53,6.15,6.15,0,0,1,3.5.36,3.49,3.49,0,0,1,1.56,1.6l19,42.42a2.67,2.67,0,0,0,1.24,1.29c.64.38,1.31.76,2,1.14a21.77,21.77,0,0,1,1.89,1.16,1.78,1.78,0,0,1,.89,1.26,1.61,1.61,0,0,1-.52,1.26,5.6,5.6,0,0,1-1.61,1.18,14.53,14.53,0,0,1-2.33.9,15.33,15.33,0,0,1-2.62.51,6.57,6.57,0,0,1-2.26-.14,2.18,2.18,0,0,1-1.55-1.19l-6.55-14.28c-.87,0-1.91,0-3.11.08s-2.34.14-3.43.26a27.07,27.07,0,0,0-3.61.65,39.46,39.46,0,0,0-4.13,1.26,30.86,30.86,0,0,0-4,1.81,18.76,18.76,0,0,0-3.3,2.21l-1.72,6.76c.71.21,1.46.44,2.25.7s1.5.54,2.13.82a7.84,7.84,0,0,1,1.59.91,1.49,1.49,0,0,1,.68.9c0,.32-.2.63-.7.94a10.43,10.43,0,0,1-2.12.88,27.84,27.84,0,0,1-3.25.75c-1.25.22-2.6.41-4.06.56a26.67,26.67,0,0,1-2.76.15,14.74,14.74,0,0,1-2.34-.17,5.33,5.33,0,0,1-1.64-.49,1,1,0,0,1-.67-.79c-.07-.64.38-1.37,1.36-2.19a19.93,19.93,0,0,1,3.64-2.35l10.91-41.4a3,3,0,0,0-.68-1.59,18.47,18.47,0,0,0-1.34-1.52c-.49-.5-.93-1-1.33-1.46A2.67,2.67,0,0,1,1318.85,366.68Zm1.76,36.05a20.12,20.12,0,0,1,2.5-2.27,26.44,26.44,0,0,1,3.07-2,23.38,23.38,0,0,1,3.47-1.61,15.33,15.33,0,0,1,3.69-.87,21.55,21.55,0,0,1,3.14-.12c1,0,1.82.11,2.62.21l-10.69-23.41Z" transform="translate(-325.8 -312.81)"/><path class="cls-1" d="M1362.45,370.62a2.93,2.93,0,0,0-.86-1.9,14.43,14.43,0,0,0-1.84-1.61c-.68-.49-1.29-1-1.84-1.43a2.15,2.15,0,0,1-.85-1.52c0-.55.34-1,1.08-1.46a13.71,13.71,0,0,1,2.94-1.16,35.41,35.41,0,0,1,4.1-.91c1.51-.25,3-.47,4.53-.65s2.94-.32,4.29-.43,2.46-.18,3.34-.22a33.67,33.67,0,0,1,8.54.55,16.22,16.22,0,0,1,5.76,2.34,9.54,9.54,0,0,1,3.31,3.85,13.41,13.41,0,0,1,1.19,5.12,12,12,0,0,1-2.08,7.51,15.73,15.73,0,0,1-6,5.2,22,22,0,0,1,4.42,1.7,17,17,0,0,1,3.92,2.72,14.46,14.46,0,0,1,2.85,3.7,10.36,10.36,0,0,1,1.24,4.57,15.89,15.89,0,0,1-1.15,6.85,15,15,0,0,1-4,5.59,20.7,20.7,0,0,1-6.81,3.89,32.1,32.1,0,0,1-9.49,1.73q-3.45.15-6,.06t-5.85-.36c-1.81-.2-2.73-.82-2.78-1.88Zm15.07-7.23c-1.2.06-2.4.16-3.61.3s-2.48.32-3.81.52l.86,19.41,7.92-.35a9.33,9.33,0,0,0,7-3q2.38-2.81,2.18-7.62a13.54,13.54,0,0,0-.69-3.76,7.5,7.5,0,0,0-1.86-3,8.25,8.25,0,0,0-3.22-1.93A13.07,13.07,0,0,0,1377.52,363.39ZM1391.86,399q-.28-6.33-3.55-9.15a11.87,11.87,0,0,0-8.63-2.59l-8.54.38,1,23,3.57.23c1.13.06,2.42.06,3.89,0a14.54,14.54,0,0,0,5-1.09,13,13,0,0,0,4-2.52,10.41,10.41,0,0,0,3.29-8.25Z" transform="translate(-325.8 -312.81)"/><path class="cls-1" d="M1456.87,386.92a30.84,30.84,0,0,1-2.11,11.06,25.9,25.9,0,0,1-5.49,8.56,24,24,0,0,1-8.12,5.48,26.36,26.36,0,0,1-20.63-.54,24,24,0,0,1-7.89-6.1,26.68,26.68,0,0,1-4.89-8.79,31.36,31.36,0,0,1-1.58-10.51A30.88,30.88,0,0,1,1408.3,375a28,28,0,0,1,5.53-8.8,24.05,24.05,0,0,1,18.21-7.66,23.6,23.6,0,0,1,18.4,8.81,28.71,28.71,0,0,1,4.85,9A32,32,0,0,1,1456.87,386.92Zm-26.75-24.36a10.28,10.28,0,0,0-5.72,1.63,17.3,17.3,0,0,0-4.76,4.54,23.74,23.74,0,0,0-3.31,6.6,25.52,25.52,0,0,0-1.3,7.73,45.25,45.25,0,0,0,.87,9.7,28.28,28.28,0,0,0,3.1,8.49,17.78,17.78,0,0,0,5.62,6.09,15.16,15.16,0,0,0,8.37,2.41,10.71,10.71,0,0,0,5.64-1.52,16,16,0,0,0,4.73-4.34,23.18,23.18,0,0,0,3.27-6.39,25.2,25.2,0,0,0,1.3-7.76,45.49,45.49,0,0,0-.87-9.77,29.29,29.29,0,0,0-3.13-8.67,18.79,18.79,0,0,0-5.59-6.26A14.38,14.38,0,0,0,1430.12,362.56Z" transform="translate(-325.8 -312.81)"/><path class="cls-1" d="M1503.63,406.32a.9.9,0,0,1,.53.25.65.65,0,0,1,.23.57,6.34,6.34,0,0,1-1.55,3.37,13.35,13.35,0,0,1-3.91,3.21,23.18,23.18,0,0,1-13.32,2.79,29.08,29.08,0,0,1-10.17-2.57,20.64,20.64,0,0,1-7.39-5.77,23.06,23.06,0,0,1-4.24-8.8,35.24,35.24,0,0,1-.81-11.61,33.62,33.62,0,0,1,2.75-11.23,26.06,26.06,0,0,1,6-8.51,24.74,24.74,0,0,1,8.67-5.22,26,26,0,0,1,10.85-1.29,50,50,0,0,1,5.71.77,23.45,23.45,0,0,1,4.5,1.29,9.6,9.6,0,0,1,2.9,1.71,2.48,2.48,0,0,1,.95,2.05,3.17,3.17,0,0,1-.82,1.56,12,12,0,0,1-1.83,1.79,12.75,12.75,0,0,1-2.29,1.44,4.28,4.28,0,0,1-2.12.53,3.59,3.59,0,0,1-2.33-1.09,20.71,20.71,0,0,1-1.84-2.15,17.07,17.07,0,0,0-1.9-2.15,4,4,0,0,0-2.54-1.1,15.66,15.66,0,0,0-6.07.73,15.09,15.09,0,0,0-5.58,3.25,18.75,18.75,0,0,0-4.27,5.95,24.94,24.94,0,0,0-2.15,8.82,35.36,35.36,0,0,0,.58,10.59,23.1,23.1,0,0,0,3.27,8,16.78,16.78,0,0,0,5.39,5.2,15.88,15.88,0,0,0,6.88,2.17,20.71,20.71,0,0,0,4.78-.14,24.29,24.29,0,0,0,4-1,17.41,17.41,0,0,0,3.08-1.38q1.31-.76,2.25-1.38a3.79,3.79,0,0,1,1-.61A2.22,2.22,0,0,1,1503.63,406.32Z" transform="translate(-325.8 -312.81)"/><path class="cls-1" d="M1527.69,376.21a2.86,2.86,0,0,0-.51-2.06,15.59,15.59,0,0,0-1.55-1.88,16.48,16.48,0,0,1-1.55-1.89,2.77,2.77,0,0,1-.52-2c0-.28.39-.53,1-.76a14.39,14.39,0,0,1,2.45-.6,24.35,24.35,0,0,1,3.1-.33,16.24,16.24,0,0,1,3,.1l24.23,3.38a1.76,1.76,0,0,1,.92.4.79.79,0,0,1,.33.68l-6.15,44.09a2.58,2.58,0,0,0,.57,1.95,18.68,18.68,0,0,0,1.55,1.82c.57.59,1.09,1.15,1.58,1.68a1.94,1.94,0,0,1,.62,1.55c0,.27-.44.52-1.19.74a17.21,17.21,0,0,1-2.71.52q-1.59.19-3.27.24a18.49,18.49,0,0,1-2.91-.12,6.28,6.28,0,0,1-2.4-.75,1.66,1.66,0,0,1-.66-1.76l6.67-47.85-15.29-2.13a154,154,0,0,1-5,24,69.74,69.74,0,0,1-6.26,14.95q-3.3,5.49-6.75,7.52a10,10,0,0,1-6.52,1.59,8,8,0,0,1-3.25-1.15,9.17,9.17,0,0,1-2.29-2,8.84,8.84,0,0,1-1.34-2.16,3.51,3.51,0,0,1-.35-1.69c0-.18.28-.3.77-.34a13.68,13.68,0,0,1,2,0c.81,0,1.7.12,2.68.23s2,.24,3,.38c1.27.18,2.66-.44,4.15-1.85a23.15,23.15,0,0,0,4.45-6.69,69.7,69.7,0,0,0,4.14-11.53A125.45,125.45,0,0,0,1527.69,376.21Z" transform="translate(-325.8 -312.81)"/><path class="cls-1" d="M1584.27,377.27c.08-.35.47-.62,1.19-.8a13,13,0,0,1,2.61-.34,24.75,24.75,0,0,1,3.29.08,28.5,28.5,0,0,1,3.18.46,6.09,6.09,0,0,1,3.22,1.41,3.4,3.4,0,0,1,1,2l5.24,46.2a2.71,2.71,0,0,0,.79,1.61c.5.55,1,1.12,1.58,1.7a22,22,0,0,1,1.45,1.68,1.86,1.86,0,0,1,.47,1.47,1.66,1.66,0,0,1-.89,1,5.39,5.39,0,0,1-1.89.63,12.26,12.26,0,0,1-2.49.15,15.24,15.24,0,0,1-2.65-.3,6.75,6.75,0,0,1-2.12-.83,2.21,2.21,0,0,1-1.11-1.6l-1.89-15.6c-.83-.27-1.83-.56-3-.87s-2.27-.58-3.35-.8a28.49,28.49,0,0,0-3.63-.48A36.35,36.35,0,0,0,1581,414a31.1,31.1,0,0,0-4.36.5,19.34,19.34,0,0,0-3.82,1.11l-3.69,5.91c.62.41,1.26.86,1.93,1.36a22.61,22.61,0,0,1,1.78,1.42,7.45,7.45,0,0,1,1.23,1.35,1.46,1.46,0,0,1,.38,1.06c-.06.32-.38.55-1,.69a10.12,10.12,0,0,1-2.29.19,29.58,29.58,0,0,1-3.33-.27c-1.25-.17-2.6-.4-4-.7a27.29,27.29,0,0,1-2.67-.7,15.28,15.28,0,0,1-2.17-.87,5.71,5.71,0,0,1-1.42-1,1.07,1.07,0,0,1-.4-1c.13-.63.79-1.19,2-1.67a19.89,19.89,0,0,1,4.17-1.13l23-36.11a3.09,3.09,0,0,0-.17-1.73,16.4,16.4,0,0,0-.81-1.86c-.31-.62-.59-1.22-.82-1.79A2.73,2.73,0,0,1,1584.27,377.27Zm-9.3,34.88a21.05,21.05,0,0,1,3.08-1.4,25.49,25.49,0,0,1,3.55-1,23.5,23.5,0,0,1,3.8-.48,15.14,15.14,0,0,1,3.77.3,21.23,21.23,0,0,1,3,.84c.89.32,1.7.66,2.43,1l-3.06-25.56Z" transform="translate(-325.8 -312.81)"/><path class="cls-1" d="M1624.62,394.3a2.88,2.88,0,0,0-.25-2.07,13.81,13.81,0,0,0-1.26-2.09c-.5-.68-.93-1.33-1.31-1.93a2.1,2.1,0,0,1-.34-1.7c.14-.53.63-.89,1.46-1.06a13.44,13.44,0,0,1,3.17-.21,35.2,35.2,0,0,1,4.18.38c1.51.23,3,.48,4.5.77s2.9.58,4.22.89,2.4.59,3.24.82a33.16,33.16,0,0,1,8,3.13,16.09,16.09,0,0,1,4.78,4,9.58,9.58,0,0,1,2,4.67,13.59,13.59,0,0,1-.42,5.25,12,12,0,0,1-4.28,6.51,15.65,15.65,0,0,1-7.34,3.11,22.25,22.25,0,0,1,3.69,3,17.15,17.15,0,0,1,2.9,3.78,15,15,0,0,1,1.59,4.4,10.55,10.55,0,0,1-.22,4.73,15.94,15.94,0,0,1-3.18,6.16,14.93,14.93,0,0,1-5.52,4.11,20.82,20.82,0,0,1-7.67,1.63,32.14,32.14,0,0,1-9.57-1.25c-2.22-.61-4.14-1.2-5.77-1.79s-3.45-1.29-5.47-2.13c-1.66-.73-2.35-1.61-2.07-2.63Zm19.33,36q1.66-6.12-.58-9.8a11.91,11.91,0,0,0-7.44-5.09l-8.24-2.25-6,22.21,3.33,1.3c1,.4,2.29.8,3.71,1.19a14.57,14.57,0,0,0,5.08.49,13.06,13.06,0,0,0,4.54-1.2,10.37,10.37,0,0,0,3.52-2.71A10.53,10.53,0,0,0,1644,430.34ZM1641.17,392c-1.16-.32-2.33-.59-3.53-.82s-2.46-.45-3.78-.67l-5.1,18.75,7.64,2.08a9.28,9.28,0,0,0,7.59-.72c2.09-1.29,3.55-3.48,4.4-6.59a13.54,13.54,0,0,0,.5-3.79,7.71,7.71,0,0,0-.85-3.44,8.32,8.32,0,0,0-2.48-2.82A13,13,0,0,0,1641.17,392Z" transform="translate(-325.8 -312.81)"/><path class="cls-1" d="M1696.72,434.61a34.51,34.51,0,0,0-3.65-2,39.34,39.34,0,0,0-4.18-1.74,32,32,0,0,0-4-1,45.94,45.94,0,0,0-4.94-.69,36.87,36.87,0,0,0-5-.1,15.63,15.63,0,0,0-4.25.74l-4,11.88a3.51,3.51,0,0,0,.08,2.32,26.08,26.08,0,0,0,1,2.54c.39.83.75,1.63,1.07,2.4a2.68,2.68,0,0,1,.22,1.93q-.13.39-1.29.51a20.47,20.47,0,0,1-2.77,0,28.23,28.23,0,0,1-3.25-.34,18.31,18.31,0,0,1-2.81-.66,5.72,5.72,0,0,1-2.33-1.26,1.69,1.69,0,0,1-.26-1.8l13.69-40.4a2.34,2.34,0,0,0-.22-1.85c-.34-.68-.74-1.38-1.2-2.12a15,15,0,0,1-1.16-2.25,3.06,3.06,0,0,1-.1-2.18c.08-.26.52-.43,1.29-.51a20.65,20.65,0,0,1,2.78,0,30.74,30.74,0,0,1,3.27.34,19.79,19.79,0,0,1,2.83.67,5.48,5.48,0,0,1,2.3,1.26,1.65,1.65,0,0,1,.23,1.78L1671.65,427a19.1,19.1,0,0,1,3.59-1.26,25.92,25.92,0,0,1,4.66-.75,35,35,0,0,1,5,0,19,19,0,0,1,4.84.95,25.75,25.75,0,0,1,5.12,2.28,14.5,14.5,0,0,1,3.16,2.49l4.34-12.79a2.54,2.54,0,0,0-.25-1.87c-.33-.72-.71-1.48-1.12-2.27s-.77-1.57-1.1-2.34a2.79,2.79,0,0,1-.22-1.93c.09-.26.52-.43,1.3-.5a19.91,19.91,0,0,1,2.75-.06,26.57,26.57,0,0,1,3.3.36,18.13,18.13,0,0,1,2.89.69,5.43,5.43,0,0,1,2.18,1.21,1.67,1.67,0,0,1,.29,1.81L1699,452.63a3.33,3.33,0,0,0,.1,2.21,24.15,24.15,0,0,0,1.06,2.54c.41.87.77,1.7,1.08,2.48a2.86,2.86,0,0,1,.18,1.95c-.09.26-.52.43-1.3.51a20.38,20.38,0,0,1-2.76,0,26,26,0,0,1-3.29-.35,18.2,18.2,0,0,1-2.87-.68,5.33,5.33,0,0,1-2.25-1.23,1.69,1.69,0,0,1-.24-1.79Z" transform="translate(-325.8 -312.81)"/><path class="cls-1" d="M1736.75,422.52c.14-.34.58-.54,1.32-.58a13.21,13.21,0,0,1,2.62.16,24.29,24.29,0,0,1,3.22.69,28.22,28.22,0,0,1,3,1,6.15,6.15,0,0,1,2.9,2,3.51,3.51,0,0,1,.6,2.15L1747,474.34a2.67,2.67,0,0,0,.48,1.73c.38.63.79,1.28,1.23,2a20.17,20.17,0,0,1,1.11,1.92,1.8,1.8,0,0,1,.19,1.53,1.63,1.63,0,0,1-1.07.86,5.6,5.6,0,0,1-2,.26,12.82,12.82,0,0,1-2.48-.31,15.66,15.66,0,0,1-2.54-.79,6.85,6.85,0,0,1-1.93-1.21,2.19,2.19,0,0,1-.79-1.78l1-15.68c-.78-.42-1.7-.89-2.78-1.41s-2.12-1-3.14-1.41a26.35,26.35,0,0,0-3.48-1.14,36.37,36.37,0,0,0-4.23-.86,31.16,31.16,0,0,0-4.38-.32,19.32,19.32,0,0,0-4,.37l-4.73,5.13c.53.52,1.08,1.08,1.65,1.69s1.06,1.19,1.48,1.73a8,8,0,0,1,1,1.56,1.46,1.46,0,0,1,.17,1.11c-.12.3-.48.46-1.06.5a9.63,9.63,0,0,1-2.29-.24,27.72,27.72,0,0,1-3.21-.89c-1.2-.39-2.49-.87-3.84-1.44a26.42,26.42,0,0,1-2.5-1.18,14.68,14.68,0,0,1-2-1.26,6.05,6.05,0,0,1-1.22-1.21,1.08,1.08,0,0,1-.21-1c.25-.6,1-1,2.24-1.28a20.29,20.29,0,0,1,4.32-.33l29.32-31.2a3.1,3.1,0,0,0,.15-1.73,15,15,0,0,0-.45-2c-.19-.68-.35-1.32-.47-1.92A2.64,2.64,0,0,1,1736.75,422.52Zm-15.63,32.53a20.46,20.46,0,0,1,3.28-.8,26.21,26.21,0,0,1,3.68-.34,23.53,23.53,0,0,1,3.82.23,15.67,15.67,0,0,1,3.66,1,22.31,22.31,0,0,1,2.81,1.39c.82.49,1.55,1,2.21,1.44l1.75-25.68Z" transform="translate(-325.8 -312.81)"/><path class="cls-1" d="M1788.53,491.83a3.41,3.41,0,0,0-.18,2.25c.18.88.41,1.78.68,2.7s.5,1.8.72,2.62a2.89,2.89,0,0,1,0,2c-.12.25-.57.36-1.35.34a21.65,21.65,0,0,1-2.77-.31,29,29,0,0,1-3.23-.77,19,19,0,0,1-2.75-1,5.5,5.5,0,0,1-2.07-1.51,1.71,1.71,0,0,1,0-1.8l10.76-22.12-2.6-1c-.91-.34-1.83-.74-2.78-1.2l-6,4.22c-2.18,1.53-4.41,3-6.71,4.48s-4.58,2.83-6.85,4.1a53.63,53.63,0,0,1-6.53,3.11,26.12,26.12,0,0,1-5.75,1.57,7.5,7.5,0,0,1-4.43-.51,8.57,8.57,0,0,1-3.64-2.75c-.57-.93-.78-1.55-.62-1.88s.48-.34,1.16-.41a4.82,4.82,0,0,1,2.5.61c.66.32,1.85.2,3.58-.36a46.26,46.26,0,0,0,6.56-2.91q3.94-2.07,9-5.27t11-7.38a23.51,23.51,0,0,1-3.8-3.53,15,15,0,0,1-2.64-4.36,12.74,12.74,0,0,1-.82-5.08,14.47,14.47,0,0,1,1.61-5.82,13,13,0,0,1,8.88-7.07,18.88,18.88,0,0,1,6.64-.26,24.78,24.78,0,0,1,7.64,2.41c.86.43,1.77.89,2.72,1.41s1.86,1,2.72,1.51,1.66,1,2.4,1.44l1.83,1.12a11.1,11.1,0,0,1,2.62,2.34,2.1,2.1,0,0,1,.42,2.28Zm-4.68-24.42c1.08.52,2.16,1,3.24,1.46a32.91,32.91,0,0,0,3.23,1.15l8.17-16.8c-.83-.6-1.74-1.21-2.75-1.83a34.62,34.62,0,0,0-3.11-1.71,15.73,15.73,0,0,0-4-1.33,10.32,10.32,0,0,0-3.84,0,8,8,0,0,0-3.4,1.64,10,10,0,0,0-2.66,3.5,10.38,10.38,0,0,0-1.07,4,9.94,9.94,0,0,0,.57,3.88,10.16,10.16,0,0,0,2.09,3.43A11.44,11.44,0,0,0,1783.85,467.41Z" transform="translate(-325.8 -312.81)"/><path class="cls-1" d="M1866.77,497.45a2.49,2.49,0,0,0,.17-1.87c-.18-.78-.38-1.6-.61-2.46s-.41-1.71-.56-2.52a2.7,2.7,0,0,1,.2-1.93c.14-.24.6-.31,1.38-.22a23.19,23.19,0,0,1,2.69.54,27,27,0,0,1,3.14,1.06,19.28,19.28,0,0,1,2.68,1.3,5.53,5.53,0,0,1,1.86,1.65,1.66,1.66,0,0,1-.1,1.83l-24.85,41,3.9,2.36a3.33,3.33,0,0,1,1.61,1.66,2.08,2.08,0,0,1-.28,1.72,10.65,10.65,0,0,1-1.19,1.3c-.67.66-1.49,1.44-2.46,2.33s-2,1.81-3.09,2.77l-3.07,2.68c-1,.84-1.8,1.56-2.51,2.15a10.81,10.81,0,0,1-1.29,1,2.36,2.36,0,0,1-2.51-.23c-1.07-.64-1.35-1.38-.85-2.2l7.71-12.73-31.42-19a5.18,5.18,0,0,1-1.86-1.65,1.71,1.71,0,0,1,.17-1.8L1837.55,480a2.78,2.78,0,0,0,.22-1.92c-.14-.81-.33-1.66-.57-2.56a23.49,23.49,0,0,1-.57-2.56,2.73,2.73,0,0,1,.22-1.92c.14-.24.59-.31,1.35-.23a19.92,19.92,0,0,1,2.68.53,31.11,31.11,0,0,1,3.13,1.05,19,19,0,0,1,2.66,1.29,5.65,5.65,0,0,1,1.9,1.68,1.63,1.63,0,0,1-.07,1.85l-24.84,41L1846,531.75Z" transform="translate(-325.8 -312.81)"/><path class="cls-1" d="M1883.41,528.71l-11.86,17.1q-1.18,1.7-.39,2.25,4.59,3.18,8.8,5.93a70.84,70.84,0,0,0,7.53,4.38,2,2,0,0,0,1.69,0c.69-.22,1.4-.46,2.15-.73a21.31,21.31,0,0,1,2.13-.66,2,2,0,0,1,1.7.21,1.74,1.74,0,0,1,.51,1.49,12.58,12.58,0,0,1-.27,2.58,19.15,19.15,0,0,1-.78,2.81,9.87,9.87,0,0,1-1.08,2.23,2.25,2.25,0,0,1-1.54,1.07,3.79,3.79,0,0,1-2.35-.91l-25.91-18a4.64,4.64,0,0,1-1.66-1.7,1.73,1.73,0,0,1,.33-1.74l24.22-34.94a2.5,2.5,0,0,0,.4-1.95,19.14,19.14,0,0,0-.55-2.31,22.13,22.13,0,0,1-.56-2.28,2.33,2.33,0,0,1,.33-1.86c.24-.34.75-.47,1.54-.4a12.71,12.71,0,0,1,2.63.56,25.68,25.68,0,0,1,2.93,1.15,17,17,0,0,1,2.45,1.37l19.48,13.51a2.1,2.1,0,0,0,1.49.15,2.45,2.45,0,0,1,1.88.43c.38.26.46.9.25,1.93a23.71,23.71,0,0,1-1,3.38c-.46,1.22-1,2.39-1.52,3.51a20,20,0,0,1-1.27,2.31,3.81,3.81,0,0,1-1.15,1.18,1.12,1.12,0,0,1-1.24-.15,1.77,1.77,0,0,1-.57-.86,12.24,12.24,0,0,1-.48-1.8c-.16-.78-.32-1.76-.51-2.95s-.41-2.67-.7-4.43a68.15,68.15,0,0,0-6-5q-3.4-2.58-8-5.76l-10.65,15.35,11.1,7.69a1.52,1.52,0,0,0,1.19.23,7.73,7.73,0,0,0,1.38-.42,8.41,8.41,0,0,1,1.35-.43,1.32,1.32,0,0,1,1.1.16c.37.26.48.92.31,2a20.53,20.53,0,0,1-.9,3.4c-.42,1.22-.88,2.36-1.36,3.42a19.57,19.57,0,0,1-1,2,.89.89,0,0,1-1.4.2,1.32,1.32,0,0,1-.38-.43,6.08,6.08,0,0,1-.37-1c-.15-.47-.34-1.1-.57-1.9s-.54-1.84-.93-3.13Z" transform="translate(-325.8 -312.81)"/><path class="cls-1" d="M1925.2,537.37a2.67,2.67,0,0,0,.43-1.85,22.08,22.08,0,0,0-.34-2.53,22.27,22.27,0,0,1-.33-2.53,2.72,2.72,0,0,1,.46-1.91c.17-.22.63-.24,1.37-.07a16.55,16.55,0,0,1,2.56.85c1,.41,2,.86,3,1.38a15.21,15.21,0,0,1,2.47,1.53c.54.36,1.2.78,2,1.27l2.48,1.58c.88.56,1.74,1.15,2.61,1.76s1.67,1.22,2.43,1.81a34.11,34.11,0,0,1,5.82,5.65,19.58,19.58,0,0,1,3.32,5.9A12.68,12.68,0,0,1,1954,556a11.35,11.35,0,0,1-2.39,5.43,16.35,16.35,0,0,1-6.34,5.14,18,18,0,0,1-7.19,1.58,20.83,20.83,0,0,1-7-1.19,21,21,0,0,1-5.91-3.16q-1.95-1.51-3.39-2.85a22.64,22.64,0,0,1-2.62-2.85l-8.49,10.93a3.37,3.37,0,0,0-.66,2.2c0,.88.07,1.78.17,2.7s.17,1.8.23,2.62a2.79,2.79,0,0,1-.47,1.95c-.17.22-.63.24-1.39.05a19.15,19.15,0,0,1-2.64-.87,28.42,28.42,0,0,1-3-1.39,18,18,0,0,1-2.46-1.56,5.71,5.71,0,0,1-1.74-1.92,1.69,1.69,0,0,1,.34-1.79Zm15.56,4a34.57,34.57,0,0,0-2.92-2.05c-1-.61-1.92-1.16-2.83-1.63L1922,554.47a26.36,26.36,0,0,0,2.54,3.06,28,28,0,0,0,3.25,2.93,11.56,11.56,0,0,0,3.57,1.89,10.13,10.13,0,0,0,3.93.48,9.49,9.49,0,0,0,3.94-1.27,12.54,12.54,0,0,0,3.65-3.3,14,14,0,0,0,2.68-5.13,10.07,10.07,0,0,0,.15-4.61,10.24,10.24,0,0,0-1.78-4A16.36,16.36,0,0,0,1940.76,541.34Z" transform="translate(-325.8 -312.81)"/><path class="cls-1" d="M1960.72,565.34a2.32,2.32,0,0,0,.5-1.81q-.09-1.12-.3-2.4a19.71,19.71,0,0,1-.23-2.49,3,3,0,0,1,.75-2.09c.18-.21.65-.2,1.4,0a21.76,21.76,0,0,1,2.57,1,26.8,26.8,0,0,1,2.9,1.58,19.37,19.37,0,0,1,2.4,1.72,5.39,5.39,0,0,1,1.61,2,1.69,1.69,0,0,1-.46,1.75l-16.76,19.22,29-3.45c0-.26-.08-.67-.16-1.24s-.18-1.14-.27-1.74a14.78,14.78,0,0,1-.16-1.65,1.51,1.51,0,0,1,.2-1c.18-.21.6-.18,1.25.08a16.29,16.29,0,0,1,2.28,1.21c.87.55,1.76,1.14,2.69,1.8a28.39,28.39,0,0,1,2.47,1.93,15.62,15.62,0,0,1,3.18,3.54c.62,1.07.82,1.74.57,2a1.62,1.62,0,0,1-1.18.53,11.67,11.67,0,0,1-1.66,0c-.59-.06-1.17-.13-1.73-.22a6.23,6.23,0,0,0-1.42-.1l-25.77,2.15q-1.53,7.83-2.59,14.59t-1.5,11.92a69.46,69.46,0,0,0-.3,8.39q.15,3.24,1.08,4.05a5,5,0,0,1,1.54,2.06c.23.68.27,1.11.13,1.28s-.9.33-2,.16a8.69,8.69,0,0,1-4-2.27,9.72,9.72,0,0,1-2.88-5.81,39.57,39.57,0,0,1-.38-9.24A111.45,111.45,0,0,1,1955,601q1.1-6.5,2.47-13.52l-5.69.25-7.38,8.47a3.52,3.52,0,0,0-.8,2.18,24.84,24.84,0,0,0,0,2.73c0,.93.08,1.8.08,2.63a2.73,2.73,0,0,1-.53,1.87c-.18.21-.64.2-1.39,0a19.46,19.46,0,0,1-2.57-1,28.79,28.79,0,0,1-2.88-1.55,16.53,16.53,0,0,1-2.35-1.69,5.72,5.72,0,0,1-1.67-2,1.69,1.69,0,0,1,.44-1.77Z" transform="translate(-325.8 -312.81)"/><path class="cls-1" d="M2015,639.1a30.88,30.88,0,0,1-9.11,6.61,26,26,0,0,1-9.86,2.48,24.09,24.09,0,0,1-9.67-1.56,25,25,0,0,1-8.56-5.54,24.7,24.7,0,0,1-6.1-9,23.85,23.85,0,0,1-1.58-9.84,26.58,26.58,0,0,1,2.47-9.76,32.3,32.3,0,0,1,15.2-15.35,27.92,27.92,0,0,1,10-2.63,24.14,24.14,0,0,1,18.52,6.9,23.56,23.56,0,0,1,7.36,19,28.29,28.29,0,0,1-2.66,9.91A31.66,31.66,0,0,1,2015,639.1ZM2012.15,603a10.27,10.27,0,0,0-5.27-2.73,17.16,17.16,0,0,0-6.58.05,23.76,23.76,0,0,0-6.93,2.53,26.16,26.16,0,0,0-6.25,4.75,44.68,44.68,0,0,0-6,7.66,28.23,28.23,0,0,0-3.56,8.31,17.88,17.88,0,0,0-.08,8.29,15.12,15.12,0,0,0,4.44,7.49,10.7,10.7,0,0,0,5.16,2.75,16,16,0,0,0,6.41.08,23.19,23.19,0,0,0,6.76-2.41,25.17,25.17,0,0,0,6.27-4.77,46.23,46.23,0,0,0,6.06-7.71,29.15,29.15,0,0,0,3.65-8.46,18.78,18.78,0,0,0,.22-8.39A14.33,14.33,0,0,0,2012.15,603Z" transform="translate(-325.8 -312.81)"/><path class="cls-1" d="M2034,634.19a2.87,2.87,0,0,0,.9-1.88,14.06,14.06,0,0,0,.06-2.44c0-.84-.07-1.62-.07-2.33a2.14,2.14,0,0,1,.62-1.62,1.69,1.69,0,0,1,1.81-.11,14.18,14.18,0,0,1,2.79,1.52,38.48,38.48,0,0,1,3.31,2.57q1.74,1.5,3.4,3.07c1.1,1,2.13,2,3.07,3s1.72,1.78,2.3,2.42a33.29,33.29,0,0,1,5,6.92,16.07,16.07,0,0,1,1.89,5.92,9.54,9.54,0,0,1-.84,5,13.32,13.32,0,0,1-3.17,4.19,12,12,0,0,1-7.11,3.21,15.78,15.78,0,0,1-7.86-1.33,23,23,0,0,1,1.52,4.49,17,17,0,0,1,.41,4.75,14.25,14.25,0,0,1-1,4.56,10.46,10.46,0,0,1-2.72,3.87,15.92,15.92,0,0,1-6,3.5,15.07,15.07,0,0,1-6.86.5,20.69,20.69,0,0,1-7.34-2.75,31.65,31.65,0,0,1-7.4-6.19q-2.32-2.55-3.92-4.6t-3.46-4.74q-1.51-2.26-.34-3.33ZM2031,675q4.68-4.26,4.77-8.58t-3.54-8.28l-5.75-6.32-17,15.48c.73,1,1.43,2,2.1,2.89s1.51,1.9,2.5,3a14.24,14.24,0,0,0,4,3.14,13,13,0,0,0,4.47,1.43,10.39,10.39,0,0,0,4.43-.4A10.61,10.61,0,0,0,2031,675Zm18.23-33.82c-.81-.88-1.65-1.74-2.54-2.58s-1.83-1.71-2.83-2.6l-14.37,13.08,5.33,5.86a9.29,9.29,0,0,0,6.79,3.47c2.45,0,4.87-1,7.25-3.2a13.49,13.49,0,0,0,2.45-2.93,7.73,7.73,0,0,0,1.14-3.36,8.4,8.4,0,0,0-.58-3.71A13.35,13.35,0,0,0,2049.19,641.15Z" transform="translate(-325.8 -312.81)"/><path class="cls-1" d="M2060.47,683.39a35.65,35.65,0,0,1,2.91,2.86q1.38,1.53,3,3.56a26.54,26.54,0,0,1,4.19,6.87,17.88,17.88,0,0,1,1.38,6.55,13,13,0,0,1-1.28,5.84,14.16,14.16,0,0,1-3.87,4.8,19.07,19.07,0,0,1-6.12,3.39,14.61,14.61,0,0,1-6.76.6,18.51,18.51,0,0,1-7-2.69,28.82,28.82,0,0,1-7-6.4q-2.13-2.62-3.69-4.8c-1-1.46-2.11-3.11-3.19-5-.92-1.56-1-2.67-.15-3.34l32.46-26.49a2.57,2.57,0,0,0,.83-1.71,21.71,21.71,0,0,0,.24-2.54,24.36,24.36,0,0,1,.24-2.54,2.74,2.74,0,0,1,.88-1.75c.22-.17.67-.09,1.38.26a21.14,21.14,0,0,1,2.38,1.46,28.56,28.56,0,0,1,2.6,2,18.78,18.78,0,0,1,2,2.08,5.41,5.41,0,0,1,1.27,2.27,1.71,1.71,0,0,1-.77,1.62Zm-.52,24.88q4.86-4,5.45-7.72c.38-2.5-.55-5.14-2.81-7.9-.87-1.07-1.78-2.12-2.75-3.16s-2-2.09-3-3.13l-17.3,14.11c.64,1.08,1.28,2.08,1.91,3s1.42,2,2.35,3.1q3.42,4.2,7.82,4.56A11.4,11.4,0,0,0,2060,708.27Z" transform="translate(-325.8 -312.81)"/><path class="cls-1" d="M812.82,1702l-32,17.29a2.09,2.09,0,0,0-.69,1.86,17,17,0,0,0,.34,2.51c.17.85.31,1.67.42,2.44a1.72,1.72,0,0,1-.42,1.65c-.24.19-.72.13-1.45-.19a16.7,16.7,0,0,1-2.46-1.4,30.31,30.31,0,0,1-2.72-2.08,17.29,17.29,0,0,1-2.19-2.16,6.35,6.35,0,0,1-1.39-2.39,2,2,0,0,1,.53-1.88l43.86-23.15a3.14,3.14,0,0,0,.93-2.12,20.27,20.27,0,0,0,0-2.7c-.06-.91-.09-1.76-.08-2.56a2.2,2.2,0,0,1,.71-1.79c.23-.2.72-.13,1.45.19a19.11,19.11,0,0,1,2.49,1.37,25.15,25.15,0,0,1,2.74,2.06,18.39,18.39,0,0,1,2.3,2.28c1.24,1.49,1.6,2.69,1.08,3.58l-24.79,44.09,46.34-15.24a5.33,5.33,0,0,1,3,0,4.84,4.84,0,0,1,2.63,1.6,5.23,5.23,0,0,1,1.54,3.06,2.87,2.87,0,0,1-.64,1.87l-32.66,36.28a3,3,0,0,0-.73,2c0,.84,0,1.67.09,2.52s.09,1.63.08,2.37a2.17,2.17,0,0,1-.73,1.7c-.32.26-.86.25-1.63,0a15.84,15.84,0,0,1-2.55-1.27,21.31,21.31,0,0,1-2.73-2,18.48,18.48,0,0,1-2.22-2.19,7.54,7.54,0,0,1-1.61-2.85,2.22,2.22,0,0,1,.5-2.21l30.33-32.25L795.23,1747a4,4,0,0,1-1.85,0,4.09,4.09,0,0,1-2.09-1.55,2.84,2.84,0,0,1-.78-1.9A3.9,3.9,0,0,1,791,1742Z" transform="translate(-325.8 -312.81)"/><path class="cls-1" d="M887.78,1778.74l-52.09,10.8a10.56,10.56,0,0,1-4.61,0,6.77,6.77,0,0,1-3.4-1.68,4,4,0,0,1-1.32-2.52,2.75,2.75,0,0,1,.85-2.2l33.59-33.41a2.6,2.6,0,0,0,.65-1.91q0-1.24-.15-2.7a15.58,15.58,0,0,1,0-2.81,3.4,3.4,0,0,1,1-2.23c.19-.18.65-.15,1.39.09a16.94,16.94,0,0,1,2.61,1.16,30.06,30.06,0,0,1,3.07,1.89,20.65,20.65,0,0,1,2.83,2.35,7,7,0,0,1,1.63,2.29,1.83,1.83,0,0,1-.6,2l-32.4,32.23,51.82-10.42a9,9,0,0,1,4.09.08,7.35,7.35,0,0,1,3.43,1.93,4.09,4.09,0,0,1,1.37,2.52,2.68,2.68,0,0,1-.84,2.14l-33,32.82a2.91,2.91,0,0,0-.79,2.09c0,.88,0,1.81,0,2.79s0,1.91,0,2.79a2.83,2.83,0,0,1-.74,2c-.25.25-.77.26-1.54,0a14.89,14.89,0,0,1-2.68-1.18,26.31,26.31,0,0,1-3.09-2,21.49,21.49,0,0,1-2.7-2.28,7,7,0,0,1-1.63-2.28,1.82,1.82,0,0,1,.61-2Z" transform="translate(-325.8 -312.81)"/><path class="cls-1" d="M919.89,1832.12a35.26,35.26,0,0,0-2.94-3.58,40.65,40.65,0,0,0-3.58-3.54,36.5,36.5,0,0,0-3.68-2.71,49.9,49.9,0,0,0-4.8-2.77,41.06,41.06,0,0,0-5.14-2.19,16.94,16.94,0,0,0-4.7-1L886,1826.9a3.93,3.93,0,0,0-.88,2.43,28,28,0,0,0,0,3c.06,1,.1,2,.12,2.93a3.06,3.06,0,0,1-.58,2.08c-.2.24-.72.23-1.55,0a20.62,20.62,0,0,1-2.87-1.11,30,30,0,0,1-3.21-1.7,20,20,0,0,1-2.63-1.85,6.42,6.42,0,0,1-1.88-2.27,1.89,1.89,0,0,1,.49-2l30.94-36a2.61,2.61,0,0,0,.55-2c-.07-.84-.19-1.73-.36-2.69a15.83,15.83,0,0,1-.25-2.8,3.34,3.34,0,0,1,.79-2.29c.2-.24.72-.23,1.55,0a22.32,22.32,0,0,1,2.89,1.12,33.48,33.48,0,0,1,3.23,1.71,20.77,20.77,0,0,1,2.64,1.87,6.29,6.29,0,0,1,1.85,2.25,1.91,1.91,0,0,1-.5,1.95l-19.1,22.2a20.83,20.83,0,0,1,4.23.2,30.14,30.14,0,0,1,5.11,1.16,39.36,39.36,0,0,1,5.19,2.09,21.55,21.55,0,0,1,4.6,3,28.7,28.7,0,0,1,4.34,4.49,17,17,0,0,1,2.22,3.88l9.8-11.39a2.77,2.77,0,0,0,.52-2q-.08-1.34-.21-2.82c-.09-1-.15-1.94-.16-2.86a3.09,3.09,0,0,1,.58-2.09c.2-.23.71-.22,1.55,0a23.93,23.93,0,0,1,2.85,1.09,28.06,28.06,0,0,1,3.26,1.74,21.84,21.84,0,0,1,2.7,1.92,6,6,0,0,1,1.74,2.15,1.84,1.84,0,0,1-.45,2l-30.35,35.29a3.73,3.73,0,0,0-.82,2.32,26.23,26.23,0,0,0,0,3.06c.07,1.07.1,2.08.08,3a3.18,3.18,0,0,1-.62,2.09c-.2.23-.72.23-1.55,0A23.67,23.67,0,0,1,909,1861a30.12,30.12,0,0,1-3.24-1.73,22.2,22.2,0,0,1-2.69-1.9,6.06,6.06,0,0,1-1.8-2.21,1.89,1.89,0,0,1,.5-2Z" transform="translate(-325.8 -312.81)"/><path class="cls-1" d="M961.81,1885.83a1,1,0,0,1,.35.55.72.72,0,0,1-.11.68,7.13,7.13,0,0,1-3.45,2.26,14.75,14.75,0,0,1-5.59.72,25.53,25.53,0,0,1-6.89-1.33,26.08,26.08,0,0,1-7.32-3.9,32.15,32.15,0,0,1-8.07-8.42,22.85,22.85,0,0,1-3.57-9.8,25.59,25.59,0,0,1,1.19-10.81,39.35,39.35,0,0,1,6.09-11.43,37.34,37.34,0,0,1,9.22-9,28.78,28.78,0,0,1,10.67-4.49,27.47,27.47,0,0,1,11.27.19,28.84,28.84,0,0,1,11,5.19,54,54,0,0,1,4.94,4.09,27.9,27.9,0,0,1,3.48,3.87,11.1,11.1,0,0,1,1.73,3.33,2.77,2.77,0,0,1-.32,2.49,3.49,3.49,0,0,1-1.69,1,13,13,0,0,1-2.79.6,13.17,13.17,0,0,1-3,0,4.65,4.65,0,0,1-2.3-.75,4,4,0,0,1-1.57-2.4,23.26,23.26,0,0,1-.46-3.11,19.29,19.29,0,0,0-.52-3.16,4.44,4.44,0,0,0-1.75-2.53,17.53,17.53,0,0,0-6.15-2.9,16.85,16.85,0,0,0-7.19-.22,20.92,20.92,0,0,0-7.54,3.1,27.78,27.78,0,0,0-7.23,7,39.79,39.79,0,0,0-5.7,10.33,26,26,0,0,0-1.64,9.48,18.72,18.72,0,0,0,2,8.09,17.47,17.47,0,0,0,5.21,6.1,22.59,22.59,0,0,0,4.59,2.69,26.21,26.21,0,0,0,4.29,1.42,19.18,19.18,0,0,0,3.72.51q1.68.06,2.94,0a4.41,4.41,0,0,1,1.32,0A2.6,2.6,0,0,1,961.81,1885.83Z" transform="translate(-325.8 -312.81)"/><path class="cls-1" d="M991.22,1861.33a2.6,2.6,0,0,0,.25-2.07c-.2-.82-.44-1.68-.72-2.59a20.37,20.37,0,0,1-.66-2.7,3.28,3.28,0,0,1,.47-2.43c.17-.26.68-.32,1.54-.19a21.64,21.64,0,0,1,3,.68,30.71,30.71,0,0,1,3.45,1.25,21.23,21.23,0,0,1,2.93,1.51,6,6,0,0,1,2.1,1.93,1.91,1.91,0,0,1-.22,2l-15.28,23.9,31.31-8.56c-.06-.29-.18-.73-.37-1.34s-.39-1.23-.58-1.87a14.65,14.65,0,0,1-.45-1.79,1.71,1.71,0,0,1,0-1.15c.17-.25.63-.29,1.39-.11a18.05,18.05,0,0,1,2.71,1c1,.45,2.13,1,3.25,1.53a35,35,0,0,1,3,1.72,16.9,16.9,0,0,1,4.07,3.38c.86,1.06,1.19,1.77,1,2.11a1.88,1.88,0,0,1-1.22.78,12.62,12.62,0,0,1-1.84.24c-.65,0-1.3,0-1.93,0a6.57,6.57,0,0,0-1.58.13l-28,6.61c-.26,5.9-.41,11.4-.45,16.47s.07,9.54.32,13.37a76.49,76.49,0,0,0,1.06,9.28q.69,3.54,1.85,4.28a5.53,5.53,0,0,1,2,2c.36.7.48,1.17.34,1.38s-.93.5-2.14.5a9.68,9.68,0,0,1-4.73-1.85,10.79,10.79,0,0,1-4.12-5.91,44.17,44.17,0,0,1-1.94-10.11,122.79,122.79,0,0,1-.38-13.26q.13-7.32.5-15.28L985,1887.4l-6.73,10.54a3.92,3.92,0,0,0-.52,2.53,26.65,26.65,0,0,0,.44,3c.2,1,.38,2,.52,2.88a3,3,0,0,1-.27,2.14c-.17.26-.68.33-1.54.21a24.6,24.6,0,0,1-3-.69,33.44,33.44,0,0,1-3.42-1.23,20.29,20.29,0,0,1-2.86-1.47,6.33,6.33,0,0,1-2.18-2,1.87,1.87,0,0,1,.2-2Z" transform="translate(-325.8 -312.81)"/><path class="cls-1" d="M1049.2,1886.63c.2-.36.7-.51,1.53-.47a14.84,14.84,0,0,1,2.88.48,27.69,27.69,0,0,1,3.47,1.16,29.23,29.23,0,0,1,3.24,1.51,6.94,6.94,0,0,1,3,2.54,3.87,3.87,0,0,1,.4,2.45l-9.39,50.88a3,3,0,0,0,.32,2c.35.75.73,1.52,1.14,2.33a22.89,22.89,0,0,1,1,2.25,2,2,0,0,1,0,1.71,1.85,1.85,0,0,1-1.29.83,6.16,6.16,0,0,1-2.21.06,15.34,15.34,0,0,1-2.71-.65,18.45,18.45,0,0,1-2.72-1.18,7.42,7.42,0,0,1-2-1.57,2.43,2.43,0,0,1-.66-2.07l3-17.21c-.81-.56-1.77-1.19-2.9-1.89s-2.23-1.35-3.31-1.94a29.41,29.41,0,0,0-3.71-1.68,39.62,39.62,0,0,0-4.58-1.46,34.19,34.19,0,0,0-4.8-.88,22.07,22.07,0,0,0-4.43-.06l-5.85,5.1q.8,1,1.62,2.07c.56.74,1,1.44,1.44,2.09a9.11,9.11,0,0,1,.87,1.84,1.61,1.61,0,0,1,.06,1.25c-.17.31-.59.45-1.23.42a11,11,0,0,1-2.51-.54,32.79,32.79,0,0,1-3.45-1.36c-1.28-.59-2.64-1.27-4.07-2.06a29.33,29.33,0,0,1-2.62-1.6,16.93,16.93,0,0,1-2-1.64,6.62,6.62,0,0,1-1.2-1.49,1.16,1.16,0,0,1-.11-1.15c.34-.63,1.22-1,2.63-1.14a22.27,22.27,0,0,1,4.82.15l36.17-31a3.42,3.42,0,0,0,.38-1.89,20.28,20.28,0,0,0-.26-2.24c-.13-.77-.23-1.49-.3-2.17A3,3,0,0,1,1049.2,1886.63Zm-21.2,34.11a22.78,22.78,0,0,1,3.73-.49,28.28,28.28,0,0,1,4.11.06,26,26,0,0,1,4.2.72,17.48,17.48,0,0,1,3.92,1.54,25.16,25.16,0,0,1,3,1.87c.85.64,1.6,1.26,2.27,1.85l5-28.18Z" transform="translate(-325.8 -312.81)"/><path class="cls-1" d="M1103,1965.24a3.89,3.89,0,0,0-.14,2.51c.23,1,.5,2,.83,3s.61,2,.87,2.89a3.16,3.16,0,0,1,0,2.2c-.13.28-.62.41-1.49.41a22.46,22.46,0,0,1-3.08-.28,30.19,30.19,0,0,1-3.61-.76,20.93,20.93,0,0,1-3.09-1.08,6,6,0,0,1-2.34-1.62,1.89,1.89,0,0,1,0-2l11.4-24.88c-.93-.31-1.9-.64-2.92-1s-2.06-.78-3.13-1.27l-6.61,4.86q-3.57,2.63-7.34,5.16t-7.52,4.73a57.57,57.57,0,0,1-7.18,3.62,29,29,0,0,1-6.36,1.9,8.38,8.38,0,0,1-4.93-.45,9.52,9.52,0,0,1-4.13-3c-.65-1-.9-1.71-.73-2.08s.53-.39,1.28-.49a5.3,5.3,0,0,1,2.79.62c.74.34,2.07.17,4-.5a49.63,49.63,0,0,0,7.21-3.41q4.35-2.4,9.92-6.09t12.07-8.49a26.09,26.09,0,0,1-4.31-3.83,16.74,16.74,0,0,1-3.05-4.78,14,14,0,0,1-1-5.63A16.23,16.23,0,0,1,1082,1919a14.63,14.63,0,0,1,3.86-5.11,14.47,14.47,0,0,1,5.84-3,20.45,20.45,0,0,1,7.38-.46,27.36,27.36,0,0,1,8.56,2.48c1,.45,2,.94,3.07,1.49s2.09,1.08,3,1.61,1.87,1,2.72,1.54,1.52.9,2.06,1.2a12.16,12.16,0,0,1,3,2.54,2.33,2.33,0,0,1,.53,2.52Zm-5.83-27c1.21.55,2.43,1.07,3.64,1.54s2.43.87,3.63,1.2l8.65-18.89c-.94-.65-2-1.31-3.1-2a38.77,38.77,0,0,0-3.51-1.82,17,17,0,0,0-4.47-1.37,11.08,11.08,0,0,0-4.27.11,8.73,8.73,0,0,0-3.74,1.91,11,11,0,0,0-2.87,4,11.41,11.41,0,0,0-1.08,4.48,10.75,10.75,0,0,0,.73,4.29,11.27,11.27,0,0,0,2.41,3.76A12.35,12.35,0,0,0,1097.19,1938.2Z" transform="translate(-325.8 -312.81)"/><path class="cls-1" d="M1167.22,1949.91a3,3,0,0,0-.19-2.21,25.27,25.27,0,0,0-1.26-2.4,18.06,18.06,0,0,1-1.25-2.43,3.15,3.15,0,0,1-.16-2.32q.14-.43,1.26-.63a15.3,15.3,0,0,1,2.73-.18,26.62,26.62,0,0,1,3.44.26,18.29,18.29,0,0,1,3.28.72l26.09,8.69a1.71,1.71,0,0,1,.85.6.85.85,0,0,1,.22.8L1185,2002.68l4.3,1.43a3.88,3.88,0,0,1,2.19,1.42,2.23,2.23,0,0,1,.16,2,11.18,11.18,0,0,1-1,1.7c-.57.89-1.26,1.93-2.1,3.14s-1.72,2.46-2.66,3.76l-2.68,3.67c-.84,1.15-1.57,2.13-2.19,3a12.47,12.47,0,0,1-1.15,1.39,2.71,2.71,0,0,1-2.86.34c-1.26-.42-1.72-1.13-1.38-2.15l5.22-15.72-36.73-12.22-5.31,15.93c-.29.87-1.06,1.1-2.32.68a3.83,3.83,0,0,1-1.36-.77,2,2,0,0,1-.66-1.19,16.85,16.85,0,0,1-.28-2.56c0-1.12-.1-2.36-.13-3.72s0-2.79,0-4.29,0-2.9.1-4.17.11-2.4.19-3.37a10.32,10.32,0,0,1,.29-2,1.92,1.92,0,0,1,1.05-1.22,3.63,3.63,0,0,1,1.69-.33,10.7,10.7,0,0,1,1.9.23,16.28,16.28,0,0,1,1.78.47,15.78,15.78,0,0,0,5.93-3.36,41.83,41.83,0,0,0,6.81-7.47,82.76,82.76,0,0,0,7-11.61A113.07,113.07,0,0,0,1167.22,1949.91Zm25.51,1.54-16.37-5.45a145.22,145.22,0,0,1-7.06,17.69,111.63,111.63,0,0,1-7.31,13,52.65,52.65,0,0,1-7.13,8.78,33.14,33.14,0,0,1-6.48,5l28.23,9.39Z" transform="translate(-325.8 -312.81)"/><path class="cls-1" d="M1221.87,2005l-8.4-40.39a6.56,6.56,0,0,0-1.18-2.2l-2.1-2.82c-.73-1-1.39-1.88-2-2.71s-.82-1.44-.72-1.84.53-.79,1.25-1a10.22,10.22,0,0,1,2.6-.45,23.27,23.27,0,0,1,3.12,0,17,17,0,0,1,2.85.45c2,.5,3.1,1.3,3.35,2.42l8.25,39.4,18.64-24.08a4.57,4.57,0,0,0,0-1.74c-.11-.71-.25-1.43-.44-2.17s-.34-1.4-.48-2a3.44,3.44,0,0,1-.09-1.37c0-.2.49-.37,1.31-.5a23.5,23.5,0,0,1,3-.26,33.61,33.61,0,0,1,3.73.07,19.63,19.63,0,0,1,3.43.51,2.94,2.94,0,0,1,2,1.25,2.52,2.52,0,0,1,.23,1.91L1221.09,2016a8.39,8.39,0,0,1-2.41,2,12,12,0,0,1-5.72,1.52,9.73,9.73,0,0,1-2.42-.25,2.06,2.06,0,0,1-1.36-1.37,11.11,11.11,0,0,1-.67-2.66,15.79,15.79,0,0,1-.13-3.08,13.94,13.94,0,0,1,.33-2.6,1.24,1.24,0,0,1,.48-.79,1.6,1.6,0,0,1,1.14,0,4.14,4.14,0,0,1,1.87,1.06,4.07,4.07,0,0,0,1.87,1.07,8.46,8.46,0,0,0,2,.21,2,2,0,0,0,1.74-.78Z" transform="translate(-325.8 -312.81)"/><path class="cls-1" d="M1278,1999.54l-9.56-23.48a5.5,5.5,0,0,0-1.61-2c-.81-.69-1.63-1.38-2.47-2.07s-1.58-1.36-2.22-2a2.05,2.05,0,0,1-.83-1.7c0-.31.41-.58,1.08-.83a14.94,14.94,0,0,1,2.41-.62,17.65,17.65,0,0,1,3-.29,15.5,15.5,0,0,1,3,.21A7.7,7.7,0,0,1,1274,1968a5.62,5.62,0,0,1,1.84,2.58l9.13,22.47,12.79-12.07a4.79,4.79,0,0,0-.15-1.58c-.14-.55-.28-1.08-.42-1.6s-.27-1-.38-1.58a4.31,4.31,0,0,1,0-1.64c.08-.45.63-.78,1.66-1a21.87,21.87,0,0,1,3.57-.39c1.36,0,2.69,0,4,0a27.78,27.78,0,0,1,3,.29q3.4.6,3.15,2l-24.78,23.58,10.27,25.24a3.82,3.82,0,0,0,1.5,1.63l2.56,1.81a25.43,25.43,0,0,1,2.32,1.85c.67.61,1,1.17.88,1.68-.07.35-.43.66-1.1.93a10.3,10.3,0,0,1-2.49.61,20.62,20.62,0,0,1-3.1.2,18.1,18.1,0,0,1-3-.26,7.3,7.3,0,0,1-3.18-1.22,6.15,6.15,0,0,1-1.85-2.54l-9.58-23.41-14.12,13.47a3.27,3.27,0,0,0,.22,1.4c.17.48.35,1,.53,1.42s.32.94.45,1.41a3.51,3.51,0,0,1,.06,1.45c-.07.4-.47.73-1.19,1a10.91,10.91,0,0,1-2.63.55,26.27,26.27,0,0,1-3.25.13,19.81,19.81,0,0,1-3.07-.27c-.25,0-.69-.13-1.31-.27a11.23,11.23,0,0,1-1.85-.56,10.2,10.2,0,0,1-1.58-.74c-.45-.26-.65-.54-.59-.85Z" transform="translate(-325.8 -312.81)"/><path class="cls-1" d="M1365.55,2010.37a33.86,33.86,0,0,1-3.42,12.05,28.82,28.82,0,0,1-6.91,8.95,26.65,26.65,0,0,1-9.53,5.29,29.29,29.29,0,0,1-22.81-2.62,26.3,26.3,0,0,1-8.16-7.52,29.84,29.84,0,0,1-4.56-10.23,36,36,0,0,1,2.73-23.88,31.14,31.14,0,0,1,7-9.21,26.88,26.88,0,0,1,20.93-6.72,26.27,26.27,0,0,1,19.53,11.56,31.77,31.77,0,0,1,4.5,10.5A35.54,35.54,0,0,1,1365.55,2010.37Zm-27.27-29.6a11.31,11.31,0,0,0-6.49,1.25,18.82,18.82,0,0,0-5.72,4.56,26.27,26.27,0,0,0-4.32,7,29,29,0,0,0-2.19,8.44,49.71,49.71,0,0,0,0,10.84,31.48,31.48,0,0,0,2.61,9.71,20,20,0,0,0,5.63,7.3,16.86,16.86,0,0,0,9,3.49,11.91,11.91,0,0,0,6.41-1.14,17.7,17.7,0,0,0,5.65-4.35,25.61,25.61,0,0,0,4.26-6.76,28.07,28.07,0,0,0,2.19-8.48,51,51,0,0,0,0-10.91,32.42,32.42,0,0,0-2.63-9.91,20.77,20.77,0,0,0-5.57-7.48A16,16,0,0,0,1338.28,1980.77Z" transform="translate(-325.8 -312.81)"/><path class="cls-1" d="M1376.26,1991.4a3.15,3.15,0,0,0-.8-2.17,14.55,14.55,0,0,0-1.91-1.94c-.71-.61-1.35-1.2-1.91-1.75a2.35,2.35,0,0,1-.81-1.75c0-.62.46-1.13,1.31-1.54a15.75,15.75,0,0,1,3.37-1,42.22,42.22,0,0,1,4.63-.66c1.69-.14,3.38-.26,5.07-.33s3.29-.11,4.8-.12,2.75,0,3.72.05a37.35,37.35,0,0,1,9.43,1.33,18,18,0,0,1,6.19,3.08,10.65,10.65,0,0,1,3.34,4.56,14.88,14.88,0,0,1,.89,5.78,13.37,13.37,0,0,1-2.94,8.15,17.55,17.55,0,0,1-7.15,5.26,24.55,24.55,0,0,1,4.76,2.26,18.88,18.88,0,0,1,4.11,3.35,15.74,15.74,0,0,1,2.85,4.35,11.56,11.56,0,0,1,1,5.17,17.82,17.82,0,0,1-1.86,7.5,16.82,16.82,0,0,1-4.91,5.86,23.16,23.16,0,0,1-7.88,3.74,35.57,35.57,0,0,1-10.68,1.11q-3.84-.12-6.71-.44c-1.92-.22-4.07-.52-6.47-.9-2-.37-3-1.14-2.92-2.32Zm30.21,34q.22-7-3.16-10.46t-9.36-3.59l-9.5-.31-.82,25.6,3.93.54a42,42,0,0,0,4.33.33,16,16,0,0,0,5.62-.77,14.77,14.77,0,0,0,4.61-2.47,11.52,11.52,0,0,0,3.11-3.85A11.74,11.74,0,0,0,1406.47,2025.43Zm-12.89-40.76c-1.33,0-2.67,0-4,0s-2.77.14-4.26.25l-.69,21.61,8.81.28q5.13.17,8-2.73c1.92-1.93,3-4.69,3.06-8.27a15.05,15.05,0,0,0-.44-4.23,8.51,8.51,0,0,0-1.8-3.51,9.37,9.37,0,0,0-3.42-2.41A14.51,14.51,0,0,0,1393.58,1984.67Z" transform="translate(-325.8 -312.81)"/><path class="cls-1" d="M1464.74,2010.91a37,37,0,0,0-4.59-.63,42.63,42.63,0,0,0-5-.16,35.85,35.85,0,0,0-4.55.52,50.73,50.73,0,0,0-5.4,1.24,41.84,41.84,0,0,0-5.26,1.89,17.14,17.14,0,0,0-4.13,2.45l.53,14a3.93,3.93,0,0,0,1,2.38,27.08,27.08,0,0,0,2.08,2.22q1.11,1.07,2.07,2.07a3.1,3.1,0,0,1,1,1.92c0,.31-.37.65-1.15,1a20.2,20.2,0,0,1-2.86,1.14,30.11,30.11,0,0,1-3.51.94,20.31,20.31,0,0,1-3.19.43,6.3,6.3,0,0,1-2.91-.39,1.86,1.86,0,0,1-1-1.77l-1.8-47.42a2.58,2.58,0,0,0-1-1.84c-.62-.57-1.31-1.14-2.09-1.73a15.78,15.78,0,0,1-2.09-1.88,3.36,3.36,0,0,1-1-2.22c0-.31.37-.66,1.15-1a22.33,22.33,0,0,1,2.88-1.15,32,32,0,0,1,3.53-.94,20.58,20.58,0,0,1,3.2-.43,6.32,6.32,0,0,1,2.9.39,1.89,1.89,0,0,1,.94,1.77l1.11,29.27a21,21,0,0,1,3.23-2.73,29.78,29.78,0,0,1,4.55-2.63,39.17,39.17,0,0,1,5.22-2,21.55,21.55,0,0,1,5.41-.93,28.69,28.69,0,0,1,6.23.34,16.56,16.56,0,0,1,4.27,1.33l-.57-15a2.76,2.76,0,0,0-1-1.85c-.64-.61-1.33-1.25-2.07-1.91s-1.43-1.33-2.07-2a3,3,0,0,1-1-1.91c0-.31.37-.66,1.15-1.05a25,25,0,0,1,2.83-1.14,29,29,0,0,1,3.57-.94,21.12,21.12,0,0,1,3.29-.43,6.16,6.16,0,0,1,2.73.39,1.86,1.86,0,0,1,1,1.77l1.76,46.51a3.65,3.65,0,0,0,1,2.26,25.29,25.29,0,0,0,2.1,2.22c.78.74,1.48,1.46,2.1,2.15a3.2,3.2,0,0,1,1,2c0,.3-.37.65-1.15,1a24.41,24.41,0,0,1-2.85,1.14,28.46,28.46,0,0,1-3.56.94,20.35,20.35,0,0,1-3.26.43,6,6,0,0,1-2.83-.39,1.89,1.89,0,0,1-1-1.77Z" transform="translate(-325.8 -312.81)"/><path class="cls-1" d="M1497.27,1979.75c0-.4.28-.83,1-1.27a14.86,14.86,0,0,1,2.64-1.26,26.37,26.37,0,0,1,3.5-1.06,30.36,30.36,0,0,1,3.52-.63,6.82,6.82,0,0,1,3.9.36,3.86,3.86,0,0,1,1.74,1.77l21.67,47a3,3,0,0,0,1.39,1.42c.72.4,1.47.82,2.27,1.24a24,24,0,0,1,2.11,1.27,2,2,0,0,1,1,1.38,1.86,1.86,0,0,1-.57,1.42,6.2,6.2,0,0,1-1.78,1.32,14,14,0,0,1-2.58,1,16.72,16.72,0,0,1-2.91.6,7.33,7.33,0,0,1-2.52-.13,2.41,2.41,0,0,1-1.73-1.31l-7.44-15.81c-1,0-2.13.05-3.46.12s-2.61.18-3.83.32a32.14,32.14,0,0,0-4,.77,42.27,42.27,0,0,0-4.58,1.45,33.78,33.78,0,0,0-4.43,2,21.38,21.38,0,0,0-3.65,2.5l-1.84,7.54c.8.22,1.64.47,2.52.76s1.67.58,2.38.88a9.07,9.07,0,0,1,1.77,1,1.64,1.64,0,0,1,.77,1c0,.35-.22.71-.77,1a10.35,10.35,0,0,1-2.35,1,29.46,29.46,0,0,1-3.61.88c-1.38.26-2.89.49-4.51.67a30.36,30.36,0,0,1-3.07.2,15.75,15.75,0,0,1-2.6-.17,6.39,6.39,0,0,1-1.83-.52,1.16,1.16,0,0,1-.76-.88c-.08-.71.41-1.53,1.49-2.45a23,23,0,0,1,4-2.66l11.69-46.17a3.42,3.42,0,0,0-.78-1.76,19.24,19.24,0,0,0-1.5-1.68c-.56-.56-1-1.09-1.5-1.61A3,3,0,0,1,1497.27,1979.75Zm2.35,40.09a23,23,0,0,1,2.76-2.55,29.46,29.46,0,0,1,3.4-2.32,26.11,26.11,0,0,1,3.84-1.83,17.23,17.23,0,0,1,4.09-1,23.89,23.89,0,0,1,3.49-.16c1.06,0,2,.1,2.92.2L1508,1986.25Z" transform="translate(-325.8 -312.81)"/><path class="cls-1" d="M1586.59,2013a3.78,3.78,0,0,0,1.33,2.12c.75.67,1.55,1.33,2.4,2s1.64,1.27,2.37,1.86a3.14,3.14,0,0,1,1.27,1.79c.06.3-.27.7-1,1.2a21.31,21.31,0,0,1-2.68,1.55,30.6,30.6,0,0,1-3.39,1.46,20.9,20.9,0,0,1-3.15.9,6,6,0,0,1-2.84,0,1.88,1.88,0,0,1-1.2-1.61l-5-26.9-3,.86a33.78,33.78,0,0,1-3.29.77q-1.2,3.58-2.6,7.78c-.94,2.8-1.95,5.62-3,8.44s-2.22,5.57-3.42,8.21a56.43,56.43,0,0,1-3.78,7.1,29.17,29.17,0,0,1-4.09,5.21,8.46,8.46,0,0,1-4.3,2.48,9.59,9.59,0,0,1-5.08,0c-1.12-.46-1.72-.88-1.8-1.28,0-.24.21-.62.77-1.13a5.24,5.24,0,0,1,2.64-1.11c.8-.15,1.79-1,3-2.7a49.34,49.34,0,0,0,3.93-6.94q2.17-4.47,4.59-10.7t5-13.89a26.59,26.59,0,0,1-5.74-.65,16.41,16.41,0,0,1-5.23-2.15,14,14,0,0,1-4.1-4,16.07,16.07,0,0,1-2.42-6.27,14.51,14.51,0,0,1,3.25-12.2,20.83,20.83,0,0,1,5.77-4.63,27.4,27.4,0,0,1,8.43-2.91c1-.19,2.17-.38,3.36-.55s2.34-.32,3.43-.44,2.13-.23,3.1-.31l2.38-.21a12.27,12.27,0,0,1,3.89.36,2.33,2.33,0,0,1,1.89,1.76Zm-20.35-18.74c1.3-.25,2.59-.53,3.86-.84s2.48-.69,3.65-1.11l-3.82-20.43c-1.14,0-2.36.07-3.67.18s-2.61.3-3.92.54a17,17,0,0,0-4.44,1.45,11.13,11.13,0,0,0-3.43,2.56,8.86,8.86,0,0,0-2,3.72,11.06,11.06,0,0,0-.06,4.88,11.45,11.45,0,0,0,1.69,4.29,11.05,11.05,0,0,0,3.08,3.09,11.39,11.39,0,0,0,4.13,1.68A12.72,12.72,0,0,0,1566.24,1994.22Z" transform="translate(-325.8 -312.81)"/><path class="cls-1" d="M1669.74,1989.89a1.09,1.09,0,0,1,.66,0,.74.74,0,0,1,.46.5,7,7,0,0,1-.26,4.12,15,15,0,0,1-2.79,4.9,25.84,25.84,0,0,1-12.73,8.19,32,32,0,0,1-11.58,1.39,23,23,0,0,1-10-3,25.7,25.7,0,0,1-7.91-7.46,39.16,39.16,0,0,1-5.47-11.74,37.5,37.5,0,0,1-1.61-12.75,29,29,0,0,1,2.84-11.23,27.3,27.3,0,0,1,6.93-8.88,29,29,0,0,1,10.76-5.66,54.51,54.51,0,0,1,6.24-1.48,26.47,26.47,0,0,1,5.18-.45,10.78,10.78,0,0,1,3.7.62,2.75,2.75,0,0,1,1.8,1.75,3.42,3.42,0,0,1-.23,1.94,13,13,0,0,1-1.19,2.6,14.13,14.13,0,0,1-1.8,2.41,4.7,4.7,0,0,1-2,1.38,4,4,0,0,1-2.86-.19,23.42,23.42,0,0,1-2.76-1.5,18.28,18.28,0,0,0-2.84-1.48,4.48,4.48,0,0,0-3.07-.14,17.57,17.57,0,0,0-6,3.18,16.74,16.74,0,0,0-4.5,5.61,20.64,20.64,0,0,0-2.07,7.88,27.93,27.93,0,0,0,1.28,10,40,40,0,0,0,4.82,10.77,25.87,25.87,0,0,0,6.59,7,18.51,18.51,0,0,0,7.67,3.25,17.52,17.52,0,0,0,8-.48,22.87,22.87,0,0,0,4.91-2,26.34,26.34,0,0,0,3.72-2.58,20.08,20.08,0,0,0,2.65-2.66c.7-.87,1.3-1.65,1.79-2.33a4.65,4.65,0,0,1,.81-1A2.74,2.74,0,0,1,1669.74,1989.89Z" transform="translate(-325.8 -312.81)"/><path class="cls-1" d="M1682.59,1966.42l8,21.72c.53,1.44,1.13,2,1.8,1.78q5.83-2.14,11-4.24a80.84,80.84,0,0,0,8.8-4.07,2.27,2.27,0,0,0,1.11-1.52c.24-.77.47-1.57.7-2.42a24.5,24.5,0,0,1,.76-2.37,2.2,2.2,0,0,1,1.27-1.41,1.93,1.93,0,0,1,1.69.48,14.79,14.79,0,0,1,2.18,1.89,22.51,22.51,0,0,1,2.07,2.5,11.31,11.31,0,0,1,1.34,2.41,2.48,2.48,0,0,1,0,2.09,4.19,4.19,0,0,1-2.32,1.55L1688.13,1997a5.07,5.07,0,0,1-2.6.43,2,2,0,0,1-1.39-1.4l-16.42-44.37a2.77,2.77,0,0,0-1.52-1.6,24.53,24.53,0,0,0-2.45-1c-.9-.3-1.71-.61-2.45-.94a2.58,2.58,0,0,1-1.48-1.49c-.16-.44,0-1,.61-1.66a14.66,14.66,0,0,1,2.19-2,27.91,27.91,0,0,1,2.92-1.94,19.53,19.53,0,0,1,2.81-1.36l24.73-9.16a2.3,2.3,0,0,0,1.09-1.26,2.75,2.75,0,0,1,1.59-1.44c.48-.18,1.12.15,1.93,1a27,27,0,0,1,2.44,3.06,42.31,42.31,0,0,1,2.24,3.63,24.78,24.78,0,0,1,1.3,2.62,4.42,4.42,0,0,1,.33,1.8,1.22,1.22,0,0,1-.92,1,2,2,0,0,1-1.15,0,13.61,13.61,0,0,1-1.94-.71c-.82-.35-1.82-.82-3-1.42l-4.49-2.18a75.58,75.58,0,0,0-8.4,2.25q-4.53,1.47-10.35,3.63l7.21,19.48,14.1-5.21a1.67,1.67,0,0,0,1-.94,9.67,9.67,0,0,0,.5-1.52,8.92,8.92,0,0,1,.46-1.51,1.46,1.46,0,0,1,.85-.9c.48-.18,1.15.15,2,1a23,23,0,0,1,2.53,3q1.26,1.74,2.25,3.42a20.9,20.9,0,0,1,1.18,2.18,1,1,0,0,1-.71,1.41,1.44,1.44,0,0,1-.63.07,7.65,7.65,0,0,1-1.12-.28c-.53-.16-1.23-.39-2.1-.7s-2-.68-3.45-1.13Z" transform="translate(-325.8 -312.81)"/><path class="cls-1" d="M1726.35,1934.8l8.68,35.3a2.14,2.14,0,0,0,1.64,1.14,16.89,16.89,0,0,0,2.51.3c.87,0,1.69.11,2.47.2a1.69,1.69,0,0,1,1.48.83c.13.28-.05.73-.54,1.36a16.75,16.75,0,0,1-2,2,28.23,28.23,0,0,1-2.69,2.11,17.79,17.79,0,0,1-2.65,1.58,6.36,6.36,0,0,1-2.66.74,1.93,1.93,0,0,1-1.69-1l-11.37-48.27a3.18,3.18,0,0,0-1.82-1.44,20,20,0,0,0-2.61-.68c-.9-.17-1.73-.36-2.5-.56a2.18,2.18,0,0,1-1.55-1.14c-.13-.27,0-.73.55-1.35a17.81,17.81,0,0,1,2-2.07,25.65,25.65,0,0,1,2.68-2.14,20.24,20.24,0,0,1,2.79-1.65q2.63-1.23,3.74-.14l36.43,35.07-3.1-48.68a5.45,5.45,0,0,1,.76-2.89,4.87,4.87,0,0,1,2.22-2.14,5.16,5.16,0,0,1,3.34-.72,2.89,2.89,0,0,1,1.66,1.08l26.89,40.74a3,3,0,0,0,1.81,1.23c.8.21,1.62.39,2.45.54s1.61.32,2.32.52a2.14,2.14,0,0,1,1.47,1.14q.26.56-.45,1.56a15.66,15.66,0,0,1-1.88,2.15,20.67,20.67,0,0,1-2.59,2.15,18,18,0,0,1-2.68,1.59,7.57,7.57,0,0,1-3.16.85,2.22,2.22,0,0,1-2-1l-23.59-37.47,2.89,47.51a3.9,3.9,0,0,1-.42,1.81,4.15,4.15,0,0,1-2,1.63,2.73,2.73,0,0,1-2,.27,3.67,3.67,0,0,1-1.45-.84Z" transform="translate(-325.8 -312.81)"/><path class="cls-1" d="M1819.49,1881.52l-2.6,53.13a10.69,10.69,0,0,1-1.11,4.47,6.79,6.79,0,0,1-2.49,2.88,4,4,0,0,1-2.77.64,2.74,2.74,0,0,1-1.91-1.37l-23.93-40.9a2.56,2.56,0,0,0-1.68-1.1c-.81-.21-1.69-.38-2.65-.53a17.57,17.57,0,0,1-2.73-.67,3.43,3.43,0,0,1-1.91-1.5c-.13-.22,0-.66.43-1.32a16.73,16.73,0,0,1,1.77-2.24,31.34,31.34,0,0,1,2.6-2.5,20.13,20.13,0,0,1,3-2.14,6.71,6.71,0,0,1,2.62-1,1.83,1.83,0,0,1,1.8,1.08l23.08,39.44,2.9-52.77a8.81,8.81,0,0,1,1.11-3.94,7.29,7.29,0,0,1,2.72-2.84,4.1,4.1,0,0,1,2.79-.69,2.68,2.68,0,0,1,1.86,1.35l23.5,40.17a2.9,2.9,0,0,0,1.82,1.29c.85.25,1.75.47,2.71.68s1.85.44,2.7.68a2.86,2.86,0,0,1,1.79,1.23c.18.31,0,.81-.37,1.5a14.94,14.94,0,0,1-1.81,2.3,27,27,0,0,1-2.67,2.49,21.34,21.34,0,0,1-2.89,2.05,6.73,6.73,0,0,1-2.61,1,1.81,1.81,0,0,1-1.79-1.09Z" transform="translate(-325.8 -312.81)"/><path class="cls-1" d="M1879.19,1863.81a37.06,37.06,0,0,0-4.2,1.94,41,41,0,0,0-4.32,2.59,37,37,0,0,0-3.55,2.88,50.32,50.32,0,0,0-3.88,4,41.62,41.62,0,0,0-3.41,4.43,17.19,17.19,0,0,0-2.15,4.29l8,11.46a3.94,3.94,0,0,0,2.14,1.46,28.29,28.29,0,0,0,3,.75c1,.2,2,.41,2.86.63a3,3,0,0,1,1.87,1.08c.18.25,0,.74-.4,1.49a21.29,21.29,0,0,1-1.79,2.5,32.35,32.35,0,0,1-2.45,2.69,19.61,19.61,0,0,1-2.46,2.08,6.28,6.28,0,0,1-2.66,1.24,1.86,1.86,0,0,1-1.78-1l-27.09-39a2.6,2.6,0,0,0-1.81-1c-.82-.14-1.72-.25-2.68-.33a15.37,15.37,0,0,1-2.78-.45,3.39,3.39,0,0,1-2-1.35c-.18-.25,0-.75.4-1.49a22.8,22.8,0,0,1,1.8-2.52,31.09,31.09,0,0,1,2.47-2.69,19.66,19.66,0,0,1,2.47-2.09,6.23,6.23,0,0,1,2.65-1.24,1.91,1.91,0,0,1,1.75,1l16.72,24a20.74,20.74,0,0,1,1.25-4,29.55,29.55,0,0,1,2.41-4.66,38.76,38.76,0,0,1,3.31-4.5,21.06,21.06,0,0,1,4.06-3.7,28.68,28.68,0,0,1,5.42-3.08,16.89,16.89,0,0,1,4.32-1.18L1868,1847.7a2.74,2.74,0,0,0-1.83-1c-.87-.18-1.79-.34-2.77-.5s-1.92-.35-2.82-.56a3.06,3.06,0,0,1-1.87-1.08c-.18-.25,0-.75.4-1.5a23.88,23.88,0,0,1,1.77-2.49,31,31,0,0,1,2.5-2.72,21.7,21.7,0,0,1,2.54-2.13,6.12,6.12,0,0,1,2.51-1.15,1.85,1.85,0,0,1,1.82.94l26.57,38.21a3.69,3.69,0,0,0,2,1.38,26.88,26.88,0,0,0,3,.73c1.06.2,2,.43,2.93.67a3.24,3.24,0,0,1,1.87,1.13c.18.25,0,.75-.41,1.5a22.71,22.71,0,0,1-1.78,2.5,30.9,30.9,0,0,1-2.48,2.71,21.83,21.83,0,0,1-2.52,2.12,6.11,6.11,0,0,1-2.59,1.2,1.89,1.89,0,0,1-1.76-1Z" transform="translate(-325.8 -312.81)"/><path class="cls-1" d="M1889.79,1820c-.26-.31-.22-.84.13-1.59a15.88,15.88,0,0,1,1.53-2.49,28.76,28.76,0,0,1,2.38-2.78,32.83,32.83,0,0,1,2.62-2.43,7,7,0,0,1,3.48-1.8,3.84,3.84,0,0,1,2.43.55l43.59,27.86a3,3,0,0,0,2,.44c.82,0,1.68-.1,2.57-.17a23.78,23.78,0,0,1,2.46-.08,2,2,0,0,1,1.6.63,1.85,1.85,0,0,1,.29,1.5,6.46,6.46,0,0,1-.79,2.07,15.11,15.11,0,0,1-1.61,2.26,18.06,18.06,0,0,1-2.12,2.08,7.63,7.63,0,0,1-2.2,1.24,2.4,2.4,0,0,1-2.16-.16l-14.81-9.3c-.81.54-1.76,1.19-2.84,2s-2.09,1.56-3,2.34a30.67,30.67,0,0,0-3,2.8,42.29,42.29,0,0,0-3.07,3.69,34.44,34.44,0,0,0-2.63,4.12,21.54,21.54,0,0,0-1.72,4.08l2.52,7.34c.79-.25,1.63-.49,2.53-.72a23.94,23.94,0,0,1,2.48-.54,9.13,9.13,0,0,1,2-.12,1.63,1.63,0,0,1,1.18.42c.22.27.2.71-.08,1.3a10.71,10.71,0,0,1-1.44,2.11,30.58,30.58,0,0,1-2.56,2.68c-1,1-2.17,2-3.44,3-.83.68-1.66,1.28-2.47,1.82a16.78,16.78,0,0,1-2.28,1.26,6.33,6.33,0,0,1-1.83.55,1.15,1.15,0,0,1-1.11-.33c-.45-.55-.48-1.51-.06-2.87a22.23,22.23,0,0,1,1.94-4.4l-15.08-45.18a3.42,3.42,0,0,0-1.61-1.07,20.66,20.66,0,0,0-2.17-.6c-.76-.17-1.47-.35-2.12-.54A3,3,0,0,1,1889.79,1820Zm23.61,32.49a22.57,22.57,0,0,1,.95-3.64,27.09,27.09,0,0,1,1.61-3.79,25.36,25.36,0,0,1,2.24-3.61,16.92,16.92,0,0,1,2.9-3.06,24.66,24.66,0,0,1,2.85-2c.91-.54,1.77-1,2.57-1.4l-24.22-15.27Z" transform="translate(-325.8 -312.81)"/><path class="cls-1" d="M1930.07,1797.74a3,3,0,0,0-2-.79,26,26,0,0,0-2.83-.07,26.13,26.13,0,0,1-2.84-.07,3,3,0,0,1-2-.85c-.21-.22-.15-.72.16-1.51a19.31,19.31,0,0,1,1.39-2.67c.61-1,1.28-2,2-3a18.43,18.43,0,0,1,2.11-2.45c.49-.53,1.07-1.18,1.75-1.95s1.4-1.59,2.17-2.46,1.56-1.71,2.38-2.55,1.63-1.63,2.41-2.36a37.8,37.8,0,0,1,7.23-5.41,21.73,21.73,0,0,1,7-2.62,14,14,0,0,1,6.5.37,12.62,12.62,0,0,1,5.55,3.57,18.13,18.13,0,0,1,4.55,7.87,20,20,0,0,1,.48,8.17,23,23,0,0,1-2.53,7.53,23.42,23.42,0,0,1-4.49,5.94c-1.34,1.26-2.59,2.34-3.73,3.24a26,26,0,0,1-3.59,2.38l10.54,11.24a3.79,3.79,0,0,0,2.29,1.1c1,.14,2,.24,3,.29s2,.11,2.93.2a3.09,3.09,0,0,1,2.05.85c.21.22.15.74-.18,1.54A22.17,22.17,0,0,1,1971,1826a31.53,31.53,0,0,1-2,3,19.57,19.57,0,0,1-2.14,2.43,6.07,6.07,0,0,1-2.41,1.57,1.86,1.86,0,0,1-1.9-.68Zm7.07-16.41c-1,.94-1.93,1.9-2.77,2.86s-1.6,1.91-2.28,2.82l16.21,17.28a30.18,30.18,0,0,0,3.8-2.25,34.12,34.12,0,0,0,3.78-3.07,13,13,0,0,0,2.7-3.59,11.21,11.21,0,0,0,1.21-4.24,10.36,10.36,0,0,0-.71-4.55,14,14,0,0,0-3-4.58,15.56,15.56,0,0,0-5.18-3.85,11.28,11.28,0,0,0-5-1,11.51,11.51,0,0,0-4.67,1.27A17.48,17.48,0,0,0,1937.14,1781.33Z" transform="translate(-325.8 -312.81)"/><path class="cls-1" d="M1992.53,1736.74l12.93,51.61a10.44,10.44,0,0,1,.23,4.6,6.81,6.81,0,0,1-1.54,3.47,4,4,0,0,1-2.47,1.42,2.73,2.73,0,0,1-2.22-.76l-34.77-32.2a2.56,2.56,0,0,0-1.92-.57c-.84,0-1.74.13-2.7.26a14.94,14.94,0,0,1-2.81.15,3.34,3.34,0,0,1-2.26-.88q-.29-.25,0-1.38a16.42,16.42,0,0,1,1-2.66,29.86,29.86,0,0,1,1.76-3.15,20.28,20.28,0,0,1,2.24-2.92,6.8,6.8,0,0,1,2.22-1.72,1.81,1.81,0,0,1,2,.52l33.52,31-12.53-51.35a9,9,0,0,1-.08-4.09,7.36,7.36,0,0,1,1.79-3.51,4,4,0,0,1,2.46-1.47,2.68,2.68,0,0,1,2.17.76l34.15,31.62a2.91,2.91,0,0,0,2.11.71c.89,0,1.82-.06,2.79-.14s1.91-.11,2.79-.13a2.82,2.82,0,0,1,2.06.65c.26.25.29.76.09,1.55a15.09,15.09,0,0,1-1.07,2.72,26.2,26.2,0,0,1-1.83,3.17,23.15,23.15,0,0,1-2.17,2.79,6.69,6.69,0,0,1-2.21,1.71,1.82,1.82,0,0,1-2-.52Z" transform="translate(-325.8 -312.81)"/><path class="cls-1" d="M2058.15,1714.49a3.86,3.86,0,0,0,2.4.75c1,0,2,0,3.1-.07s2.07-.11,3-.14a3.15,3.15,0,0,1,2.13.52c.24.2.25.71,0,1.55a22.61,22.61,0,0,1-1,2.93,31.52,31.52,0,0,1-1.62,3.31,20.68,20.68,0,0,1-1.8,2.74,6,6,0,0,1-2.14,1.87,1.91,1.91,0,0,1-2-.44l-21.36-17.11c-.52.82-1.08,1.68-1.67,2.58s-1.26,1.81-2,2.73c.94,2.33,2,4.86,3.1,7.59s2.19,5.53,3.21,8.38,2,5.66,2.76,8.45a57,57,0,0,1,1.77,7.85,28.79,28.79,0,0,1,.29,6.62,8.48,8.48,0,0,1-1.63,4.68,9.62,9.62,0,0,1-3.88,3.27c-1.15.39-1.88.46-2.2.21s-.25-.61-.16-1.36a5.32,5.32,0,0,1,1.28-2.56c.51-.63.67-2,.48-4a48.88,48.88,0,0,0-1.55-7.82q-1.26-4.8-3.49-11.11t-5.3-13.77a26.06,26.06,0,0,1-4.77,3.25,16.28,16.28,0,0,1-5.37,1.79,14.07,14.07,0,0,1-5.71-.35,16.22,16.22,0,0,1-5.92-3.17,14.46,14.46,0,0,1-5.49-11.38A20.79,20.79,0,0,1,2004,1705a27.12,27.12,0,0,1,4.49-7.7q1-1.24,2.19-2.61c.79-.9,1.56-1.76,2.31-2.57s1.46-1.56,2.15-2.26,1.24-1.26,1.67-1.71a12,12,0,0,1,3.18-2.26,2.31,2.31,0,0,1,2.58.1Zm-27.65-.93c.83-1,1.63-2.09,2.38-3.15a33.35,33.35,0,0,0,2-3.23l-16.21-13c-.86.75-1.75,1.6-2.67,2.53s-1.79,1.93-2.62,3a17,17,0,0,0-2.42,4,11.22,11.22,0,0,0-.93,4.16,8.76,8.76,0,0,0,1,4.1,10.94,10.94,0,0,0,3.14,3.74,11.14,11.14,0,0,0,4.08,2.14,10.84,10.84,0,0,0,4.34.34,11.26,11.26,0,0,0,4.24-1.42A12.55,12.55,0,0,0,2030.5,1713.56Z" transform="translate(-325.8 -312.81)"/><rect class="cls-1" x="1051.12" y="151.51" width="79.91" height="53.17" rx="2.77"/><rect class="cls-1" x="1465.16" y="1082.44" width="48.91" height="96.06"/><rect class="cls-1" x="1585.58" y="1290.98" width="1" height="1"/><path class="cls-1" d="M1307.41,1817.43a7.65,7.65,0,0,0,1.77,4.28,58.23,58.23,0,0,0,3.86,4.79q2.1,2.36,3.87,4.54c1.17,1.45,1.76,2.58,1.76,3.36s-.67,1.79-2,2.69a31.24,31.24,0,0,1-5,2.6,36.56,36.56,0,0,1-6.3,2,28.08,28.08,0,0,1-6.05.75,13.92,13.92,0,0,1-6.13-1.26c-1.74-.84-2.61-2.54-2.61-5.12v-89.55c0-.9-.61-1.23-1.85-1a20.22,20.22,0,0,0-4.7,1.68q-2.86,1.35-6.22,3.36l-6.46,3.86c-2.08,1.24-3.9,2.3-5.47,3.2a9.21,9.21,0,0,1-3,1.34,2.23,2.23,0,0,1-2.52-2.52c0-.45.84-1.62,2.52-3.53s3.81-4.17,6.38-6.8,5.41-5.38,8.49-8.23,6-5.52,8.9-8,5.38-4.47,7.56-6,3.67-2.36,4.46-2.36a14,14,0,0,1,6.13,1.26q2.6,1.26,2.6,5.13Z" transform="translate(-325.8 -312.81)"/><path class="cls-1" d="M1342.86,1740.31c-.67,0-1.4.51-2.18,1.51s-1.63,2.1-2.52,3.28a32.47,32.47,0,0,1-2.86,3.28,4.38,4.38,0,0,1-3,1.51,2.16,2.16,0,0,1-2-1.26,5.14,5.14,0,0,1-.67-2.44,38.22,38.22,0,0,1,.84-6.55q.84-4.37,2.1-8.82a46.15,46.15,0,0,1,2.86-7.73c1.06-2.18,2-3.28,2.94-3.28a2.71,2.71,0,0,1,1.68.51,9.16,9.16,0,0,1,1.26,1.17,6.87,6.87,0,0,0,1.34,1.18,3.71,3.71,0,0,0,2.1.5h50.74a4.65,4.65,0,0,0,2.94-.84,4.71,4.71,0,0,1,2.94-.84,2.72,2.72,0,0,1,2.1,1.1,4.63,4.63,0,0,1,1.09,2.43l-39,111.56a9.36,9.36,0,0,1-3.52,4.54q-2.19,1.34-7.56,1.34a7.76,7.76,0,0,1-5.72-2,5.7,5.7,0,0,1-2-3.87,2.65,2.65,0,0,1,.33-1l42.68-95.26Z" transform="translate(-325.8 -312.81)"/><path class="cls-1" d="M1423,1748.88a28.78,28.78,0,0,1,1.93-10.5,25.89,25.89,0,0,1,5.63-8.74,26.2,26.2,0,0,1,9.16-6,33.93,33.93,0,0,1,12.69-2.19,35.21,35.21,0,0,1,12.68,2.1,27,27,0,0,1,9.24,5.8,24.24,24.24,0,0,1,5.71,8.74,29.72,29.72,0,0,1,1.93,10.75,17,17,0,0,1-1.68,7.39,24.63,24.63,0,0,1-4.62,6.56,31.73,31.73,0,0,1-6.63,5.2,33.42,33.42,0,0,1-7.73,3.36q5.71,3,11.26,6.72a57.15,57.15,0,0,1,9.83,8.24,38.19,38.19,0,0,1,6.88,10.08,28.81,28.81,0,0,1,2.61,12.43,30.54,30.54,0,0,1-2.86,13,32.2,32.2,0,0,1-8,10.67,38.73,38.73,0,0,1-12.43,7.22,50.22,50.22,0,0,1-32.43,0,39.86,39.86,0,0,1-12.52-7.22,30.89,30.89,0,0,1-8-10.67,31.38,31.38,0,0,1-2.77-13,26.57,26.57,0,0,1,2.61-11.76,33.33,33.33,0,0,1,6.72-9.41,39.93,39.93,0,0,1,9.32-6.8,42.08,42.08,0,0,1,10.25-4q-3.87-2.68-7.31-5.46a35.82,35.82,0,0,1-6-6,28.06,28.06,0,0,1-4-7.31A26.41,26.41,0,0,1,1423,1748.88Zm9.92,60q0,11.6,4.95,18.23t14.54,6.64q9.57,0,14.61-6.64t5-18.23a17.2,17.2,0,0,0-2.52-8.82,42.32,42.32,0,0,0-6.21-8.07,64.78,64.78,0,0,0-7.82-6.8,59.3,59.3,0,0,0-7.3-4.7,33.22,33.22,0,0,0-11.26,11.42Q1432.92,1798.79,1432.92,1808.86Zm7.39-61.66a19,19,0,0,0,3.44,10.58,33.71,33.71,0,0,0,10.33,9.58,32.31,32.31,0,0,0,7.65-9,22,22,0,0,0,2.94-11.17q0-7.56-3.19-12.43a10.24,10.24,0,0,0-9.07-4.88,10,10,0,0,0-9,4.88Q1440.3,1739.65,1440.31,1747.2Z" transform="translate(-325.8 -312.81)"/><path class="cls-1" d="M1506,1815.24c.89,0,1.65.65,2.27,1.94a34.31,34.31,0,0,1,1.68,4.36c.5,1.63,1,3.2,1.51,4.71a6.86,6.86,0,0,0,1.76,3.11,16.77,16.77,0,0,0,5.21,3.27,18.68,18.68,0,0,0,6.39.93q12.42,0,19.74-7t7.31-22.09A37.19,37.19,0,0,0,1550,1792a22.06,22.06,0,0,0-5.21-8.4,19.55,19.55,0,0,0-7.9-4.7,33.49,33.49,0,0,0-10.08-1.43,34,34,0,0,0-7.31.67,34.47,34.47,0,0,0-5,1.52c-1.4.56-2.57,1.06-3.52,1.51a6.51,6.51,0,0,1-2.78.67q-5.21,0-5.21-6l5.72-49.23a5.47,5.47,0,0,1,1.93-3.78,6.17,6.17,0,0,1,4-1.26,7.24,7.24,0,0,1,2.35.42,3.14,3.14,0,0,1,1.68,1.26h41.33a2.72,2.72,0,0,0,1.85-.75l1.85-1.68a15.6,15.6,0,0,1,2.18-1.68,4.81,4.81,0,0,1,2.69-.76,2.17,2.17,0,0,1,2,1.26,5.29,5.29,0,0,1,.67,2.44,45.29,45.29,0,0,1-.51,5.88,61,61,0,0,1-1.42,7.22,31.43,31.43,0,0,1-2.19,6.05c-.84,1.68-1.71,2.52-2.6,2.52a2.73,2.73,0,0,1-1.68-.5,8.21,8.21,0,0,1-1.26-1.18,6.57,6.57,0,0,0-1.35-1.17,3.7,3.7,0,0,0-2.1-.51H1518.6l-3.7,29.23c2.58-.55,5.43-1.09,8.57-1.59a60.8,60.8,0,0,1,9.58-.76,50.11,50.11,0,0,1,14.53,2.1,35.92,35.92,0,0,1,12.35,6.47,32.33,32.33,0,0,1,8.65,11.09,35.56,35.56,0,0,1,3.28,15.79,37.52,37.52,0,0,1-3.11,15,39.31,39.31,0,0,1-8.82,12.77,42.67,42.67,0,0,1-13.78,8.82,47.87,47.87,0,0,1-18.14,3.27,55,55,0,0,1-14.7-1.68,33.52,33.52,0,0,1-9.58-4.11,16.51,16.51,0,0,1-5.21-5.21,10.23,10.23,0,0,1-1.59-5,8.93,8.93,0,0,1,.92-3.7,17.34,17.34,0,0,1,2.27-3.69,13.42,13.42,0,0,1,2.94-2.77A5.3,5.3,0,0,1,1506,1815.24Z" transform="translate(-325.8 -312.81)"/></svg>