<svg xmlns="http://www.w3.org/2000/svg" viewBox="0 0 595.28 841.89" style="enable-background:new 0 0 595.28 841.89" xml:space="preserve"><style>.st0{stroke:#000;stroke-miterlimit:10}.st0,.st1{fill:none}</style><g id="Слой_2"><path d="M290.21 387.17c-7.27-13.89-11.28-28.72-7.9-44.33 1.58-7.31 4.46-14.29 7.76-20.98.85-1.73 4.08-9.87 5.79-9.89 1.33-.02 4.33 6.32 5.37 7.84 3.3 4.83 7.13 9.29 10.29 14.21 3.82 5.95 6.07 12.42 7.25 19.37 2.64 15.63-.9 28.97-8.75 42.51-.41.71.66 1.32 1.09.64 8.98-14.15 11.65-29.62 8.26-45.99-3.35-16.15-15.79-26.37-23.14-40.5-.11-.21-.43-.2-.54 0-6.72 11.96-13.25 24.7-14.8 38.53-1.53 13.73 2.72 26.72 9.07 38.73.09.16.33.02.25-.14zM303.25 396.84c-20.68-15.46-58.01-19.35-72.83 6.24-1.31 2.26-5.13 8.76-3.22 11.32 1.29 1.72 7.41 2 9.24 2.33 5.43.99 10.81 1.59 16.33 1.81 8.64.33 17.21 1.86 25.88 1.59 12.16-.37 26.34-6.19 28.47-19.6.04-.27-.36-.38-.41-.11-2.89 18.01-24.09 20.12-38.59 18.64-12.57-1.28-25.37-1.48-37.68-4.62-3.13-.8-2.38-3.1-1.41-5.84 1.31-3.71 3.4-7.08 5.97-10.04 4.81-5.54 11.38-9.37 18.42-11.3 16.75-4.61 35.5.42 49.8 9.63.04.04.07-.02.03-.05zM314.92 400.31c12.51 2.85 26.09 6.52 36.86 13.73 10.17 6.8 12.62 17.48 15.36 28.54.27-.48.55-.96.82-1.45-5.68 1.79-12.64.89-18.49.39-6.35-.55-13.87-1.24-19.75-3.95-9.61-4.44-19.87-13.38-22.12-24.13-.09-.41-.77-.2-.61.17 4.48 10.67 10.88 17.98 21.2 23.57 5.06 2.74 11.23 3.51 16.86 4.23 7.36.94 15.86-.24 22.92 1.99.72.23 1.5-.39 1.49-1.13-.24-10.52-5.49-21.39-13.9-27.72-11.75-8.84-26.68-11.09-40.6-14.33-.08-.02-.1.07-.04.09z"/><path d="M271.01 421.03c-5.87 2.38-12.94 7.96-15.92 13.62-2.3 4.36-2.56 9.97-2.69 14.79-.19 6.76.24 13.59 1.07 20.3.07.53.44.85.98.75 16.16-3.01 33.91-6.51 45.46-19.31 9.1-10.07 12.39-25.65 7.14-38.34-.33-.81-1.63-.52-1.36.37 3.5 11.35 2.84 23.32-4.07 33.34-7.55 10.94-20.46 16.32-32.91 19.42-3.03.75-6.09 1.38-9.15 1.98-1.39.27-3.11 1.09-4.28.23-1.31-.97-1.18-4.22-1.35-5.79-.64-5.98-.81-12.25-.17-18.24.68-6.42 2.74-10.7 7.28-15.14 2.97-2.91 6.32-5.83 10.17-7.52.25-.12.06-.56-.2-.46zM306.75 399.98c.93-3.08 1.08-6.27.29-9.4-.39-1.54-1.13-3.13-1.34-4.52-.14-.95-.03-1.83-1.23-2.16-.92-.25-1.91.31-2.16 1.23-.31 1.14.47 1.59 1.23 2.16 3.43 2.61 3.46 8.5 2.46 12.49-.12.48.61.68.75.2z"/><path d="M306.43 399.72c-2.78-.6-5.54-2.17-8.36-.84-1.48.7-3.81 2.95-2.4 4.6.2.23.57.14.72-.09.41-.63.3-1.32.65-1.97.66-1.26 2.36-1.88 3.67-1.92 1.89-.05 3.77.56 5.65.7.28.02.34-.42.07-.48z"/><path d="M307.07 400.27c-.12-.14-.25-.27-.37-.41-.11.19-.22.39-.33.58 1.47.1 3.85 1.89 5.03 2.65 3.21 2.07 4.44 4.74 3.74 8.45-.32 1.67 1.8 2.64 2.76 1.16 1.79-2.74-1.94-8.09-4.03-9.7-1.34-1.03-2.93-1.82-4.51-2.41-.84-.31-2.08-.97-2.99-.94-.56.02-.46.88.1.76l.52.03c.11.05.17-.1.08-.17z"/><path d="M306.59 399.89c-.03.01-.07.01-.1.02-.06.01-.05.09 0 .11.06.02.12.04.17.06.21.07.3-.26.09-.33l-.09-.03c-.28-.09-.41.38-.12.44 4.87.96 10.52-1.09 13.07-5.43 1.02-1.73-2.15-2.91-2.42-.66-.55 4.61-7.22 4.85-10.57 5.92.06-.02.03-.11-.03-.1z"/><path d="M306.56 400.02c-.8 3.73-2.45 7.21-3.88 10.73-.69 1.69-1.71 3.22-2.42 4.79-.45 1.01-.55 1.86.11 2.81.38.54 1.1.69 1.6.21.79-.75.9-1.44.92-2.51.04-2.23.42-3.71 1.24-5.93 1.18-3.22 2.75-6.55 2.84-10.04.01-.24-.36-.29-.41-.06z"/><circle class="st0" cx="304.21" cy="397.87" r="138.18"/><circle class="st0" cx="304.21" cy="397.87" r="129.96"/><path d="M320.46 374.68c3.01-4.98 9.5-9.21 15-10.84 5.82-1.72 12.53-.78 18.51-.69 2.71.04 6.8-.94 9.37-.42 1.63.33.4-.98.69.51.34 1.74-.6 4.24-.9 5.95-1.18 6.79-2.61 13.42-5.94 19.54-4.87 8.97-12.47 13.25-22.13 15.66-.38.09-.31.71.09.69 11.72-.5 20.78-9.09 25.08-19.52 1.93-4.68 3.13-9.71 3.79-14.73.37-2.8.1-5.84.86-8.57.07-.26-.17-.46-.41-.41-9.23 1.78-18.95-.9-28.08 1.32-5.93 1.44-12.94 6.11-16.06 11.44-.04.07.08.14.13.07zM295.85 404.16c.18.01.34-.03.49-.11a.99.99 0 0 0 .41-.26.99.99 0 0 0 .26-.41c.08-.15.12-.31.11-.49-.02-.11-.03-.23-.05-.34-.06-.22-.17-.4-.33-.56l-.26-.2c-.2-.12-.41-.17-.64-.17a.908.908 0 0 0-.49.11.99.99 0 0 0-.41.26.99.99 0 0 0-.26.41c-.08.15-.12.31-.11.49.02.11.03.23.05.34.06.22.17.4.33.56l.26.2c.19.12.41.17.64.17z"/></g><g id="Слой_3"><path class="st1" d="M135.26 193.07h340.56v101.06H135.26z"/><path d="M138.98 193.82h17.43v2.98h-14.39v9.53h14.27v2.98h-14.27v11.95h14.27v2.98h-17.31v-30.42zM175.16 193.82h6c2.41 0 4.27.29 5.56.86a6.75 6.75 0 0 1 3.07 2.64c.75 1.19 1.13 2.5 1.13 3.95 0 1.35-.33 2.58-.99 3.69-.66 1.11-1.63 2.01-2.9 2.7 1.58.54 2.8 1.17 3.65 1.89.85.72 1.52 1.6 1.99 2.63.47 1.03.71 2.14.71 3.34 0 2.44-.89 4.5-2.68 6.19-1.79 1.69-4.18 2.53-7.19 2.53h-8.35v-30.42zm2.97 2.98v9.74h1.74c2.11 0 3.67-.2 4.66-.59.99-.39 1.78-1.01 2.36-1.86.58-.85.87-1.79.87-2.82 0-1.39-.49-2.48-1.46-3.28-.97-.79-2.52-1.19-4.65-1.19h-3.52zm0 12.8v11.66h3.77c2.22 0 3.85-.22 4.89-.65a5.489 5.489 0 0 0 2.5-2.04c.63-.92.94-1.92.94-3 0-1.35-.44-2.53-1.33-3.54-.88-1.01-2.1-1.7-3.64-2.07-1.04-.25-2.84-.37-5.41-.37h-1.72zM225.22 193.82l14.19 30.42h-3.28l-4.78-10.01h-13.1l-4.74 10.01h-3.39l14.37-30.42h.73zm-.38 6.46-5.21 11.01h10.4l-5.19-11.01zM257.49 193.82h3.04v12.76h15.49v-12.76h3.04v30.42h-3.04v-14.68h-15.49v14.68h-3.04v-30.42zM302.86 224.24h-3.04v-30.42h15.24v2.98h-12.2v27.44zM332.85 193.82h17.43v2.98h-14.39v9.53h14.27v2.98h-14.27v11.95h14.27v2.98h-17.31v-30.42zM393.57 224.24h-3.31l-10.08-23.5-10.25 23.5h-3.31l13.23-30.42h.66l13.06 30.42zM436.01 224.24h-3.16v-23.32l-20.06 23.32h-.68v-30.42h3.04v23.72l20.18-23.72h.68v30.42zM456.84 193.82h17.43v2.98h-14.39v9.53h14.27v2.98h-14.27v11.95h14.27v2.98h-17.31v-30.42z"/><g><path class="st1" d="M136.9 577.6h332.96v98.8H136.9z"/><path d="M140.03 578.22h4.96c1.99 0 3.53.24 4.6.71 1.07.47 1.92 1.2 2.54 2.18.62.98.93 2.07.93 3.26 0 1.12-.27 2.13-.82 3.05-.54.92-1.34 1.66-2.4 2.23 1.31.44 2.31.97 3.02 1.56.7.6 1.25 1.32 1.64 2.17s.59 1.77.59 2.76c0 2.02-.74 3.72-2.21 5.12-1.48 1.4-3.46 2.09-5.94 2.09h-6.9v-25.13zm2.46 2.46v8.05h1.44c1.75 0 3.03-.16 3.85-.49.82-.32 1.47-.84 1.95-1.54.48-.7.72-1.48.72-2.33 0-1.15-.4-2.05-1.21-2.71s-2.09-.98-3.84-.98h-2.91zm0 10.58v9.64h3.12c1.84 0 3.18-.18 4.04-.54.86-.36 1.54-.92 2.06-1.68.52-.76.78-1.59.78-2.48 0-1.12-.37-2.09-1.1-2.92-.73-.83-1.73-1.4-3.01-1.71-.86-.21-2.35-.31-4.47-.31h-1.42zM216.55 582.88l-1.98 1.52c-1.09-1.42-2.41-2.5-3.94-3.24-1.53-.73-3.22-1.1-5.05-1.1-2.01 0-3.86.48-5.57 1.44-1.71.96-3.03 2.26-3.97 3.88-.94 1.62-1.41 3.45-1.41 5.48 0 3.06 1.05 5.62 3.15 7.67 2.1 2.05 4.75 3.08 7.96 3.08 3.52 0 6.47-1.38 8.84-4.14l1.98 1.5c-1.25 1.6-2.82 2.83-4.69 3.7-1.87.87-3.97 1.31-6.28 1.31-4.4 0-7.87-1.46-10.41-4.39-2.13-2.47-3.2-5.46-3.2-8.96 0-3.68 1.29-6.78 3.87-9.29 2.58-2.51 5.81-3.77 9.7-3.77 2.35 0 4.47.46 6.36 1.39 1.89.95 3.44 2.25 4.64 3.92zM233.57 577.59c3.81 0 6.99 1.27 9.56 3.81 2.56 2.54 3.85 5.67 3.85 9.38 0 3.68-1.28 6.8-3.84 9.37s-5.68 3.85-9.36 3.85c-3.73 0-6.87-1.28-9.44-3.83-2.56-2.55-3.85-5.64-3.85-9.26 0-2.42.58-4.65 1.75-6.72 1.17-2.06 2.76-3.68 4.78-4.84s4.2-1.76 6.55-1.76zm.11 2.44c-1.86 0-3.62.49-5.29 1.45-1.67.97-2.97 2.28-3.9 3.92-.94 1.64-1.4 3.47-1.4 5.49 0 2.99 1.04 5.51 3.11 7.57 2.07 2.06 4.57 3.09 7.49 3.09 1.95 0 3.76-.47 5.42-1.42s2.96-2.24 3.89-3.88c.93-1.64 1.4-3.47 1.4-5.47 0-2-.47-3.8-1.4-5.41-.93-1.61-2.24-2.9-3.93-3.87-1.71-.99-3.5-1.47-5.39-1.47zM252.08 578.22h4.96c1.99 0 3.53.24 4.6.71 1.07.47 1.92 1.2 2.54 2.18.62.98.93 2.07.93 3.26 0 1.12-.27 2.13-.82 3.05-.54.92-1.34 1.66-2.4 2.23 1.31.44 2.31.97 3.02 1.56.7.6 1.25 1.32 1.64 2.17s.59 1.77.59 2.76c0 2.02-.74 3.72-2.21 5.12-1.48 1.4-3.46 2.09-5.94 2.09h-6.9v-25.13zm2.46 2.46v8.05h1.44c1.75 0 3.03-.16 3.85-.49.82-.32 1.47-.84 1.95-1.54.48-.7.72-1.48.72-2.33 0-1.15-.4-2.05-1.21-2.71s-2.09-.98-3.84-.98h-2.91zm0 10.58v9.64h3.12c1.84 0 3.18-.18 4.04-.54.86-.36 1.54-.92 2.06-1.68.52-.76.78-1.59.78-2.48 0-1.12-.37-2.09-1.1-2.92-.73-.83-1.73-1.4-3.01-1.71-.86-.21-2.35-.31-4.47-.31h-1.42zM272.1 578.22h5.01c2.87 0 4.81.13 5.81.38 1.44.35 2.61 1.08 3.52 2.18.91 1.1 1.37 2.48 1.37 4.14 0 1.67-.44 3.06-1.33 4.14-.89 1.09-2.11 1.82-3.67 2.2-1.14.27-3.27.41-6.39.41h-1.79v11.69h-2.51v-25.14zm2.51 2.46v8.53l4.26.05c1.72 0 2.98-.16 3.78-.47.8-.31 1.42-.82 1.88-1.52.46-.7.68-1.48.68-2.35 0-.84-.23-1.61-.68-2.31-.46-.7-1.06-1.2-1.8-1.49-.75-.3-1.97-.44-3.67-.44h-4.45zM292.84 578.22h14.41v2.46h-11.89v7.88h11.79v2.46h-11.79v9.88h11.79v2.46h-14.3v-25.14zM310.45 603.36l3.6-25.14h.41l10.22 20.63 10.12-20.63h.4l3.62 25.14h-2.46l-2.48-17.98-8.89 17.98h-.64l-8.99-18.12-2.47 18.12h-2.44zM343.77 578.22h14.41v2.46h-11.89v7.88h11.79v2.46h-11.79v9.88h11.79v2.46h-14.3v-25.14zM362.48 578.22H365v10.54h12.8v-10.54h2.51v25.14h-2.51v-12.13H365v12.13h-2.51v-25.14zM386.39 578.22h2.51v10.54h12.8v-10.54h2.51v25.14h-2.51v-12.13h-12.8v12.13h-2.51v-25.14zM422.31 577.59c3.81 0 6.99 1.27 9.56 3.81 2.56 2.54 3.85 5.67 3.85 9.38 0 3.68-1.28 6.8-3.84 9.37-2.56 2.56-5.68 3.85-9.36 3.85-3.73 0-6.87-1.28-9.44-3.83-2.57-2.55-3.85-5.64-3.85-9.26 0-2.42.58-4.65 1.75-6.72 1.17-2.06 2.76-3.68 4.78-4.84s4.2-1.76 6.55-1.76zm.11 2.44c-1.86 0-3.62.49-5.29 1.45-1.67.97-2.97 2.28-3.9 3.92s-1.4 3.47-1.4 5.49c0 2.99 1.04 5.51 3.11 7.57 2.07 2.06 4.57 3.09 7.49 3.09 1.95 0 3.76-.47 5.42-1.42 1.66-.95 2.96-2.24 3.89-3.88.93-1.64 1.4-3.47 1.4-5.47 0-2-.46-3.8-1.4-5.41-.93-1.61-2.24-2.9-3.93-3.87-1.71-.99-3.5-1.47-5.39-1.47zM439.61 603.36l3.6-25.14h.41l10.22 20.63 10.12-20.63h.4l3.62 25.14h-2.46l-2.48-17.98-8.89 17.98h-.64l-8.99-18.12-2.47 18.12h-2.44zM138.81 642.49l3.6-25.14h.41l10.22 20.63 10.12-20.63h.4l3.62 25.14h-2.46l-2.48-17.98-8.89 17.98h-.64l-8.99-18.12-2.47 18.12h-2.44zM270.37 642.49h-2.61v-19.28l-16.58 19.28h-.56v-25.14h2.51v19.61l16.68-19.61h.56v25.14zM354.95 617.35h5.01c2.87 0 4.81.13 5.81.38 1.44.35 2.61 1.08 3.52 2.18.91 1.1 1.37 2.48 1.37 4.14 0 1.67-.45 3.06-1.33 4.14-.89 1.09-2.11 1.82-3.67 2.2-1.14.27-3.27.41-6.39.41h-1.79v11.69h-2.51v-25.14zm2.51 2.46v8.53l4.25.05c1.72 0 2.98-.16 3.78-.47.8-.31 1.42-.82 1.88-1.52.46-.7.68-1.48.68-2.35 0-.84-.23-1.61-.68-2.31-.46-.7-1.06-1.2-1.8-1.49-.75-.3-1.97-.44-3.67-.44h-4.44zM454.17 617.35h14.41v2.46h-11.89v7.88h11.79v2.46h-11.79v9.88h11.79v2.46h-14.3v-25.14z"/></g></g></svg>