<svg xmlns="http://www.w3.org/2000/svg" viewBox="0 0 595.28 841.89" style="enable-background:new 0 0 595.28 841.89" xml:space="preserve"><style>.st0{stroke:#000;stroke-miterlimit:10}.st0,.st1{fill:none}.st2{font-family:&apos;CenturyGothic&apos;}.st3{font-size:42.35px}.st5{font-size:35px}</style><g id="Слой_2"><path d="M290.21 387.17c-7.27-13.89-11.28-28.72-7.9-44.33 1.58-7.31 4.46-14.29 7.76-20.98.85-1.73 4.08-9.87 5.79-9.89 1.33-.02 4.33 6.32 5.37 7.84 3.3 4.83 7.13 9.29 10.29 14.21 3.82 5.95 6.07 12.42 7.25 19.37 2.64 15.63-.9 28.97-8.75 42.51-.41.71.66 1.32 1.09.64 8.98-14.15 11.65-29.62 8.26-45.99-3.35-16.15-15.79-26.37-23.14-40.5-.11-.21-.43-.2-.54 0-6.72 11.96-13.25 24.7-14.8 38.53-1.53 13.73 2.72 26.72 9.07 38.73.09.16.33.02.25-.14zM303.25 396.84c-20.68-15.46-58.01-19.35-72.83 6.24-1.31 2.26-5.13 8.76-3.22 11.32 1.29 1.72 7.41 2 9.24 2.33 5.43.99 10.81 1.59 16.33 1.81 8.64.33 17.21 1.86 25.88 1.59 12.16-.37 26.34-6.19 28.47-19.6.04-.27-.36-.38-.41-.11-2.89 18.01-24.09 20.12-38.59 18.64-12.57-1.28-25.37-1.48-37.68-4.62-3.13-.8-2.38-3.1-1.41-5.84 1.31-3.71 3.4-7.08 5.97-10.04 4.81-5.54 11.38-9.37 18.42-11.3 16.75-4.61 35.5.42 49.8 9.63.04.04.07-.02.03-.05zM314.92 400.31c12.51 2.85 26.09 6.52 36.86 13.73 10.17 6.8 12.62 17.48 15.36 28.54.27-.48.55-.96.82-1.45-5.68 1.79-12.64.89-18.49.39-6.35-.55-13.87-1.24-19.75-3.95-9.61-4.44-19.87-13.38-22.12-24.13-.09-.41-.77-.2-.61.17 4.48 10.67 10.88 17.98 21.2 23.57 5.06 2.74 11.23 3.51 16.86 4.23 7.36.94 15.86-.24 22.92 1.99.72.23 1.5-.39 1.49-1.13-.24-10.52-5.49-21.39-13.9-27.72-11.75-8.84-26.68-11.09-40.6-14.33-.08-.02-.1.07-.04.09z"/><path d="M271.01 421.03c-5.87 2.38-12.94 7.96-15.92 13.62-2.3 4.36-2.56 9.97-2.69 14.79-.19 6.76.24 13.59 1.07 20.3.07.53.44.85.98.75 16.16-3.01 33.91-6.51 45.46-19.31 9.1-10.07 12.39-25.65 7.14-38.34-.33-.81-1.63-.52-1.36.37 3.5 11.35 2.84 23.32-4.07 33.34-7.55 10.94-20.46 16.32-32.91 19.42-3.03.75-6.09 1.38-9.15 1.98-1.39.27-3.11 1.09-4.28.23-1.31-.97-1.18-4.22-1.35-5.79-.64-5.98-.81-12.25-.17-18.24.68-6.42 2.74-10.7 7.28-15.14 2.97-2.91 6.32-5.83 10.17-7.52.25-.12.06-.56-.2-.46zM306.75 399.98c.93-3.08 1.08-6.27.29-9.4-.39-1.54-1.13-3.13-1.34-4.52-.14-.95-.03-1.83-1.23-2.16-.92-.25-1.91.31-2.16 1.23-.31 1.14.47 1.59 1.23 2.16 3.43 2.61 3.46 8.5 2.46 12.49-.12.48.61.68.75.2z"/><path d="M306.43 399.72c-2.78-.6-5.54-2.17-8.36-.84-1.48.7-3.81 2.95-2.4 4.6.2.23.57.14.72-.09.41-.63.3-1.32.65-1.97.66-1.26 2.36-1.88 3.67-1.92 1.89-.05 3.77.56 5.65.7.28.02.34-.42.07-.48z"/><path d="M307.07 400.27c-.12-.14-.25-.27-.37-.41-.11.19-.22.39-.33.58 1.47.1 3.85 1.89 5.03 2.65 3.21 2.07 4.44 4.74 3.74 8.45-.32 1.67 1.8 2.64 2.76 1.16 1.79-2.74-1.94-8.09-4.03-9.7-1.34-1.03-2.93-1.82-4.51-2.41-.84-.31-2.08-.97-2.99-.94-.56.02-.46.88.1.76l.52.03c.11.05.17-.1.08-.17z"/><path d="M306.59 399.89c-.03.01-.07.01-.1.02-.06.01-.05.09 0 .11.06.02.12.04.17.06.21.07.3-.26.09-.33l-.09-.03c-.28-.09-.41.38-.12.44 4.87.96 10.52-1.09 13.07-5.43 1.02-1.73-2.15-2.91-2.42-.66-.55 4.61-7.22 4.85-10.57 5.92.06-.02.03-.11-.03-.1z"/><path d="M306.56 400.02c-.8 3.73-2.45 7.21-3.88 10.73-.69 1.69-1.71 3.22-2.42 4.79-.45 1.01-.55 1.86.11 2.81.38.54 1.1.69 1.6.21.79-.75.9-1.44.92-2.51.04-2.23.42-3.71 1.24-5.93 1.18-3.22 2.75-6.55 2.84-10.04.01-.24-.36-.29-.41-.06z"/><circle class="st0" cx="304.21" cy="397.87" r="138.18"/><circle class="st0" cx="304.21" cy="397.87" r="129.96"/><path d="M320.46 374.68c3.01-4.98 9.5-9.21 15-10.84 5.82-1.72 12.53-.78 18.51-.69 2.71.04 6.8-.94 9.37-.42 1.63.33.4-.98.69.51.34 1.74-.6 4.24-.9 5.95-1.18 6.79-2.61 13.42-5.94 19.54-4.87 8.97-12.47 13.25-22.13 15.66-.38.09-.31.71.09.69 11.72-.5 20.78-9.09 25.08-19.52 1.93-4.68 3.13-9.71 3.79-14.73.37-2.8.1-5.84.86-8.57.07-.26-.17-.46-.41-.41-9.23 1.78-18.95-.9-28.08 1.32-5.93 1.44-12.94 6.11-16.06 11.44-.04.07.08.14.13.07zM295.85 404.16c.18.01.34-.03.49-.11a.99.99 0 0 0 .41-.26.99.99 0 0 0 .26-.41c.08-.15.12-.31.11-.49-.02-.11-.03-.23-.05-.34-.06-.22-.17-.4-.33-.56l-.26-.2c-.2-.12-.41-.17-.64-.17a.908.908 0 0 0-.49.11.99.99 0 0 0-.41.26.99.99 0 0 0-.26.41c-.08.15-.12.31-.11.49.02.11.03.23.05.34.06.22.17.4.33.56l.26.2c.19.12.41.17.64.17z"/></g><g id="Слой_3"><path class="st1" d="M135.26 193.07h340.56v101.06H135.26z"/><text transform="translate(135.261 224.24)"><tspan x="0" y="0" class="st2 st3" style="letter-spacing:13">ЕВАНГЕЛИ</tspan><tspan x="317.85" y="0" class="st2 st3">Е</tspan></text><path class="st1" d="M136.9 577.6h332.96v98.8H136.9z"/><text transform="translate(136.9 603.357)"><tspan x="0" y="0" class="st2 st5">В</tspan><tspan x="20.1" y="0" class="st2 st5" style="letter-spacing:23"> </tspan><tspan x="53.18" y="0" class="st2 st5">СОВРЕМЕННОМ </tspan><tspan x="0" y="39.13" class="st2 st5" style="letter-spacing:78">МИР</tspan><tspan x="314.19" y="39.13" class="st2 st5">Е</tspan></text></g></svg>